<svg xmlns="http://www.w3.org/2000/svg" width="50" height="50" fill="none" xmlns:v="https://vecta.io/nano"><circle cx="25" cy="25" r="25" fill="#fef5e9"/><g clip-path="url(#A)" fill="#020205"><path d="M23.413 27.161c.384 0 .694-.311.694-.695s-.311-.694-.694-.694-.694.311-.694.694.311.695.694.695z"/><use href="#B"/><use href="#C"/><path d="M23.413 35.495c.384 0 .694-.311.694-.694s-.311-.694-.694-.694-.694.311-.694.694.311.694.694.694zm3.475-1.382h-1.389c-.184 0-.361.073-.491.203s-.203.307-.203.491.073.361.203.491.307.203.491.203h1.389c.184 0 .361-.073.491-.203s.203-.307.203-.491-.073-.361-.203-.491-.307-.203-.491-.203zM16.468 17.44c.384 0 .694-.311.694-.694s-.311-.694-.694-.694-.694.311-.694.694.311.694.694.694zm2.773 0c.384 0 .695-.311.695-.694s-.311-.694-.695-.694-.694.311-.694.694.311.694.694.694zm2.782 0c.383 0 .694-.311.694-.694s-.311-.694-.694-.694-.695.311-.695.694.311.694.695.694zm13.199-4.16H15.778A2.78 2.78 0 0 0 13 16.058v16.667a2.78 2.78 0 0 0 2.778 2.778c.184 0 .361-.073.491-.203s.203-.307.203-.491-.073-.361-.203-.491-.307-.203-.491-.203a1.39 1.39 0 0 1-1.389-1.389V16.058a1.39 1.39 0 0 1 1.389-1.389h19.444a1.39 1.39 0 0 1 1.389 1.389v2.778H17.167c-.184 0-.361.073-.491.203s-.203.307-.203.491.073.361.203.491.307.203.491.203h19.444v12.5a1.39 1.39 0 0 1-1.389 1.389h-.694a2.08 2.08 0 0 0-.542-1.389 2.08 2.08 0 0 0 .542-1.389v-1.389a2.08 2.08 0 0 0-.542-1.389 2.08 2.08 0 0 0 .542-1.389V25.78a2.08 2.08 0 0 0-.61-1.473c-.391-.39-.921-.61-1.473-.61h-9.722a2.08 2.08 0 0 0-1.473.61c-.391.391-.61.921-.61 1.473v1.389a2.08 2.08 0 0 0 .542 1.389 2.08 2.08 0 0 0-.542 1.389v1.389a2.08 2.08 0 0 0 .542 1.389 2.08 2.08 0 0 0-.542 1.389v1.389c0 .552.22 1.082.61 1.473a2.08 2.08 0 0 0 1.473.61h9.722a2.08 2.08 0 0 0 1.473-.61c.391-.391.61-.921.61-1.473h.694A2.78 2.78 0 0 0 38 32.724V16.058a2.78 2.78 0 0 0-2.778-2.778zM22.028 31.335v-1.389c0-.184.073-.361.203-.491s.307-.203.491-.203h9.722c.184 0 .361.073.491.203s.203.307.203.491v1.389c0 .184-.073.361-.203.491s-.307.203-.491.203h-9.722c-.184 0-.361-.073-.491-.203s-.203-.307-.203-.491zm0-5.555c0-.184.073-.361.203-.491s.307-.203.491-.203h9.722c.184 0 .361.073.491.203s.203.307.203.491v1.389c0 .184-.073.361-.203.491s-.307.203-.491.203h-9.722c-.184 0-.361-.073-.491-.203s-.203-.307-.203-.491V25.78zm11.111 9.722c0 .184-.073.361-.203.491s-.307.203-.491.203h-9.722c-.184 0-.361-.073-.491-.203s-.203-.307-.203-.491v-1.389c0-.184.073-.361.203-.491s.307-.203.491-.203h9.722c.184 0 .361.073.491.203s.203.307.203.491v1.389zm1.389-18.056c.184 0 .361-.073.491-.203s.203-.307.203-.491-.073-.361-.203-.491-.307-.203-.491-.203h-8.333c-.184 0-.361.073-.491.203s-.203.307-.203.491.073.361.203.491.307.203.491.203h8.333zm-9.029 9.723h1.389c.184 0 .361-.073.491-.203s.203-.307.203-.491-.073-.361-.203-.491-.307-.203-.491-.203h-1.389c-.184 0-.361.073-.491.203s-.203.307-.203.491.073.361.203.491.307.203.491.203z"/></g><defs><clipPath id="A"><path fill="#fff" transform="translate(13 12.672)" d="M0 0h25v25H0z"/></clipPath><path id="B" d="M23.413 31.328c.384 0 .694-.311.694-.694s-.311-.694-.694-.694-.694.311-.694.694.311.694.694.694z"/><path id="C" d="M26.888 29.946h-1.389c-.184 0-.361.073-.491.203s-.203.307-.203.491.073.361.203.491.307.203.491.203h1.389c.184 0 .361-.073.491-.203s.203-.307.203-.491-.073-.361-.203-.491-.307-.203-.491-.203z"/></defs></svg>