<svg width="19" height="21" viewBox="0 0 19 21" fill="none" xmlns="http://www.w3.org/2000/svg">
<path d="M18.4038 5.4387C18.393 4.89872 18.3826 4.38862 18.3826 3.89513C18.3826 3.50852 18.0519 3.19508 17.6437 3.19508C14.4835 3.19508 12.0774 2.33467 10.0718 0.487282C9.78489 0.222943 9.32832 0.223036 9.04151 0.487282C7.03612 2.33467 4.63042 3.19508 1.4704 3.19508C1.06231 3.19508 0.73146 3.50852 0.73146 3.89513C0.73146 4.38871 0.721213 4.899 0.710277 5.43907C0.608992 10.4641 0.470269 17.3462 9.31463 20.2505C9.39306 20.2762 9.47483 20.2891 9.55661 20.2891C9.63838 20.2891 9.72026 20.2762 9.79859 20.2505C18.6436 17.3461 18.5051 10.4639 18.4038 5.4387ZM9.55671 18.8462C1.9715 16.2357 2.08619 10.5172 2.18797 5.46577C2.19407 5.1626 2.19999 4.86876 2.20412 4.58071C5.16384 4.46236 7.53062 3.61268 9.55671 1.94059C11.583 3.61268 13.9502 4.46245 16.9101 4.58071C16.9142 4.86867 16.9201 5.16232 16.9262 5.4653C17.0279 10.517 17.1425 16.2356 9.55671 18.8462Z" fill="#22C55E"/>
<path d="M12.0999 7.85734L8.53333 11.236L7.0114 9.79415C6.72282 9.52085 6.25492 9.52085 5.96644 9.79415C5.67785 10.0676 5.67785 10.5108 5.96644 10.7842L8.01085 12.721C8.15509 12.8577 8.34426 12.926 8.53333 12.926C8.7224 12.926 8.91157 12.8577 9.05581 12.721L13.1447 8.8474C13.4334 8.57401 13.4334 8.13074 13.1448 7.85744C12.8563 7.58404 12.3884 7.58395 12.0999 7.85734Z" fill="#22C55E"/>
</svg>
