<svg width="50" height="31" viewBox="0 0 50 31" fill="none" xmlns="http://www.w3.org/2000/svg">
<rect x="0.424658" y="0.424658" width="49.1507" height="30.1507" rx="2.12329" fill="white"/>
<rect x="0.424658" y="0.424658" width="49.1507" height="30.1507" rx="2.12329" stroke="#D7EBFF" stroke-width="0.849315"/>
<path d="M5.20703 14.592V6H6.92543L10.8164 11.8303V6H12.5348V14.592H10.8164L6.92543 8.77398V14.592H5.20703Z" fill="#265697"/>
<path d="M14.209 14.592V6H19.8919V7.38699H15.9274V9.55954H19.5237V10.8974H15.9274V13.205H19.8919V14.592H14.209Z" fill="#265697"/>
<path d="M23.3896 14.592V7.38699H20.8857V6H27.5997V7.38699H25.0957V14.592H23.3896Z" fill="#265697"/>
<path d="M5 24.6056V17.3811H8.00334C8.50561 17.3811 8.92876 17.4602 9.27279 17.6184C9.61681 17.7767 9.87827 17.9969 10.0572 18.279C10.2361 18.5542 10.3255 18.8776 10.3255 19.2491C10.3255 19.6069 10.2464 19.9096 10.0881 20.1573C9.92988 20.405 9.72002 20.5977 9.45856 20.7353C9.20398 20.866 8.92188 20.9417 8.61226 20.9624L8.77739 20.8488C9.10766 20.8626 9.40008 20.952 9.65466 21.1172C9.91611 21.2823 10.1191 21.499 10.2636 21.7674C10.4149 22.0288 10.4906 22.3178 10.4906 22.6343C10.4906 23.0196 10.3977 23.3637 10.212 23.6664C10.0262 23.9623 9.75442 24.1928 9.39664 24.3579C9.04573 24.523 8.6157 24.6056 8.10654 24.6056H5ZM6.4449 23.429H7.87949C8.24415 23.429 8.52625 23.3465 8.72579 23.1813C8.92532 23.0093 9.02509 22.7685 9.02509 22.4589C9.02509 22.1492 8.92188 21.905 8.71547 21.7261C8.50905 21.5472 8.22351 21.4578 7.85885 21.4578H6.4449V23.429ZM6.4449 20.3844H7.76596C8.11686 20.3844 8.3852 20.3053 8.57098 20.147C8.75675 19.9819 8.84964 19.7514 8.84964 19.4555C8.84964 19.1666 8.75675 18.9429 8.57098 18.7847C8.3852 18.6196 8.11342 18.537 7.75564 18.537H6.4449V20.3844Z" fill="#265697"/>
<path d="M13.3456 24.7294C12.919 24.7294 12.5612 24.6606 12.2723 24.523C11.9902 24.3785 11.7803 24.1893 11.6427 23.9554C11.512 23.7146 11.4466 23.4497 11.4466 23.1607C11.4466 22.8511 11.5257 22.5758 11.684 22.335C11.8422 22.0942 12.0865 21.905 12.4167 21.7674C12.747 21.6298 13.1598 21.561 13.6552 21.561H14.935C14.935 21.3133 14.9006 21.1103 14.8318 20.952C14.7699 20.7869 14.6667 20.6631 14.5222 20.5805C14.3846 20.4979 14.1988 20.4566 13.9649 20.4566C13.7103 20.4566 13.4935 20.5117 13.3146 20.6218C13.1426 20.7319 13.036 20.897 12.9947 21.1172H11.5911C11.6324 20.7456 11.7562 20.4257 11.9626 20.1573C12.169 19.8821 12.4443 19.6688 12.7883 19.5175C13.1392 19.3592 13.5348 19.2801 13.9752 19.2801C14.4637 19.2801 14.8868 19.3626 15.2446 19.5278C15.6093 19.6929 15.888 19.9303 16.0806 20.2399C16.2801 20.5495 16.3799 20.9314 16.3799 21.3855V24.6056H15.1621L14.9969 23.8212C14.9281 23.9588 14.8387 24.0827 14.7286 24.1928C14.6254 24.3028 14.505 24.3992 14.3674 24.4817C14.2298 24.5574 14.0749 24.6159 13.9029 24.6572C13.7378 24.7054 13.552 24.7294 13.3456 24.7294ZM13.6965 23.6148C13.8685 23.6148 14.0233 23.5873 14.161 23.5322C14.2986 23.4703 14.4155 23.3843 14.5119 23.2742C14.6082 23.1641 14.6873 23.0403 14.7492 22.9027C14.8112 22.7582 14.8524 22.6034 14.8731 22.4382V22.4279H13.8307C13.6312 22.4279 13.466 22.4554 13.3353 22.5105C13.2114 22.5586 13.1186 22.6309 13.0566 22.7272C12.9947 22.8167 12.9637 22.9199 12.9637 23.0368C12.9637 23.1607 12.9947 23.2673 13.0566 23.3568C13.1186 23.4462 13.2046 23.5116 13.3146 23.5529C13.4247 23.5942 13.552 23.6148 13.6965 23.6148Z" fill="#265697"/>
<path d="M17.6787 24.6056V19.4039H18.9482L19.0514 20.2502C19.2096 19.9613 19.4332 19.7273 19.7222 19.5484C20.0181 19.3695 20.3724 19.2801 20.7853 19.2801C21.2118 19.2801 21.5731 19.373 21.8689 19.5587C22.1648 19.7376 22.3884 19.9991 22.5398 20.3431C22.698 20.6871 22.7772 21.1103 22.7772 21.6126V24.6056H21.3426V21.7467C21.3426 21.3477 21.2566 21.0415 21.0846 20.8282C20.9194 20.608 20.6545 20.4979 20.2899 20.4979C20.0697 20.4979 19.8701 20.553 19.6913 20.6631C19.5124 20.7663 19.3713 20.9176 19.2681 21.1172C19.1718 21.3098 19.1236 21.5472 19.1236 21.8293V24.6056H17.6787Z" fill="#265697"/>
<path d="M27.5153 24.6056L25.317 21.7571L27.278 19.4039H28.9912L26.411 22.366V21.2204L29.3112 24.6056H27.5153ZM24.0889 24.6056V17.1747H25.5338V24.6056H24.0889Z" fill="#265697"/>
<path d="M30.1671 24.6056V19.4039H31.612V24.6056H30.1671ZM30.8896 18.7331C30.6281 18.7331 30.4148 18.6574 30.2497 18.506C30.0846 18.3478 30.002 18.1551 30.002 17.9281C30.002 17.6941 30.0846 17.5015 30.2497 17.3501C30.4148 17.1987 30.6281 17.123 30.8896 17.123C31.151 17.123 31.3643 17.1987 31.5295 17.3501C31.6946 17.5015 31.7772 17.6941 31.7772 17.9281C31.7772 18.1551 31.6946 18.3478 31.5295 18.506C31.3643 18.6574 31.151 18.7331 30.8896 18.7331Z" fill="#265697"/>
<path d="M32.9986 24.6056V19.4039H34.268L34.3712 20.2502C34.5295 19.9613 34.7531 19.7273 35.0421 19.5484C35.3379 19.3695 35.6923 19.2801 36.1051 19.2801C36.5317 19.2801 36.8929 19.373 37.1888 19.5587C37.4846 19.7376 37.7083 19.9991 37.8596 20.3431C38.0179 20.6871 38.097 21.1103 38.097 21.6126V24.6056H36.6624V21.7467C36.6624 21.3477 36.5764 21.0415 36.4044 20.8282C36.2393 20.608 35.9744 20.4979 35.6097 20.4979C35.3895 20.4979 35.19 20.553 35.0111 20.6631C34.8322 20.7663 34.6912 20.9176 34.588 21.1172C34.4916 21.3098 34.4435 21.5472 34.4435 21.8293V24.6056H32.9986Z" fill="#265697"/>
<path d="M41.6586 27C41.1632 27 40.7298 26.9381 40.3582 26.8142C39.9867 26.6973 39.6977 26.5149 39.4913 26.2672C39.2917 26.0264 39.192 25.7271 39.192 25.3693C39.192 25.1216 39.2539 24.8877 39.3778 24.6675C39.5085 24.4473 39.6977 24.2512 39.9454 24.0792C40.1931 23.9072 40.4958 23.7593 40.8536 23.6354L41.38 24.3579C41.0635 24.4542 40.833 24.5781 40.6885 24.7294C40.5509 24.8808 40.4821 25.0459 40.4821 25.2248C40.4821 25.3762 40.5337 25.5035 40.6369 25.6067C40.7401 25.7099 40.8777 25.7856 41.0497 25.8338C41.2286 25.8888 41.4281 25.9163 41.6483 25.9163C41.8616 25.9163 42.0474 25.8888 42.2056 25.8338C42.3639 25.7856 42.4877 25.7099 42.5772 25.6067C42.6666 25.5035 42.7114 25.3831 42.7114 25.2455C42.7114 25.0597 42.6494 24.9118 42.5256 24.8017C42.4017 24.6916 42.1472 24.6228 41.7618 24.5953C41.4178 24.5677 41.1082 24.5299 40.833 24.4817C40.5646 24.4267 40.3273 24.3648 40.1208 24.296C39.9144 24.2203 39.7355 24.1377 39.5842 24.0483C39.4397 23.9588 39.3261 23.8694 39.2436 23.7799V23.5426L40.3582 22.335L41.38 22.655L40.0486 23.976L40.4718 23.2536C40.5474 23.2949 40.6197 23.3361 40.6885 23.3774C40.7642 23.4118 40.8571 23.4462 40.9671 23.4806C41.0772 23.5081 41.2183 23.5357 41.3903 23.5632C41.5692 23.5838 41.7928 23.6079 42.0611 23.6354C42.5153 23.6767 42.8868 23.7627 43.1758 23.8935C43.4648 24.0173 43.6781 24.1893 43.8157 24.4095C43.9602 24.6297 44.0324 24.898 44.0324 25.2145C44.0324 25.5241 43.9464 25.8131 43.7744 26.0815C43.6093 26.3567 43.3512 26.5769 43.0003 26.742C42.6494 26.914 42.2022 27 41.6586 27ZM41.669 23.0781C41.2355 23.0781 40.8605 22.9956 40.544 22.8304C40.2275 22.6584 39.9832 22.4314 39.8112 22.1493C39.6461 21.8603 39.5635 21.5369 39.5635 21.1791C39.5635 20.8282 39.6461 20.5117 39.8112 20.2296C39.9832 19.9406 40.2275 19.7101 40.544 19.5381C40.8605 19.3661 41.2355 19.2801 41.669 19.2801C42.1093 19.2801 42.4843 19.3661 42.7939 19.5381C43.1104 19.7101 43.3512 19.9406 43.5164 20.2296C43.6815 20.5117 43.7641 20.8282 43.7641 21.1791C43.7641 21.5369 43.6815 21.8603 43.5164 22.1493C43.3512 22.4314 43.1104 22.6584 42.7939 22.8304C42.4843 22.9956 42.1093 23.0781 41.669 23.0781ZM41.669 21.9841C41.9235 21.9841 42.13 21.9188 42.2882 21.788C42.4533 21.6504 42.5359 21.4509 42.5359 21.1894C42.5359 20.928 42.4533 20.7319 42.2882 20.6011C42.13 20.4635 41.9235 20.3947 41.669 20.3947C41.4144 20.3947 41.2045 20.4635 41.0394 20.6011C40.8743 20.7319 40.7917 20.928 40.7917 21.1894C40.7917 21.4509 40.8743 21.6504 41.0394 21.788C41.2045 21.9188 41.4144 21.9841 41.669 21.9841ZM42.5256 20.4154L42.2985 19.4039H44.4452V20.2502L42.5256 20.4154Z" fill="#265697"/>
</svg>
