<svg xmlns="http://www.w3.org/2000/svg" width="50" height="50" fill="none" xmlns:v="https://vecta.io/nano"><circle cx="25" cy="25" r="25" fill="#d9f8da"/><path d="M35.689 31.3l-2.897-6.355v-1.856c0-.829-.329-1.624-.915-2.21s-1.381-.915-2.21-.915h-1.042V17.88c0-.829-.329-1.624-.915-2.21s-1.381-.915-2.21-.915-1.624.329-2.21.915-.915 1.381-.915 2.21v2.083h-1.042c-.829 0-1.624.329-2.21.915s-.915 1.381-.915 2.21v1.856l-2.924 6.421c-.177.473-.238.981-.175 1.482s.245.979.532 1.395.671.754 1.118.989.944.357 1.449.357h14.583c.511-.001 1.014-.126 1.464-.366s.836-.587 1.122-1.01.464-.91.518-1.418-.017-1.021-.207-1.495zm-15.397-8.211a1.04 1.04 0 0 1 1.042-1.042h2.083a1.04 1.04 0 0 0 1.042-1.042V17.88a1.04 1.04 0 0 1 1.042-1.042 1.04 1.04 0 0 1 1.042 1.042v3.125a1.04 1.04 0 0 0 1.042 1.042h2.083c.137 0 .272.027.399.079a1.04 1.04 0 0 1 .564.564 1.04 1.04 0 0 1 .079.399v1.042H20.292v-1.042zm13.354 9.968a1.03 1.03 0 0 1-.854.449H21.738l.584-1.754c.087-.262.067-.549-.057-.796s-.341-.435-.603-.523-.549-.067-.796.057-.436.341-.523.603l-.802 2.414h-1.332a1.03 1.03 0 0 1-.856-.449 1.01 1.01 0 0 1-.146-.892l2.714-5.951h11.16l2.685 5.884c.06.157.081.327.06.494a1.03 1.03 0 0 1-.18.464z" fill="#020205"/></svg>