<svg xmlns="http://www.w3.org/2000/svg" width="30" height="30" fill="none" xmlns:v="https://vecta.io/nano"><g clip-path="url(#A)"><path d="M15.003 1.2c7.622 0 13.8 6.178 13.8 13.8s-6.178 13.8-13.8 13.8-13.8-6.178-13.8-13.8 6.178-13.8 13.8-13.8zm0 1.453A12.35 12.35 0 0 0 2.656 15a12.35 12.35 0 0 0 12.347 12.347A12.35 12.35 0 0 0 27.351 15 12.35 12.35 0 0 0 15.003 2.653zm7.777 4.571c.262.262.309.734 0 1.027l-5.274 5.274A2.89 2.89 0 0 1 17.908 15c0 1.605-1.301 2.905-2.905 2.905S12.098 16.605 12.098 15s1.301-2.905 2.905-2.905a2.89 2.89 0 0 1 1.476.402l5.274-5.274c.284-.284.744-.284 1.027 0zm-7.777 6.324c-.802 0-1.453.65-1.453 1.453s.65 1.453 1.453 1.453 1.453-.65 1.453-1.453-.65-1.453-1.453-1.453zm8.583-2.487A9.41 9.41 0 0 1 24.445 15c0 .401-.325.726-.726.726s-.726-.325-.726-.726c0-1.167-.25-2.297-.726-3.333-.168-.365-.008-.796.357-.963s.796-.008.963.357zm-8.583-5.503a9.41 9.41 0 0 1 3.973.874c.364.169.522.601.353.965s-.601.522-.965.353c-1.044-.485-2.184-.739-3.361-.739A7.99 7.99 0 0 0 7.014 15c0 .401-.325.726-.726.726s-.726-.325-.726-.726c0-5.215 4.227-9.442 9.442-9.442z" fill="#020205" stroke="#020205" stroke-width=".5"/></g><defs><clipPath id="A"><path fill="#fff" d="M0 0h30v30H0z"/></clipPath></defs></svg>