<svg xmlns="http://www.w3.org/2000/svg" width="50" height="50" fill="none" xmlns:v="https://vecta.io/nano"><circle cx="25" cy="25" r="25" fill="#f5eeff"/><g clip-path="url(#A)" stroke="#020205"><path d="M26.345 24.874L35 20.715l-8.655-3.842m-2.771 0L15 20.715l8.574 4.158" stroke-width="1.8" stroke-linecap="round"/><g fill="#020205"><use href="#B"/><path d="M14 29.097c0-.105.108-.175.204-.132l10.055 4.505c.79.354 1.693.354 2.483 0l10.055-4.505c.096-.043.204.027.204.132v.531c0 .057-.033.109-.086.132l-10.173 4.558c-.79.354-1.693.354-2.483 0l-10.173-4.558c-.052-.023-.085-.075-.085-.132v-.531z"/></g></g><defs><clipPath id="A"><path fill="#fff" transform="translate(13 13)" d="M0 0h25v25H0z"/></clipPath><path id="B" d="M14 25.097c0-.105.108-.175.204-.132l10.055 4.505c.79.354 1.693.354 2.483 0l10.055-4.505c.096-.043.204.027.204.132v.531c0 .057-.033.109-.086.132l-10.173 4.558c-.79.354-1.693.354-2.483 0l-10.173-4.558c-.052-.023-.085-.075-.085-.132v-.531z"/></defs></svg>