<svg xmlns="http://www.w3.org/2000/svg" width="30" height="30" fill="none" xmlns:v="https://vecta.io/nano"><g clip-path="url(#A)" fill="#020205"><path d="M20.085 12.826c.422-.447.422-1.173 0-1.62s-1.105-.447-1.527 0l-4.996 5.299-2.116-2.244c-.422-.447-1.106-.447-1.527 0s-.422 1.172 0 1.62l2.88 3.055a1.05 1.05 0 0 0 .764.336 1.05 1.05 0 0 0 .764-.336l5.76-6.109z"/><path fill-rule="evenodd" d="M18.057.799a6.79 6.79 0 0 0-6.118 0L4.587 4.504c-1.342.676-2.189 2.058-2.189 3.57v10.954c0 2.377 1.215 4.587 3.215 5.846l7.286 4.59c1.284.809 2.914.809 4.198 0l7.286-4.59c2-1.26 3.215-3.469 3.215-5.846V8.074c0-1.512-.847-2.894-2.189-3.57L18.057.799zm-5.152 1.947c1.318-.664 2.868-.664 4.186 0l7.352 3.705c.61.307.995.936.995 1.623v10.954c0 1.626-.831 3.138-2.2 4l-7.286 4.59a1.79 1.79 0 0 1-1.908 0l-7.286-4.59c-1.368-.862-2.2-2.374-2.2-4V8.074c0-.687.385-1.315.995-1.623l7.352-3.705z"/></g><defs><clipPath id="A"><path fill="#fff" d="M0 0h30v30H0z"/></clipPath></defs></svg>