<svg xmlns="http://www.w3.org/2000/svg" width="45" height="45" fill="none" xmlns:v="https://vecta.io/nano"><g clip-path="url(#A)" fill="#2eb654"><path d="M22.502 0A22.5 22.5 0 0 0 .419 18.178a22.5 22.5 0 0 0 23.715 26.763 22.5 22.5 0 0 0 9.777-3.049l6.614 1.8a2.58 2.58 0 0 0 3.169-3.169l-1.8-6.614A22.5 22.5 0 0 0 22.502 0zm17.861 33.994l1.885 6.925a1.08 1.08 0 0 1-1.327 1.324l-6.925-1.885c-.098-.027-.201-.034-.302-.019s-.198.05-.285.103A21 21 0 0 1 7.652 7.648a21 21 0 0 1 32.794 25.757.75.75 0 0 0-.083.589zM15.75 27a.75.75 0 1 0 0-1.5h-3.343a7.9 7.9 0 0 1 1.226-.804C14.911 23.958 16.5 23.041 16.5 21a3 3 0 1 0-6 0 .75.75 0 1 0 1.5 0 1.5 1.5 0 1 1 3 0c0 1.096-.8 1.637-2.117 2.4-1.117.642-2.383 1.373-2.383 2.85a.75.75 0 0 0 .75.75h4.5zm14.246-8.25a.75.75 0 0 0 .75.75h2.537l-3.212 6.415a.75.75 0 1 0 1.342.67l3.75-7.5A.75.75 0 0 0 34.496 18h-3.75a.75.75 0 0 0-.75.75zM21.748 27a.75.75 0 0 0 .75-.75v-1.5h.75a.75.75 0 1 0 0-1.5h-.75v-.75a.75.75 0 1 0-1.5 0v.75h-1.707l2.358-4.125a.75.75 0 0 0-.27-1.038.75.75 0 0 0-1.032.295l-3 5.25a.75.75 0 0 0 .651 1.119h3v1.5a.75.75 0 0 0 .75.75zm5.274-9.182l-2.25 9a.75.75 0 0 0 .546.909c.059.015.12.022.181.023a.75.75 0 0 0 .727-.569l2.25-9a.75.75 0 0 0-.542-.926.75.75 0 0 0-.912.563zm8.441-4.278a.75.75 0 0 0-.236 1.034c1.858 2.975 2.613 6.507 2.136 9.982a14.99 14.99 0 0 1-23.927 9.893l1.593-.099a.75.75 0 0 0-.094-1.5l-3.443.215a.75.75 0 0 0-.701.796l.215 3.443a.75.75 0 0 0 .75.703h.047a.75.75 0 0 0 .702-.795l-.104-1.676a16.49 16.49 0 0 0 24.097-21.757.75.75 0 0 0-1.034-.236zM7.503 22.5a14.99 14.99 0 0 1 24.061-11.946l-1.593.099a.75.75 0 0 0-.726.773.75.75 0 0 0 .773.727h.047l3.443-.215a.75.75 0 0 0 .701-.796l-.215-3.443a.74.74 0 0 0-.795-.702.75.75 0 0 0-.702.795l.104 1.676A16.49 16.49 0 0 0 8.503 31.22a.75.75 0 0 0 .636.352.74.74 0 0 0 .398-.115.75.75 0 0 0 .236-1.033 14.9 14.9 0 0 1-2.27-7.926z"/></g><defs><clipPath id="A"><path fill="#fff" d="M0 0h45v45H0z"/></clipPath></defs></svg>