<svg xmlns="http://www.w3.org/2000/svg" width="50" height="50" fill="none" xmlns:v="https://vecta.io/nano"><rect width="50" height="50" rx="25" fill="#fef5e9"/><path d="M34.58 22.139A10 10 0 0 0 25.001 15a10.07 10.07 0 0 0-8.361 4.519 2.5 2.5 0 0 0-.307 1.006V17H15v5.333h5.334v-1.333H17.32a8.79 8.79 0 0 1 7.681-4.733c4.81.033 8.701 3.923 8.734 8.732-.033 4.809-3.924 8.7-8.734 8.732a8.78 8.78 0 0 1-8.307-6.252l-1.28.38c1.58 5.291 7.151 8.301 12.443 6.721a10 10 0 0 0 6.723-12.441z" fill="#ffaf44" stroke="#ffaf44" stroke-width=".5"/></svg>