<svg width="40" height="40" viewBox="0 0 40 40" fill="none" xmlns="http://www.w3.org/2000/svg">
<path d="M20 3C10.6046 3 3 10.6033 3 20C3 22.9818 3.77768 25.8941 5.25444 28.4626L3.06407 35.2646C2.91129 35.7388 3.03683 36.2586 3.3891 36.6109C3.73799 36.9598 4.25653 37.09 4.73538 36.9359L11.5374 34.7456C14.1059 36.2223 17.0182 37 20 37C29.3954 37 37 29.3967 37 20C37 10.6046 29.3967 3 20 3ZM20 34.3438C17.3067 34.3438 14.6813 33.5923 12.4076 32.1705C12.0805 31.9661 11.6743 31.9108 11.2964 32.0325L6.3862 33.6138L7.9675 28.7036C8.08734 28.3311 8.03676 27.9244 7.82924 27.5924C6.40773 25.3187 5.65625 22.6933 5.65625 20C5.65625 12.0909 12.0909 5.65625 20 5.65625C27.9091 5.65625 34.3438 12.0909 34.3438 20C34.3438 27.9091 27.9091 34.3438 20 34.3438ZM21.6602 20C21.6602 20.9167 20.917 21.6602 20 21.6602C19.083 21.6602 18.3398 20.9167 18.3398 20C18.3398 19.083 19.083 18.3398 20 18.3398C20.917 18.3398 21.6602 19.083 21.6602 20ZM28.3008 20C28.3008 20.9167 27.5576 21.6602 26.6406 21.6602C25.7236 21.6602 24.9805 20.9167 24.9805 20C24.9805 19.083 25.7236 18.3398 26.6406 18.3398C27.5576 18.3398 28.3008 19.083 28.3008 20ZM15.0195 20C15.0195 20.9167 14.2764 21.6602 13.3594 21.6602C12.4427 21.6602 11.6992 20.9167 11.6992 20C11.6992 19.083 12.4427 18.3398 13.3594 18.3398C14.2764 18.3398 15.0195 19.083 15.0195 20Z" fill="#020205" stroke="white" stroke-width="0.5"/>
</svg>
