<svg xmlns="http://www.w3.org/2000/svg" width="31" height="33" fill="#212121" xmlns:v="https://vecta.io/nano"><path d="M21.844 23.107l3.49 5.943c-5.129 3.855-13.11 4.321-19.018-.119C-.483 23.819-1.6 15.095 2.04 8.816 6.226 1.593 14.06-.005 19.105 1.167c-.136.291-3.158 6.443-3.158 6.443l-.374.018c-1.491.062-2.601.403-3.792 1.007-1.306.669-2.425 1.641-3.259 2.833s-1.359 2.565-1.528 4.002a8.48 8.48 0 0 0 .596 4.29c.479 1.147 1.158 2.166 2.067 3.027a8.89 8.89 0 0 0 4.978 2.41c1.822.257 3.574.003 5.215-.807a10.56 10.56 0 0 0 1.752-1.098c.078-.05.147-.113.241-.184zm.012-17.514l-.848-.82-.489-.48-.131-.133.082-.168c.321-.633.825-1.095 1.422-1.463.66-.41 1.43-.618 2.21-.599.999.019 1.929.264 2.713.921a2.53 2.53 0 0 1 .928 1.837c.087 1.241-.436 2.191-1.474 2.854-.61.39-1.268.692-1.928 1.049-.364.197-.675.37-1.031.727-.313.358-.328.696-.328.696l4.727-.006v2.067h-7.297v-.2c-.028-1.016.093-1.971.567-2.894.436-.846 1.113-1.466 1.927-1.943l1.915-1.046c.387-.225.661-.556.659-1.036 0-.412-.305-.777-.741-.892-1.028-.272-2.074.162-2.617 1.085l-.263.441zM31 20.91l-3.984-6.753h-7.883l-4.01 6.823h7.942l3.919 6.721L31 20.91z"/></svg>