<svg xmlns="http://www.w3.org/2000/svg" width="108" height="37" fill="none" xmlns:v="https://vecta.io/nano"><path d="M21.312 9.005c-2.568-1.604-5.948-1.222-8.963.672-3.005-1.894-6.388-2.277-8.952-.672-4.057 2.535-4.55 9.064-1.101 14.584 2.543 4.069 6.519 6.454 10.058 6.41 3.54.044 7.516-2.341 10.058-6.41 3.445-5.52 2.956-12.049-1.101-14.584zM4.161 22.424a13.22 13.22 0 0 1-1.592-3.644 10.42 10.42 0 0 1-.346-3.436c.154-2.04.984-3.628 2.337-4.473s3.142-.896 5.046-.14c.286.114.569.246.849.392-1.058.965-1.979 2.072-2.735 3.288-2.094 3.351-2.733 7.08-2.002 10.053-.583-.629-1.105-1.311-1.558-2.039zm17.979-3.645c-.344 1.288-.881 2.517-1.592 3.644-.454.728-.976 1.412-1.558 2.043.653-2.665.209-5.93-1.393-8.992-.026-.05-.061-.095-.105-.131s-.095-.062-.149-.077-.112-.018-.168-.009-.109.029-.157.059l-4.995 3.121a.41.41 0 0 0-.182.255.41.41 0 0 0 .052.309l.733 1.172c.028.046.065.085.109.116s.093.053.145.066.106.014.159.005a.41.41 0 0 0 .149-.057l3.238-2.023a12.96 12.96 0 0 1 .288.943 10.42 10.42 0 0 1 .347 3.432c-.154 2.039-.984 3.627-2.337 4.474a4.57 4.57 0 0 1-2.315.67h-.104a4.56 4.56 0 0 1-2.315-.67c-1.354-.846-2.184-2.435-2.338-4.474-.076-1.157.041-2.318.346-3.436.702-2.587 2.153-4.909 4.17-6.674a10.44 10.44 0 0 1 2.932-1.816c1.9-.756 3.691-.706 5.045.14s2.183 2.434 2.337 4.474c.078 1.157-.038 2.318-.341 3.437zm25.784-2.437c-2.626 0-4.749 2.05-4.749 4.659 0 2.591 2.123 4.607 4.749 4.607 2.644 0 4.767-2.014 4.767-4.607 0-2.608-2.12-4.658-4.767-4.658v-.001zm0 6.831c-1.211 0-2.132-.979-2.132-2.19s.921-2.204 2.132-2.204c1.228 0 2.15.997 2.15 2.207s-.922 2.191-2.15 2.191v-.004zm10.689-10.409H53.78c-.052-.001-.104.009-.152.028s-.092.049-.129.086-.066.081-.085.129a.39.39 0 0 0-.028.153v11.782c-.004.054.004.108.022.159s.047.098.084.137a.39.39 0 0 0 .289.123h4.833c3.867 0 6.554-2.572 6.554-6.313 0-3.765-2.687-6.283-6.554-6.283zm.114 10.109h-2.644v-7.627h2.644c2.141 0 3.616 1.601 3.616 3.796 0 2.158-1.475 3.831-3.616 3.831zm16.06-6.277H72.97a.41.41 0 0 0-.377.396v.539c-.414-.684-1.349-1.187-2.513-1.187-2.266 0-4.389 1.78-4.389 4.623 0 2.827 2.104 4.64 4.371 4.64 1.169 0 2.123-.503 2.536-1.187v.557a.38.38 0 0 0 .377.378h1.817a.37.37 0 0 0 .27-.108.37.37 0 0 0 .108-.27v-7.986c.002-.051-.007-.102-.026-.15s-.047-.092-.082-.129-.079-.066-.126-.086-.098-.031-.149-.031zm-4.227 6.597c-1.203 0-2.107-.925-2.107-2.207s.904-2.206 2.107-2.206 2.107.923 2.107 2.205-.903 2.207-2.107 2.207v.001zm14.425-10.429h-1.817c-.051-.002-.102.007-.149.025s-.091.046-.128.081a.38.38 0 0 0-.086.124c-.02.047-.031.097-.032.148v4.353c-.419-.648-1.368-1.152-2.554-1.152-2.249 0-4.335 1.78-4.335 4.623 0 2.827 2.104 4.64 4.371 4.64 1.169 0 2.05-.503 2.536-1.187v.557a.38.38 0 0 0 .377.378h1.817c.05.001.1-.008.146-.026s.089-.046.124-.082a.37.37 0 0 0 .108-.27V13.144a.37.37 0 0 0-.025-.147c-.018-.047-.046-.089-.082-.125a.37.37 0 0 0-.271-.109zm-4.226 10.451c-1.198 0-2.094-.934-2.094-2.23s.9-2.231 2.094-2.231 2.094.934 2.094 2.231-.895 2.23-2.094 2.23zm14.423-10.451h-1.814c-.051-.002-.102.007-.149.025s-.091.046-.128.081-.066.077-.087.124-.031.097-.032.148v4.353c-.414-.648-1.368-1.152-2.554-1.152-2.249 0-4.335 1.78-4.335 4.623 0 2.827 2.105 4.64 4.371 4.64 1.17 0 2.05-.503 2.536-1.187v.557a.38.38 0 0 0 .378.378h1.814a.37.37 0 0 0 .27-.108c.035-.035.063-.078.081-.124s.027-.096.026-.146V13.144c.002-.05-.007-.1-.025-.147s-.046-.089-.081-.125a.37.37 0 0 0-.124-.082c-.047-.019-.096-.028-.147-.026zm-4.226 10.451c-1.199 0-2.094-.934-2.094-2.23s.899-2.231 2.094-2.231 2.094.934 2.094 2.231-.893 2.23-2.091 2.23h-.003zm14.175-6.007l-2.712 9.298c-.523 1.655-1.691 2.644-3.508 2.644-.826 0-1.578-.169-2.168-.506-.344-.196-.628-.375-.628-.662 0-.178.058-.27.162-.437l.538-.806c.152-.225.264-.299.427-.299a.62.62 0 0 1 .358.125c.338.219.652.407 1.131.407.559 0 .986-.179 1.217-.845l.233-.772h-1.098c-.27 0-.419-.161-.486-.378l-2.426-7.77c-.09-.306-.007-.612.442-.612h1.911c.234 0 .397.08.499.414l1.791 6.257 1.676-6.257c.053-.216.198-.414.486-.414h1.812c.357-.001.465.25.341.612zm-62.64 2.766v4.967c.001.054-.009.108-.03.158s-.051.096-.089.134-.084.068-.134.089-.104.03-.158.029H40.58c-.054.001-.108-.009-.158-.029s-.096-.05-.134-.089-.069-.084-.089-.134-.03-.104-.029-.158v-1.304c-.952 1.202-2.608 1.959-4.48 1.959-3.516 0-6.264-2.645-6.264-6.411 0-3.913 2.967-6.611 6.715-6.611 2.767 0 4.978 1.19 5.961 3.582.028.063.043.131.045.2 0 .113-.074.199-.314.282l-1.751.674a.45.45 0 0 1-.331.005.51.51 0 0 1-.209-.24c-.628-1.195-1.747-2.006-3.468-2.006-2.233 0-3.832 1.744-3.832 4.004 0 2.192 1.361 3.994 3.896 3.994 1.333 0 2.396-.628 2.891-1.318h-1.581c-.054.001-.108-.009-.158-.03s-.096-.05-.134-.089-.069-.084-.089-.134-.03-.104-.03-.158v-1.35c-.001-.054.009-.108.03-.158s.05-.096.089-.134.084-.069.134-.089.104-.03.158-.029h4.634a.39.39 0 0 1 .29.108.39.39 0 0 1 .09.13c.021.049.031.102.031.155zm62.689-5.217v-.12c0-.008.003-.017.008-.023s.014-.008.022-.008h.766c.015.003.019.006.022.008s.008.015.008.023v.12c0 .008-.003.016-.008.022-.014.008-.018.009-.022.008h-.28v.755c0 .008-.003.016-.009.022s-.014.009-.022.009h-.145c-.015-.004-.018-.006-.021-.009-.008-.014-.009-.018-.009-.022v-.755h-.28c-.016-.003-.019-.005-.022-.008-.008-.014-.008-.018-.008-.022zm1.338-.125l.21.485.209-.485c.003-.009.009-.016.017-.021s.018-.007.028-.006h.243c.016.003.019.005.022.008.008.013.009.018.008.021v.909c-.002.016-.005.019-.007.022-.014.008-.018.009-.022.009h-.136c-.016-.003-.019-.006-.022-.008-.008-.014-.009-.018-.008-.022v-.686l-.226.498c-.003.009-.009.018-.016.024s-.019.007-.029.006h-.111c-.009.001-.018-.002-.027-.006s-.014-.014-.017-.024l-.224-.498v.686c0 .008-.003.016-.008.022s-.013.008-.021.008h-.139c-.014-.004-.018-.006-.02-.008-.008-.014-.009-.018-.008-.022v-.909c.003-.015.005-.019.008-.021.014-.008.018-.008.022-.008h.236c.009 0 .018.002.027.006s.009.013.011.021z" fill="#5d5d5d"/></svg>