<svg xmlns="http://www.w3.org/2000/svg" width="60" height="40" fill="none" xmlns:v="https://vecta.io/nano"><g clip-path="url(#A)"><path d="M57 .5H3A2.5 2.5 0 0 0 .5 3v34A2.5 2.5 0 0 0 3 39.5h54a2.5 2.5 0 0 0 2.5-2.5V3A2.5 2.5 0 0 0 57 .5z" fill="#fff" stroke="#d7ebff"/><path d="M29.05 19.815v4.693h-1.487V12.924h3.945c.951-.018 1.866.342 2.559 1.007.693.619 1.081 1.515 1.062 2.439a3.23 3.23 0 0 1-1.062 2.457c-.693.656-1.543.988-2.55.988H29.05zm0-5.469v4.046h2.494c.554.018 1.09-.203 1.469-.6.785-.758.794-2.005.037-2.79l-.037-.037a1.92 1.92 0 0 0-1.469-.61l-2.494-.009zm9.505 1.977c1.099 0 1.968.296 2.605.878.637.591.951 1.395.951 2.42v4.877H40.69V23.4h-.065c-.619.905-1.432 1.358-2.457 1.358-.868 0-1.607-.259-2.189-.776a2.45 2.45 0 0 1-.878-1.94c0-.822.314-1.469.933-1.958s1.45-.73 2.485-.73c.887 0 1.607.166 2.18.48v-.342c0-.508-.222-.988-.61-1.312a2.16 2.16 0 0 0-1.432-.545c-.831 0-1.487.351-1.977 1.053l-1.312-.822c.711-1.025 1.774-1.543 3.187-1.543zm-1.921 5.755a1.2 1.2 0 0 0 .49.97c.332.259.739.397 1.155.388.628 0 1.229-.249 1.672-.693.49-.462.739-1.007.739-1.635-.462-.369-1.108-.554-1.94-.554-.601 0-1.108.148-1.515.434-.397.296-.6.656-.6 1.09zm13.644-5.496L45.309 28h-1.533l1.847-3.991-3.27-7.418h1.617l2.356 5.69h.037l2.3-5.69 1.617-.009z" fill="#5f6368"/><path d="M23.037 18.799c0-.453-.037-.905-.111-1.349h-6.272v2.559h3.593a3.08 3.08 0 0 1-1.33 2.023v1.663h2.143c1.256-1.155 1.977-2.864 1.977-4.896z" fill="#4285f4"/><path d="M16.654 25.303c1.792 0 3.307-.591 4.406-1.607l-2.143-1.663c-.6.406-1.367.637-2.263.637-1.737 0-3.206-1.173-3.732-2.744h-2.208v1.718a6.66 6.66 0 0 0 5.94 3.658z" fill="#34a853"/><path d="M12.921 19.926c-.277-.822-.277-1.718 0-2.55v-1.709h-2.208c-.469.925-.714 1.947-.714 2.984s.245 2.059.714 2.984l2.208-1.709z" fill="#fbbc04"/><path d="M16.654 14.633a3.58 3.58 0 0 1 2.55.998l1.894-1.894A6.35 6.35 0 0 0 16.654 12c-2.513 0-4.813 1.423-5.94 3.667l2.208 1.718c.527-1.58 1.995-2.753 3.732-2.753z" fill="#ea4335"/></g><defs><clipPath id="A"><path fill="#fff" d="M0 0h60v40H0z"/></clipPath></defs></svg>