<svg xmlns="http://www.w3.org/2000/svg" xmlns:xlink="http://www.w3.org/1999/xlink" width="51" height="50" fill="none" xmlns:v="https://vecta.io/nano"><g clip-path="url(#A)" fill="#ff4a81"><path d="M46.716 24.712h-1.554v-2.157c-1.078-26.08-38.247-26.081-39.325 0v2.157H4.284A3.79 3.79 0 0 0 .5 28.495v4.642a3.79 3.79 0 0 0 3.784 3.784h1.554v4.369c.001 1.241.495 2.431 1.372 3.308s2.067 1.371 3.308 1.372h7.969a2.67 2.67 0 0 0 .964 1.354c.457.337 1.01.52 1.578.522h3.766c3.559-.078 3.557-5.463 0-5.539h-3.766a2.67 2.67 0 0 0-1.578.523c-.457.338-.795.812-.964 1.355h-7.969a2.9 2.9 0 0 1-2.895-2.895v-2.023c2.481 1.591 6.133-.124 6.077-3.2V25.565a3.81 3.81 0 0 0-.322-1.514c-.21-.477-.515-.907-.898-1.261a3.81 3.81 0 0 0-1.325-.8 3.83 3.83 0 0 0-1.534-.208 3.75 3.75 0 0 0-1.988.578A17.87 17.87 0 0 1 25.5 4.677 17.87 17.87 0 0 1 43.367 22.36a3.75 3.75 0 0 0-1.988-.578 3.81 3.81 0 0 0-3.757 2.27 3.81 3.81 0 0 0-.322 1.514v10.502a3.95 3.95 0 0 0 1.058 2.533 3.94 3.94 0 0 0 2.454 1.23c.939.103 1.883-.133 2.662-.667s1.341-1.329 1.583-2.242h1.659a3.79 3.79 0 0 0 3.784-3.784v-4.642a3.79 3.79 0 0 0-3.784-3.783zM5.838 35.136H4.284a2 2 0 0 1-1.998-1.998v-4.642a2 2 0 0 1 1.998-1.998h1.554v8.638zm15.192 8.958h3.766a.92.92 0 0 1 .382.092c.119.058.225.14.309.242a.94.94 0 0 1 .181.349.91.91 0 0 1 .02.392.89.89 0 0 1-.262.631c-.168.167-.394.262-.631.262h-3.766c-.133-.003-.263-.034-.382-.092s-.225-.14-.309-.242-.147-.221-.181-.349-.042-.262-.02-.392a.89.89 0 0 1 .262-.631c.168-.167.394-.262.631-.262zM9.621 23.568a2.04 2.04 0 0 1 2.293 1.997v10.502c-.023 2.666-4.268 2.669-4.291 0-.007-.015.005-10.439 0-10.463a2 2 0 0 1 1.998-2.037zm33.756 12.5a2.04 2.04 0 0 1-1.445 1.924 2.03 2.03 0 0 1-.848.073 2 2 0 0 1-1.998-1.998V25.565a2 2 0 0 1 1.998-1.998 2.04 2.04 0 0 1 2.294 2.036v10.463zm5.337-2.931a2 2 0 0 1-1.998 1.998h-1.554v-8.638h1.554a2 2 0 0 1 1.998 1.998v4.642zM25.508 14.908a8.54 8.54 0 0 0-5.978 14.645v5a.9.9 0 0 0 1.52.636l3.319-3.266a8.54 8.54 0 0 0 3.466-.246c1.126-.319 2.175-.865 3.082-1.606a8.54 8.54 0 0 0 2.188-2.7c.537-1.041.854-2.18.932-3.347s-.084-2.339-.477-3.442-1.009-2.112-1.808-2.967-1.766-1.536-2.84-2.002-2.232-.706-3.402-.706zm-1.274 15.184c-.142-.027-.288-.019-.427.023s-.265.117-.368.218l-2.123 2.089v-3.256a.89.89 0 0 0-.299-.666 6.77 6.77 0 0 1-2.271-5.044c.316-8.947 13.206-8.949 13.523 0a6.75 6.75 0 0 1-2.453 5.213c-.768.634-1.667 1.091-2.632 1.337s-1.973.275-2.951.086z"/><use xlink:href="#B"/><path d="M25.502 22.675a.94.94 0 0 0-.654.279c-.173.175-.27.412-.27.658s.097.483.27.658.408.276.654.279a.94.94 0 0 0 .654-.279c.173-.175.27-.412.27-.658a.94.94 0 0 0-.27-.658c-.173-.176-.408-.276-.654-.279zm3.218 0a.94.94 0 0 0-.654.279c-.173.175-.27.412-.27.658s.097.483.27.658.408.276.654.279a.94.94 0 0 0 .654-.279c.173-.175.27-.412.27-.658a.94.94 0 0 0-.27-.658c-.173-.176-.408-.276-.654-.279z"/></g><defs><clipPath id="A"><path fill="#fff" transform="translate(.5)" d="M0 0h50v50H0z"/></clipPath><path id="B" d="M22.283 22.675c-.246.004-.481.104-.654.279s-.27.412-.27.658.097.483.27.658.408.276.654.279a.94.94 0 0 0 .654-.279c.173-.175.27-.412.27-.658s-.097-.482-.27-.658-.408-.276-.654-.279z"/></defs></svg>