<svg xmlns="http://www.w3.org/2000/svg" width="106" height="37" fill="none" xmlns:v="https://vecta.io/nano"><g clip-path="url(#A)" fill="#5d5d5d"><path d="M32.278 14.516h1.951v9.125h-1.951V19.77h-3.276v3.871h-1.951v-9.125h1.951v3.489h3.276v-3.489zm6.501 4.556c0 .447.052.851.156 1.211a2.82 2.82 0 0 0 .45.928c.196.259.435.459.719.599s.608.211.975.211c.358 0 .681-.07.969-.211a2 2 0 0 0 .725-.599c.196-.259.346-.568.451-.928s.156-.764.156-1.211-.052-.854-.156-1.218a2.82 2.82 0 0 0-.451-.935c-.196-.259-.438-.459-.725-.599a2.18 2.18 0 0 0-.969-.211c-.367 0-.692.072-.975.217s-.523.347-.719.606-.346.57-.45.935-.156.766-.156 1.205zm6.616 0c0 .781-.111 1.468-.331 2.06s-.524 1.089-.907 1.488-.84.7-1.369.902-1.099.303-1.707.303a4.63 4.63 0 0 1-1.676-.303 3.82 3.82 0 0 1-1.376-.902c-.392-.399-.7-.895-.925-1.488s-.338-1.279-.338-2.06.117-1.468.35-2.061.548-1.091.944-1.495.854-.707 1.376-.909a4.51 4.51 0 0 1 1.644-.303 4.63 4.63 0 0 1 1.676.303 3.79 3.79 0 0 1 1.376.909c.392.404.7.902.925 1.495s.338 1.279.338 2.061zm4.913 3.002c.275 0 .502-.024.681-.073a1.21 1.21 0 0 0 .431-.198c.108-.083.184-.182.225-.296a1.12 1.12 0 0 0 .063-.382c0-.298-.134-.547-.4-.744s-.725-.41-1.376-.639l-.85-.362a3.11 3.11 0 0 1-.763-.514c-.225-.206-.408-.456-.55-.751s-.213-.651-.213-1.073.075-.801.225-1.139a2.42 2.42 0 0 1 .638-.863 2.87 2.87 0 0 1 1-.546c.392-.127.834-.191 1.326-.191.584 0 1.088.066 1.513.198s.775.277 1.05.435l-.562 1.62a5.22 5.22 0 0 0-.807-.349c-.296-.101-.652-.152-1.069-.152-.467 0-.803.069-1.007.204s-.307.345-.307.625a.75.75 0 0 0 .113.422 1.12 1.12 0 0 0 .319.309c.138.092.296.176.475.25l.594.23 1.175.52c.333.171.611.371.832.599a2.19 2.19 0 0 1 .494.803c.108.308.163.68.163 1.119 0 .852-.284 1.512-.851 1.982s-1.422.705-2.564.705a6.66 6.66 0 0 1-1.038-.073 6.6 6.6 0 0 1-.819-.178 4.5 4.5 0 0 1-.613-.224l-.431-.224.551-1.633a4.71 4.71 0 0 0 .957.401c.379.119.844.178 1.394.178zm11.999-7.558v1.751h-2.614v7.374h-1.951v-7.373h-2.614v-1.751h7.178zm2.17 9.125h1.951v-9.125h-1.951v9.125zm10.682-.397l-1.813-3.094a31.37 31.37 0 0 0-2.076-2.884v5.978h-1.926v-9.125h1.588a15.68 15.68 0 0 1 .912 1.067l1.019 1.35 1.032 1.488.963 1.481V14.12h1.939v9.125h-1.638zm8.783-7.148c-.908 0-1.566.265-1.97.796s-.606 1.257-.606 2.179a4.56 4.56 0 0 0 .15 1.218 2.74 2.74 0 0 0 .45.941 2.04 2.04 0 0 0 .75.612c.3.144.65.217 1.05.217l.557-.013a2.45 2.45 0 0 0 .406-.053V18.82h1.951v4.516c-.234.097-.609.2-1.125.309s-1.155.165-1.914.165c-.65 0-1.24-.106-1.769-.316s-.982-.518-1.357-.922-.665-.9-.869-1.488-.306-1.259-.306-2.014c0-.764.113-1.44.338-2.028s.532-1.087.925-1.495a3.88 3.88 0 0 1 1.382-.928 4.54 4.54 0 0 1 1.695-.316 6.53 6.53 0 0 1 1.107.086 6.64 6.64 0 0 1 .851.198c.238.075.433.151.588.23l.332.184-.563 1.646a4.97 4.97 0 0 0-.919-.388c-.346-.11-.723-.164-1.132-.164zm5.476 7.545v-9.125h5.853v1.725h-3.902v1.791h3.464v1.686h-3.464v2.199h4.19v1.725h-6.141zm11.142-7.479l-.381.013-.319.026v2.475h.55c.734 0 1.259-.096 1.576-.29s.475-.522.475-.988c0-.448-.161-.766-.482-.955s-.794-.283-1.419-.283zm-.112-1.751c1.301 0 2.297.243 2.989.731s1.038 1.244 1.038 2.272c0 .641-.139 1.161-.418 1.56s-.682.713-1.208.941l.551.784.569.922.544 1 .487 1.02h-2.18l-.484-.908-.502-.896-.508-.823-.502-.705h-.963v3.332h-1.95v-8.994c.425-.087.864-.149 1.319-.184l1.219-.053zM1 18.284V8l4.915 2.768v4.633l6.506.003 4.995 2.879H1zm12.752-3.731V8l5.048 2.699v6.951l-5.048-3.096zm0 12.569v-4.593l-6.557-.005c.006.031-5.078-2.925-5.078-2.925l16.682.083v10.283l-5.048-2.842zM1 27.122v-6.72l4.915 3.023v6.395L1 27.122z"/></g><defs><clipPath id="A"><path fill="#fff" transform="translate(1 8)" d="M0 0h104v22H0z"/></clipPath></defs></svg>