<svg width="50" height="50" viewBox="0 0 50 50" fill="none" xmlns="http://www.w3.org/2000/svg">
<rect width="50" height="50" rx="25" fill="#FEF5E9"/>
<g clip-path="url(#clip0_2957_2565)">
<path d="M30.3711 31.8359C30.1016 31.8359 29.8828 32.0547 29.8828 32.3242C29.8828 32.5938 30.1016 32.8125 30.3711 32.8125C30.6406 32.8125 30.8594 32.5938 30.8594 32.3242C30.8594 32.0547 30.6406 31.8359 30.3711 31.8359Z" fill="#FFAF44"/>
<path d="M31.9679 30.257L29.6471 29.4835L28.8139 27.8172C29.5645 27.0532 30.0856 26.0424 30.2614 24.988L30.3653 24.3652H31.2539C32.0616 24.3652 32.7188 23.7081 32.7188 22.9004V19.8242C32.7188 15.7856 29.4331 12.5 25.3945 12.5C21.3456 12.5 18.0703 15.7762 18.0703 19.8242V22.9004C18.0703 23.5369 18.4786 24.0797 19.0469 24.2812V24.8535C19.0469 25.6612 19.704 26.3184 20.5117 26.3184H20.9405C21.1522 26.7782 21.4262 27.2041 21.7596 27.5866C21.8287 27.6661 21.9008 27.7432 21.9747 27.8181L21.142 29.4835L18.8211 30.257C16.1227 31.1568 14.1641 33.9976 14.1641 37.0117C14.1641 37.2814 14.3827 37.5 14.6523 37.5H36.1367C36.4063 37.5 36.625 37.2814 36.625 37.0117C36.625 33.9976 34.6665 31.1568 31.9679 30.257ZM31.7422 22.9004C31.7422 23.1696 31.5231 23.3887 31.2539 23.3887H30.5087C30.6328 22.4272 30.7155 21.4042 30.7488 20.3965C30.7498 20.3681 30.7505 20.3404 30.7514 20.3125H31.7422V22.9004ZM19.5352 23.3887C19.2659 23.3887 19.0469 23.1696 19.0469 22.9004V20.3125H20.038C20.0396 20.3634 20.0413 20.4146 20.0432 20.4661C20.0433 20.4679 20.0434 20.4696 20.0434 20.4713C20.0434 20.4715 20.0434 20.4716 20.0434 20.4718C20.0776 21.4519 20.1592 22.4484 20.2805 23.3886H19.5352V23.3887ZM20.5117 25.3418C20.2425 25.3418 20.0234 25.1228 20.0234 24.8535V24.3652H20.4237L20.5276 24.9882C20.5475 25.1066 20.5718 25.2246 20.6 25.3418H20.5117ZM20.0243 19.3359H19.0654C19.3127 16.0634 22.0438 13.4766 25.3945 13.4766C28.7304 13.4766 31.4734 16.0631 31.7236 19.3359H30.7648C30.7297 16.6393 28.5337 14.4531 25.8316 14.4531H24.9576C22.2555 14.4531 20.0594 16.6393 20.0243 19.3359ZM24.9575 15.4297H25.8315C28.0195 15.4297 29.7903 17.2193 29.7891 19.4048C29.7891 19.5584 29.7878 19.6922 29.7853 19.814C29.7853 19.8155 29.7852 19.8171 29.7852 19.8187L29.1745 19.7315C27.5153 19.4946 25.9487 18.7113 24.7632 17.5258C24.6716 17.4343 24.5475 17.3828 24.418 17.3828C23.1066 17.3828 21.8514 17.9803 21.0216 18.9896C21.2261 17.0014 22.9069 15.4297 24.9575 15.4297ZM21.6123 25.3418C21.3679 24.5287 21.0882 22.1361 21.0264 20.6029L21.6835 19.7266C22.2871 18.9221 23.2261 18.4223 24.225 18.3649C25.5393 19.6157 27.2396 20.4417 29.0364 20.6982L29.7552 20.8009C29.7072 21.8207 29.609 22.844 29.4683 23.7852C29.4683 23.7855 29.4682 23.7858 29.4682 23.7862C29.4234 24.0888 29.3882 24.2835 29.2981 24.8274C29.0396 26.3784 27.8822 27.781 26.3544 28.163C25.7257 28.32 25.0633 28.3199 24.4349 28.163C23.4809 27.9245 22.6062 27.2645 22.0417 26.3184H23.0371C23.2387 26.8867 23.7814 27.2949 24.418 27.2949H25.3945C26.2039 27.2949 26.8594 26.6395 26.8594 25.8301C26.8594 25.0224 26.2022 24.3652 25.3945 24.3652H24.418C23.7672 24.3652 23.2325 24.7855 23.0363 25.3418H21.6123ZM24.3769 29.1512C24.7118 29.2217 25.0533 29.2578 25.3945 29.2578C25.6617 29.2578 25.9289 29.2354 26.193 29.1921L25.3302 30.1045L24.3769 29.1512ZM24.6589 30.8144L23.1102 32.4522C22.6838 31.6361 22.3175 30.7867 22.017 29.9172L22.5986 28.754L24.6589 30.8144ZM28.1077 28.5886L28.772 29.9171C28.471 30.7881 28.1045 31.6378 27.6786 32.4529L26.021 30.7953L28.1077 28.5886ZM23.9297 25.8301C23.9297 25.5605 24.1483 25.3418 24.418 25.3418H25.3945C25.6638 25.3418 25.8828 25.5608 25.8828 25.8301C25.8828 26.0997 25.6641 26.3184 25.3945 26.3184H24.418C24.1487 26.3184 23.9297 26.0993 23.9297 25.8301ZM15.1602 36.5234C15.3537 34.1045 16.9635 31.9059 19.13 31.1834L21.1854 30.4985C21.5619 31.5397 22.0284 32.5518 22.5751 33.5131C22.5761 33.5148 22.577 33.5165 22.5779 33.5181L22.5779 33.5182C22.9774 34.2208 23.427 34.9073 23.9145 35.5591L24.5151 36.5234H15.1602ZM25.3945 36.0882L24.7323 35.025C24.7249 35.0131 24.717 35.0016 24.7086 34.9903C24.3132 34.4629 23.9443 33.9113 23.6084 33.3467L25.3498 31.5052L27.1846 33.34C26.8464 33.9087 26.4763 34.4626 26.0806 34.9902C26.0566 35.0221 26.0906 34.9719 25.3945 36.0882ZM26.2739 36.5234L26.8746 35.5592C27.3642 34.9049 27.817 34.2128 28.2205 33.502C28.2229 33.4977 28.2252 33.4933 28.2276 33.489C28.2279 33.4884 28.2282 33.4879 28.2285 33.4874C28.7683 32.5353 29.2299 31.532 29.6037 30.4985L31.659 31.1834C33.8256 31.9059 35.4354 34.1045 35.6289 36.5234H26.2739Z" fill="#FFAF44"/>
<path d="M33.7699 34.5475C33.4435 33.8943 32.9656 33.314 32.3876 32.8694C32.1738 32.7049 31.8673 32.7449 31.7029 32.9587C31.5384 33.1724 31.5784 33.479 31.7921 33.6434C32.2538 33.9986 32.6355 34.4621 32.8962 34.9839C33.0169 35.2256 33.3104 35.3228 33.5512 35.2025C33.7924 35.082 33.8903 34.7887 33.7699 34.5475Z" fill="#FFAF44"/>
</g>
<defs>
<clipPath id="clip0_2957_2565">
<rect width="25" height="25" fill="white" transform="translate(12.5 12.5)"/>
</clipPath>
</defs>
</svg>
