<svg width="40" height="40" viewBox="0 0 40 40" fill="none" xmlns="http://www.w3.org/2000/svg">
<g clip-path="url(#clip0_2538_5202)">
<path d="M39.9997 38.2379C39.9994 36.8262 39.1599 35.5566 37.8607 35.004L27.8961 30.7645V28.28C28.9511 26.9556 29.6182 25.3781 29.8416 23.6844H31.8787C33.8171 23.6844 35.3943 22.1072 35.3943 20.1688V15.1288C35.3943 13.3563 34.0753 11.8869 32.3676 11.6479C32.1143 4.02313 27.8513 0 20 0C12.1487 0 7.88574 4.02313 7.63245 11.6479C5.92468 11.8869 4.60571 13.3563 4.60571 15.1288V20.1688C4.60571 22.1072 6.18286 23.6844 8.12134 23.6844H10.1584C10.3818 25.3784 11.0489 26.9559 12.1039 28.28V30.7645L2.13959 35.004C0.840149 35.5566 0.000610352 36.8262 0 38.2382V38.8275C0 39.1385 0.123291 39.4366 0.343323 39.6564C0.563049 39.8761 0.861206 39.9997 1.17188 39.9997H38.8281C39.1391 39.9997 39.4373 39.8761 39.657 39.6564C39.8767 39.4363 40 39.1382 40 38.8275L39.9997 38.2379ZM25.5536 31.5866C25.5545 31.6147 25.6201 34.4589 23.9401 36.2085C23.0176 37.1689 21.6919 37.6556 20 37.6556C18.3142 37.6556 16.9919 37.1722 16.0699 36.2189C14.3698 34.4601 14.4458 31.6113 14.4464 31.5866C14.4473 31.5707 14.4476 31.5552 14.4476 31.5393V30.379C16.0522 31.3943 17.9663 31.9397 20 31.9397C22.0337 31.9397 23.9478 31.3943 25.5524 30.379V31.5393C25.5524 31.5552 25.5527 31.5707 25.5536 31.5866ZM27.5818 21.8854L25.3525 23.3719C24.6445 23.844 23.8202 24.0936 22.9688 24.0936H20.9866C20.3397 24.0936 19.8148 24.6182 19.8148 25.2655C19.8148 25.9128 20.3397 26.4374 20.9866 26.4374H22.9688C24.2844 26.4374 25.5585 26.0516 26.6528 25.3217L27.1014 25.0226C26.044 27.7512 23.3395 29.5959 20 29.5959C15.6778 29.5959 12.4182 26.506 12.4182 22.4084V12.908C12.8802 10.7602 13.5495 9.39514 14.3564 8.95752C15.1599 8.52112 16.3275 8.97491 17.4567 9.41345C18.3365 9.75494 19.1675 10.0778 20 10.0778C20.8401 10.0778 21.6611 9.75159 22.5305 9.40643C23.6609 8.95721 24.7287 8.53302 25.5197 8.94562C26.0962 9.24622 26.918 10.1822 27.5818 12.923V21.8854ZM33.0505 15.1288V20.1688C33.0505 20.8148 32.5247 21.3406 31.8787 21.3406H29.9255V13.9569H31.8787C32.5247 13.9569 33.0505 14.4827 33.0505 15.1288ZM12.0654 5.21454C13.6884 3.30963 16.3577 2.34375 20 2.34375C23.6423 2.34375 26.3116 3.30963 27.9346 5.21454C29.2123 6.71448 29.9124 8.86505 30.0208 11.6132H29.6613C28.9536 9.09973 27.9715 7.58087 26.6034 6.86737C24.8605 5.95856 23.0887 6.66229 21.665 7.22809C21.0388 7.47681 20.3912 7.73407 19.9997 7.73407C19.6063 7.73407 18.9447 7.47711 18.3051 7.2287C16.8311 6.65588 14.9963 5.9433 13.2382 6.89728C11.9125 7.61688 10.9528 9.16443 10.3171 11.6132H9.97925C10.0873 8.86505 10.7877 6.71448 12.0654 5.21454ZM6.94946 20.1688V15.1288C6.94946 14.4827 7.47528 13.9569 8.12134 13.9569H10.0745V21.3406H8.12134C7.47528 21.3406 6.94946 20.8148 6.94946 20.1688ZM3.05695 37.1606L12.2382 33.2544C12.4438 34.5261 12.9547 36.2564 14.2072 37.6559H2.49878C2.62299 37.439 2.81647 37.2629 3.05695 37.1606ZM25.7928 37.6559C27.0453 36.2564 27.5562 34.5261 27.7618 33.2544L36.9431 37.1606C37.1835 37.2629 37.3767 37.439 37.5012 37.6559H25.7928Z" fill="#020205" stroke="white" stroke-width="0.7"/>
</g>
<defs>
<clipPath id="clip0_2538_5202">
<rect width="40" height="40" fill="white"/>
</clipPath>
</defs>
</svg>
