<svg width="50" height="50" viewBox="0 0 50 50" fill="none" xmlns="http://www.w3.org/2000/svg">
<rect width="50" height="50" rx="25" fill="#F3F9F3"/>
<g clip-path="url(#clip0_2957_2514)">
<path d="M22.4277 14.0127C24.5275 14.0127 26.497 15.1853 27.5986 17.0342C28.1496 16.7381 28.762 16.5811 29.4014 16.5811C31.3424 16.5811 32.9531 18.0352 33.1982 19.9121C35.4825 20.1609 37.2676 22.0995 37.2676 24.4512C37.2675 26.9659 35.219 29.0136 32.6973 29.0176H32.2383C31.9474 29.0174 31.7102 28.7801 31.71 28.4893C31.71 28.1982 31.9473 27.9602 32.2383 27.96H32.6973C34.6332 27.9598 36.2059 26.3871 36.2061 24.4512C36.2061 22.5153 34.6295 20.9416 32.6973 20.9414C32.4061 20.9414 32.168 20.7043 32.168 20.4131C32.168 18.8823 30.9243 17.6387 29.3936 17.6387C28.7796 17.6388 28.2017 17.8349 27.7207 18.2041L27.7217 18.2051C27.5928 18.307 27.4276 18.3385 27.2754 18.3018C27.1606 18.2741 27.0577 18.2078 26.9844 18.1162L26.9219 18.0156C26.0701 16.2273 24.3017 15.0742 22.4238 15.0742C19.6837 15.0744 17.4492 17.3461 17.4492 20.1445L17.457 20.3994L17.4512 20.502C17.4148 20.7355 17.2262 20.9362 16.9766 20.96H16.9756C15.1859 21.1161 13.7822 22.6499 13.7822 24.4512C13.7823 26.3833 15.3559 27.9561 17.292 27.9561H17.7656C18.0566 27.9563 18.2939 28.1943 18.2939 28.4854C18.2938 28.7762 18.0565 29.0134 17.7656 29.0137H17.292C14.7737 29.0137 12.7247 26.9658 12.7246 24.4512C12.7246 22.2718 14.3041 20.3928 16.3984 19.9746C16.4857 16.6748 19.1527 14.0129 22.4277 14.0127Z" fill="#78A354" stroke="#78A354" stroke-width="0.3"/>
<path d="M22.7979 23.9219C23.089 23.9219 23.3262 24.16 23.3262 24.4512V29.0586H24.2676C24.4636 29.0586 24.6403 29.1657 24.7305 29.3408C24.8194 29.5136 24.8089 29.7185 24.7041 29.8809L24.7031 29.8828L21.7676 34.2842C21.6709 34.433 21.5022 34.5215 21.3281 34.5215C21.151 34.5215 20.9881 34.4303 20.8896 34.2852L20.8887 34.2842L17.9531 29.8828L17.9521 29.8809C17.8474 29.7185 17.8368 29.5136 17.9258 29.3408C18.0168 29.1642 18.1982 29.0586 18.3926 29.0586H19.333V24.4512C19.333 24.16 19.5711 23.9219 19.8623 23.9219H22.7979ZM20.3945 29.5879C20.3943 29.8788 20.1571 30.1161 19.8662 30.1162H19.3848L21.332 33.0361L23.2822 30.1162H22.8018C22.5107 30.1162 22.2727 29.8789 22.2725 29.5879V24.9795H20.3945V29.5879Z" fill="#78A354" stroke="#78A354" stroke-width="0.3"/>
<path d="M28.6641 25.3989C28.8268 25.3989 29.0007 25.47 29.1035 25.6255L32.043 30.0269L32.0439 30.0288C32.1486 30.1912 32.1593 30.3961 32.0703 30.5688C31.9793 30.7455 31.7978 30.8511 31.6035 30.8511H30.6621V35.4585C30.6621 35.7496 30.4249 35.9868 30.1338 35.9868H27.1982C26.9071 35.9868 26.669 35.7496 26.6689 35.4585V30.8511H25.7285C25.5342 30.8511 25.3527 30.7455 25.2617 30.5688C25.1727 30.3961 25.1834 30.1912 25.2881 30.0288L25.2891 30.0269L28.2246 25.6255L28.2666 25.5718C28.371 25.4539 28.5216 25.3989 28.6641 25.3989ZM26.7129 29.7935H27.1943C27.4854 29.7935 27.7235 30.0307 27.7236 30.3218V34.9292H29.6016V30.3218C29.6017 30.0308 29.8388 29.7935 30.1299 29.7935H30.6074L28.6602 26.8726L26.7129 29.7935Z" fill="#78A354" stroke="#78A354" stroke-width="0.3"/>
</g>
<defs>
<clipPath id="clip0_2957_2514">
<rect width="25" height="25" fill="white" transform="translate(12.5 12.5)"/>
</clipPath>
</defs>
</svg>
