<svg xmlns="http://www.w3.org/2000/svg" width="108" height="37" fill="none" xmlns:v="https://vecta.io/nano"><path d="M48.883 35.187c0-.45.364-.814.814-.814h56.164c.449 0 .813.364.813.814s-.364.814-.813.814H49.697c-.45 0-.814-.364-.814-.814z" fill="#fb0"/><g fill="#27235c"><path d="M3.111 29.179v-1.97l-.923-1.495-.817-1.446h.81l.604 1.184.689 1.148.682-1.148.611-1.184h.767l-.817 1.446-.916 1.481v1.984h-.689zm5.944-1.842c0 .293-.043.558-.128.794s-.206.439-.362.609a1.58 1.58 0 0 1-.547.397 1.77 1.77 0 0 1-.696.135 1.77 1.77 0 0 1-.696-.135c-.213-.09-.398-.227-.554-.397s-.27-.373-.355-.609-.128-.501-.128-.794.043-.55.128-.787a1.88 1.88 0 0 1 .355-.617c.151-.17.341-.3.554-.39s.445-.142.696-.142a1.69 1.69 0 0 1 .696.142c.213.095.395.22.547.39a1.77 1.77 0 0 1 .362.617c.085.236.128.498.128.787zm-.689 0c0-.416-.095-.744-.284-.985s-.438-.369-.76-.369-.578.123-.767.369-.277.569-.277.985.092.747.277.992.445.361.767.361.575-.12.76-.361.284-.576.284-.992zm4.559 1.736l-.604.12a5.11 5.11 0 0 1-.86.064c-.284 0-.523-.04-.717-.12a1.15 1.15 0 0 1-.469-.354 1.41 1.41 0 0 1-.256-.531 2.83 2.83 0 0 1-.078-.687v-2.069h.661v1.928c0 .449.071.77.213.964s.381.291.717.291l.22-.007.213-.014.178-.021a.65.65 0 0 0 .121-.028v-3.111h.661v3.579zm2.501-3.657a1.55 1.55 0 0 1 .192.014l.22.028.192.035c.061.009.107.019.135.028l-.114.574c-.052-.019-.14-.04-.263-.064s-.272-.042-.462-.042a1.66 1.66 0 0 0-.369.042l-.234.05v3.097h-.661V25.65a4.1 4.1 0 0 1 .582-.156c.232-.047.492-.078.781-.078zm6.16-1.148h.689v4.911h-.689v-2.268h-2.408v2.268h-.689v-4.911h.689v2.048h2.408v-2.048zm5.128 3.069c0 .293-.043.558-.128.794s-.206.439-.362.609-.334.302-.547.397-.445.135-.696.135a1.77 1.77 0 0 1-.696-.135c-.213-.09-.398-.227-.554-.397s-.27-.373-.355-.609-.128-.501-.128-.794.043-.55.128-.787a1.88 1.88 0 0 1 .355-.617c.151-.17.341-.3.554-.39s.445-.142.696-.142a1.69 1.69 0 0 1 .696.142c.213.095.395.22.547.39s.277.376.362.617a2.33 2.33 0 0 1 .128.787zm-.689 0c0-.416-.095-.744-.284-.985s-.438-.369-.76-.369-.578.123-.767.369-.277.569-.277.985.092.747.277.992.445.361.767.361.575-.12.76-.361.284-.576.284-.992zm2.478 1.367c.27 0 .469-.035.597-.106s.199-.184.199-.34a.45.45 0 0 0-.192-.383c-.128-.095-.339-.201-.632-.319l-.412-.17c-.128-.061-.239-.132-.334-.213a.91.91 0 0 1-.227-.291c-.057-.113-.085-.253-.085-.418a.93.93 0 0 1 .362-.773c.241-.189.571-.29.987-.29a2.31 2.31 0 0 1 .313.021 2.64 2.64 0 0 1 .291.042l.234.05.163.05-.121.567c-.071-.038-.182-.076-.334-.113a2.3 2.3 0 0 0-.547-.064.99.99 0 0 0-.483.113.36.36 0 0 0-.206.34.5.5 0 0 0 .043.213.59.59 0 0 0 .142.17 1.41 1.41 0 0 0 .241.135l.341.135.469.199a1.33 1.33 0 0 1 .348.22.83.83 0 0 1 .227.312 1.09 1.09 0 0 1 .078.439c0 .34-.128.598-.384.772s-.611.262-1.08.262c-.327 0-.582-.028-.767-.085l-.376-.12.121-.567.362.128c.166.057.386.085.661.085zm2.928-3.21h1.399v.553h-1.399v1.701a2.09 2.09 0 0 0 .043.461c.028.118.071.213.128.284a.47.47 0 0 0 .213.142.95.95 0 0 0 .298.043c.199 0 .357-.021.476-.064l.256-.099.128.546c-.066.033-.182.073-.348.12a1.9 1.9 0 0 1-.568.078c-.251 0-.459-.031-.625-.092s-.291-.163-.391-.291-.171-.284-.213-.468a3.34 3.34 0 0 1-.057-.652v-3.288l.66-.113v1.141z"/><use href="#B"/><path d="M35.468 25.6l.604-.12c.251-.043.54-.064.867-.064.294 0 .538.043.732.128s.348.196.462.347.201.324.249.532a3.1 3.1 0 0 1 .071.687v2.07h-.66v-1.928c0-.227-.017-.421-.05-.581s-.078-.291-.149-.39a.59.59 0 0 0-.284-.213c-.118-.043-.265-.071-.44-.071l-.22.007-.22.021-.185.021-.114.021v3.111h-.661V25.6zm6.393 3.211a1.86 1.86 0 0 1-.334.149c-.161.057-.35.085-.568.085a1.87 1.87 0 0 1-.632-.106 1.39 1.39 0 0 1-.511-.326c-.147-.151-.263-.338-.348-.56s-.128-.487-.128-.794a2.15 2.15 0 0 1 .121-.737c.081-.227.197-.421.348-.581a1.62 1.62 0 0 1 .568-.383 1.91 1.91 0 0 1 .753-.142 3.99 3.99 0 0 1 .803.071l.582.12v3.288c0 .567-.147.978-.44 1.233s-.739.383-1.335.383a3.7 3.7 0 0 1-.661-.057 3.78 3.78 0 0 1-.533-.135l.121-.574c.133.052.294.097.483.135a3.09 3.09 0 0 0 .604.064c.393 0 .675-.078.845-.234s.263-.404.263-.744v-.156zm-.007-2.736a1.88 1.88 0 0 0-.27-.05c-.109-.019-.258-.028-.448-.028-.355 0-.63.116-.824.347s-.284.539-.284.921c0 .213.026.395.078.546a1.16 1.16 0 0 0 .22.376c.095.099.201.172.32.22a1.01 1.01 0 0 0 .376.071 1.57 1.57 0 0 0 .483-.071 1.25 1.25 0 0 0 .348-.177v-2.155zm2.494 2.296a.92.92 0 0 1 .007.113v.106a2.93 2.93 0 0 1-.135.879 3.83 3.83 0 0 1-.355.836l-.511-.163a2.52 2.52 0 0 0 .234-.737c.038-.246.057-.477.057-.695l-.007-.177-.007-.163h.717zm2.54-1.651c0-.42.062-.791.185-1.113a2.26 2.26 0 0 1 .511-.801 2.16 2.16 0 0 1 .753-.489 2.58 2.58 0 0 1 .916-.163 2.44 2.44 0 0 1 .895.163 2.12 2.12 0 0 1 .746.489 2.25 2.25 0 0 1 .504.801 2.99 2.99 0 0 1 .192 1.113c0 .421-.064.791-.192 1.113s-.291.591-.504.808a2.06 2.06 0 0 1-.746.482 2.46 2.46 0 0 1-.895.163 2.58 2.58 0 0 1-.916-.163c-.284-.109-.535-.269-.753-.482a2.41 2.41 0 0 1-.511-.808c-.123-.321-.185-.692-.185-1.113zm.724 0a2.76 2.76 0 0 0 .114.815c.076.241.182.447.32.616s.313.302.511.397.431.135.682.135a1.62 1.62 0 0 0 .675-.135c.199-.09.367-.227.504-.397a1.78 1.78 0 0 0 .327-.616 2.75 2.75 0 0 0 .114-.815c0-.298-.038-.567-.114-.808s-.185-.454-.327-.624-.305-.3-.504-.39a1.62 1.62 0 0 0-.675-.142 1.6 1.6 0 0 0-.682.142 1.42 1.42 0 0 0-.511.39c-.137.17-.244.378-.32.624a2.69 2.69 0 0 0-.114.808zm7.901 2.353l-.604.12c-.246.043-.533.064-.859.064-.284 0-.523-.04-.717-.12a1.15 1.15 0 0 1-.469-.354 1.41 1.41 0 0 1-.256-.531c-.052-.203-.078-.437-.078-.687v-2.069h.66v1.928c0 .449.071.77.213.964s.381.291.717.291l.22-.007.213-.014.178-.021a.65.65 0 0 0 .121-.028v-3.111h.661v3.579zm2.501-3.657a1.55 1.55 0 0 1 .192.014l.22.028.192.035a.89.89 0 0 1 .135.028l-.114.574c-.052-.019-.14-.04-.263-.064s-.272-.042-.462-.042a1.66 1.66 0 0 0-.369.042l-.234.05v3.097h-.661V25.65a4.1 4.1 0 0 1 .582-.156c.232-.047.492-.078.781-.078zm5.471 1.708l.284.376.362.51.362.581a5.67 5.67 0 0 1 .313.588h-.753l-.313-.546-.334-.524-.341-.475-.298-.383-.192.007h-.192-.618v1.921h-.689v-4.841a3.68 3.68 0 0 1 .646-.092l.66-.028c.691 0 1.217.13 1.577.39s.547.647.547 1.162c0 .326-.088.605-.263.836s-.424.404-.76.517zm-1.044-2.303l-.675.021v1.85h.49c.237 0 .45-.012.639-.035a1.41 1.41 0 0 0 .476-.135.75.75 0 0 0 .305-.276c.071-.118.107-.284.107-.482a.91.91 0 0 0-.107-.461.78.78 0 0 0-.291-.291 1.23 1.23 0 0 0-.426-.149 2.97 2.97 0 0 0-.519-.043zm2.854 2.523a2.31 2.31 0 0 1 .142-.85c.095-.241.22-.449.376-.61a1.53 1.53 0 0 1 .54-.361 1.69 1.69 0 0 1 .625-.12c.497 0 .878.156 1.143.468s.398.777.398 1.41v.113a.9.9 0 0 1-.007.12h-2.528c.028.383.14.673.334.872s.497.298.909.298c.232 0 .426-.019.582-.057s.282-.083.362-.12l.092.553c-.081.042-.222.087-.426.135s-.426.071-.682.071c-.322 0-.601-.047-.838-.142s-.424-.234-.575-.404a1.69 1.69 0 0 1-.341-.602c-.076-.231-.107-.494-.107-.773zm2.536-.361c.005-.298-.071-.541-.227-.73s-.362-.291-.632-.291c-.152 0-.286.031-.405.092s-.211.132-.291.227a1.15 1.15 0 0 0-.192.326c-.048.123-.071.248-.085.376h1.833zm2.497 1.721c.27 0 .469-.035.597-.106s.199-.184.199-.34a.45.45 0 0 0-.192-.383c-.128-.095-.338-.201-.632-.319l-.412-.17c-.128-.061-.239-.132-.334-.213a.91.91 0 0 1-.227-.291c-.057-.113-.085-.253-.085-.418a.93.93 0 0 1 .362-.773c.241-.189.571-.29.987-.29a2.31 2.31 0 0 1 .313.021 2.64 2.64 0 0 1 .291.042l.234.05.163.05-.121.567c-.071-.038-.182-.076-.334-.113a2.3 2.3 0 0 0-.547-.064.99.99 0 0 0-.483.113.36.36 0 0 0-.206.34.5.5 0 0 0 .043.213.59.59 0 0 0 .142.17 1.41 1.41 0 0 0 .242.135l.341.135.469.199a1.33 1.33 0 0 1 .348.22.83.83 0 0 1 .227.312 1.09 1.09 0 0 1 .078.439c0 .34-.128.598-.383.772s-.611.262-1.08.262c-.327 0-.582-.028-.767-.085l-.376-.12.121-.567.362.128c.166.057.386.085.66.085zm4.874-1.36c0-.43-.107-.761-.32-.992s-.497-.347-.852-.347l-.469.021a1.88 1.88 0 0 0-.263.05V28.4a1.36 1.36 0 0 0 .348.191 1.31 1.31 0 0 0 .497.092c.189 0 .35-.033.483-.099a.93.93 0 0 0 .334-.284c.085-.123.147-.265.185-.425a2.34 2.34 0 0 0 .057-.532zm.689 0c0 .279-.038.536-.114.773a1.79 1.79 0 0 1-.32.61 1.46 1.46 0 0 1-.526.397c-.204.095-.438.142-.703.142a1.75 1.75 0 0 1-.568-.085c-.161-.057-.282-.111-.362-.163v1.474h-.66v-4.883l.582-.12a4.21 4.21 0 0 1 .817-.071c.284 0 .54.045.767.135a1.64 1.64 0 0 1 .582.383 1.65 1.65 0 0 1 .369.61 2.37 2.37 0 0 1 .135.801zm4.19-.007c0 .293-.043.558-.128.794s-.206.439-.362.609a1.58 1.58 0 0 1-.547.397 1.77 1.77 0 0 1-.696.135 1.77 1.77 0 0 1-.696-.135c-.213-.09-.398-.227-.554-.397a1.85 1.85 0 0 1-.355-.609c-.085-.236-.128-.501-.128-.794s.043-.55.128-.787a1.88 1.88 0 0 1 .355-.617c.151-.17.341-.3.554-.39s.445-.142.696-.142a1.69 1.69 0 0 1 .696.142c.213.095.395.22.547.39s.277.376.362.617a2.33 2.33 0 0 1 .128.787zm-.689 0c0-.416-.095-.744-.284-.985s-.438-.369-.76-.369-.578.123-.767.369-.277.569-.277.985.092.747.277.992.445.361.767.361.575-.12.76-.361.284-.576.284-.992zM81.01 25.6l.604-.12c.251-.043.54-.064.867-.064.294 0 .537.043.732.128a1.08 1.08 0 0 1 .462.347c.118.146.201.324.249.532a3.06 3.06 0 0 1 .071.687v2.07h-.661v-1.928a2.85 2.85 0 0 0-.05-.581c-.034-.16-.078-.291-.149-.39a.59.59 0 0 0-.284-.213c-.118-.043-.265-.071-.44-.071l-.22.007-.22.021-.185.021-.114.021v3.111h-.66V25.6zm4.938 3.104c.27 0 .469-.035.597-.106s.199-.184.199-.34a.45.45 0 0 0-.192-.383c-.128-.095-.339-.201-.632-.319l-.412-.17a1.55 1.55 0 0 1-.334-.213.91.91 0 0 1-.227-.291c-.057-.113-.085-.253-.085-.418a.93.93 0 0 1 .362-.773c.241-.189.57-.29.987-.29a2.31 2.31 0 0 1 .313.021 2.64 2.64 0 0 1 .291.042l.234.05.163.05-.121.567c-.071-.038-.182-.076-.334-.113a2.3 2.3 0 0 0-.547-.064.99.99 0 0 0-.483.113.36.36 0 0 0-.206.34.5.5 0 0 0 .043.213.59.59 0 0 0 .142.17 1.48 1.48 0 0 0 .241.135l.341.135.469.199a1.33 1.33 0 0 1 .348.22.83.83 0 0 1 .227.312 1.09 1.09 0 0 1 .078.439c0 .34-.128.598-.384.772s-.611.262-1.08.262c-.327 0-.582-.028-.767-.085l-.376-.12.121-.567.362.128c.166.057.386.085.66.085z"/><use href="#C"/><path d="M90.715 25.657a1.8 1.8 0 0 1 .362-.163 1.75 1.75 0 0 1 .568-.085c.265 0 .5.047.703.142a1.46 1.46 0 0 1 .526.397 1.7 1.7 0 0 1 .32.609 2.54 2.54 0 0 1 .114.78c0 .298-.045.567-.135.808s-.208.437-.369.602-.355.293-.582.383-.483.135-.767.135c-.308 0-.58-.021-.817-.064l-.582-.128v-5.28l.66-.113v1.977zm0 2.948a2.51 2.51 0 0 0 .277.057c.123.014.275.021.455.021.355 0 .639-.116.852-.347s.32-.569.32-.999c0-.189-.019-.366-.057-.532a1.16 1.16 0 0 0-.185-.425c-.085-.123-.197-.217-.334-.284s-.294-.106-.483-.106a1.31 1.31 0 0 0-.497.092c-.152.061-.268.125-.348.191v2.332z"/><use href="#B" x="60.566"/><path d="M97.142 29.25c-.407-.009-.696-.097-.867-.262s-.256-.423-.256-.773v-4.422l.661-.113v4.429c0 .109.009.198.028.269s.05.128.092.17.099.076.171.099.159.035.263.05l-.092.553z"/><use href="#C" x="9.717"/><path d="M100.39 25.494h1.399v.553h-1.399v1.701a2.05 2.05 0 0 0 .043.461c.028.118.071.213.128.284s.128.113.213.142.184.043.298.043a1.43 1.43 0 0 0 .476-.064l.256-.099.127.546a2.25 2.25 0 0 1-.348.12c-.165.052-.355.078-.568.078-.251 0-.459-.031-.625-.092a.86.86 0 0 1-.39-.291c-.099-.128-.171-.284-.213-.468a3.34 3.34 0 0 1-.057-.652v-3.288l.66-.113v1.141zm1.807 4.373a1.06 1.06 0 0 0 .199.064c.081.019.168.035.248.035.261 0 .464-.059.611-.177s.279-.3.398-.56l-.838-1.8a16.28 16.28 0 0 1-.64-1.935h.711l.184.687.249.758.291.779.327.751.469-1.474.376-1.503h.682l-.568 2.006-.675 1.793c-.095.213-.194.395-.298.546s-.211.284-.334.383a1.23 1.23 0 0 1-.419.22 1.75 1.75 0 0 1-.519.071 1 1 0 0 1-.163-.014 1.07 1.07 0 0 1-.171-.028 1.4 1.4 0 0 1-.149-.035l-.092-.035.121-.532zm4.551-1.07a.48.48 0 0 1-.128.333c-.085.094-.201.142-.348.142s-.263-.047-.348-.142-.128-.206-.128-.333a.48.48 0 0 1 .128-.333c.085-.095.201-.142.348-.142s.263.047.348.142a.48.48 0 0 1 .128.333z"/><path d="M101.014 18.871c-.812 0-1.541-.157-2.187-.472a5.04 5.04 0 0 1-1.616-1.342 6.31 6.31 0 0 1-.994-1.939 8.56 8.56 0 0 1-.323-2.386 8.29 8.29 0 0 1 .373-2.361c.232-.746.563-1.392.994-1.939a4.75 4.75 0 0 1 1.616-1.317c.63-.314 1.343-.472 2.138-.472a4.92 4.92 0 0 1 2.138.472 5.58 5.58 0 0 1 1.79 1.317c.53.547.944 1.193 1.243 1.939.298.729.447 1.508.447 2.337a6.63 6.63 0 0 1-.447 2.436 6.46 6.46 0 0 1-1.218 1.964 5.76 5.76 0 0 1-1.79 1.293c-.68.315-1.401.472-2.163.472zm-.398-2.908a3.1 3.1 0 0 0 1.566-.398 3.02 3.02 0 0 0 1.094-1.143 3.18 3.18 0 0 0 .423-1.641c0-.63-.141-1.185-.423-1.665a2.8 2.8 0 0 0-1.094-1.143c-.464-.282-.986-.423-1.566-.423a2.91 2.91 0 0 0-1.541.423c-.464.282-.837.663-1.119 1.143-.265.481-.398 1.036-.398 1.665 0 .613.133 1.16.398 1.641a3.21 3.21 0 0 0 1.119 1.143c.464.265.978.398 1.541.398zm-4.599 2.933c-.447 0-.779-.075-.994-.224-.215-.133-.348-.306-.398-.522a3.68 3.68 0 0 1-.075-.771V2.566c0-.282.025-.53.075-.746.05-.232.182-.414.398-.547s.547-.199.994-.199c.464 0 .796.066.994.199a.85.85 0 0 1 .373.547 3.54 3.54 0 0 1 .075.746v15.311c-.066.365-.207.622-.423.771-.199.166-.539.249-1.019.249zm-8.866.15c-1.077 0-2.022-.174-2.834-.522a5.89 5.89 0 0 1-2.014-1.417 6.75 6.75 0 0 1-1.218-2.038 7.14 7.14 0 0 1-.398-2.361c0-1.193.273-2.254.82-3.182s1.301-1.657 2.262-2.187c.978-.53 2.096-.795 3.356-.795.895 0 1.682.141 2.362.423s1.243.655 1.69 1.119c.464.447.812.945 1.044 1.491.249.547.373 1.077.373 1.591 0 .878-.216 1.516-.646 1.914-.414.398-.936.597-1.566.597H83.82c.017.563.191 1.052.522 1.467.348.414.779.737 1.293.969a4.26 4.26 0 0 0 1.616.323c.414 0 .779-.025 1.094-.075.331-.05.613-.108.845-.174.232-.083.431-.166.597-.248l.497-.224a1.51 1.51 0 0 1 .423-.124c.182-.017.365.025.547.124s.332.273.448.522c.099.166.166.323.199.472a1.12 1.12 0 0 1 .075.398c0 .332-.199.646-.597.945-.398.282-.961.514-1.69.696-.713.199-1.558.298-2.536.298zm-3.331-7.134h5.096c.282 0 .497-.041.646-.124.149-.099.224-.298.224-.597 0-.381-.116-.721-.348-1.019-.232-.315-.547-.555-.945-.721-.398-.182-.862-.273-1.392-.273-.613 0-1.168.124-1.665.373a3 3 0 0 0-1.193.969 2.42 2.42 0 0 0-.423 1.392zm-18.916 6.912c-.331 0-.597-.058-.796-.174a1.44 1.44 0 0 1-.447-.447c-.083-.166-.141-.307-.174-.423L58.615 3.512c-.166-.53-.191-.928-.075-1.193.116-.282.456-.514 1.019-.696.381-.133.688-.191.92-.174a.78.78 0 0 1 .572.298c.166.166.307.431.423.795l3.58 10.837L68.26 2.642c.05-.166.116-.331.199-.497a1.16 1.16 0 0 1 .447-.447c.199-.116.472-.174.82-.174.398 0 .696.066.895.199s.34.282.423.447a1.38 1.38 0 0 1 .199.423l3.207 10.862 3.605-10.887c.116-.381.249-.663.398-.845a.89.89 0 0 1 .621-.298c.249-.033.555.017.92.149.381.133.655.282.82.447.166.149.249.348.249.597 0 .232-.058.53-.174.895l-4.847 14.292c-.033.099-.099.232-.199.398-.083.166-.224.315-.423.447-.199.116-.472.174-.82.174s-.622-.075-.82-.224-.348-.315-.447-.497l-.199-.398-3.381-10.937-3.381 10.912a2.35 2.35 0 0 1-.199.447 1.31 1.31 0 0 1-.423.497c-.199.133-.481.199-.845.199zm-12.925.221a6.76 6.76 0 0 1-1.367-.149c-.481-.083-.945-.207-1.392-.373a5.94 5.94 0 0 1-1.168-.621c-.315-.249-.514-.522-.597-.82-.066-.166-.091-.323-.075-.472a1.43 1.43 0 0 1 .149-.497c.083-.182.207-.365.373-.547.149-.182.298-.282.447-.298.166-.033.373.017.621.149a6.5 6.5 0 0 1 .696.323l.795.398a5.88 5.88 0 0 0 .845.323c.298.083.588.124.87.124.613 0 1.102-.099 1.467-.298.365-.215.547-.514.547-.895 0-.215-.058-.406-.174-.572a1.24 1.24 0 0 0-.472-.398c-.182-.116-.406-.215-.671-.298-.249-.099-.522-.182-.82-.248l-.895-.273a12.15 12.15 0 0 1-1.243-.423c-.414-.166-.787-.381-1.119-.646a3.08 3.08 0 0 1-.771-.994c-.199-.398-.298-.895-.298-1.491 0-.746.174-1.375.522-1.889.365-.53.887-.936 1.566-1.218s1.5-.423 2.461-.423c.332 0 .646.025.945.075a5.05 5.05 0 0 1 .895.224 4.75 4.75 0 0 1 .845.323 6.16 6.16 0 0 1 .795.447c.414.232.63.505.646.82.017.298-.099.621-.348.969-.182.232-.365.398-.547.497-.182.083-.373.083-.572 0l-.87-.423c-.298-.166-.613-.307-.945-.423a2.85 2.85 0 0 0-.994-.174c-.331 0-.63.05-.895.149s-.464.24-.597.423a1.07 1.07 0 0 0-.199.646c0 .232.066.423.199.572a1.56 1.56 0 0 0 .522.373c.215.099.472.191.771.273l.945.199 1.417.373a5.07 5.07 0 0 1 1.317.621 2.94 2.94 0 0 1 .994 1.069c.249.431.373.994.373 1.69 0 1.21-.447 2.146-1.342 2.809-.878.663-2.096.994-3.654.994zm-11.727.001c-1.077 0-2.022-.174-2.834-.522-.795-.348-1.467-.82-2.014-1.417a6.73 6.73 0 0 1-1.218-2.038 7.14 7.14 0 0 1-.398-2.361c0-1.193.273-2.254.82-3.182s1.301-1.657 2.262-2.187c.978-.53 2.096-.795 3.356-.795.895 0 1.682.141 2.362.423s1.243.655 1.69 1.119c.464.447.812.945 1.044 1.491.248.547.373 1.077.373 1.591 0 .878-.215 1.516-.646 1.914-.414.398-.936.597-1.566.597H36.92c.017.563.191 1.052.522 1.467.348.414.779.737 1.293.969a4.26 4.26 0 0 0 1.616.323c.414 0 .779-.025 1.094-.075.331-.05.613-.108.845-.174a5.44 5.44 0 0 0 .597-.248l.497-.224c.149-.066.29-.108.423-.124.182-.017.365.025.547.124s.331.273.447.522c.099.166.166.323.199.472a1.12 1.12 0 0 1 .075.398c0 .332-.199.646-.597.945-.398.282-.961.514-1.69.696-.713.199-1.558.298-2.536.298zm-3.331-7.134h5.096c.282 0 .497-.041.646-.124.149-.099.224-.298.224-.597 0-.381-.116-.721-.348-1.019-.232-.315-.547-.555-.945-.721-.398-.182-.862-.273-1.392-.273-.613 0-1.168.124-1.665.373a3 3 0 0 0-1.193.969 2.42 2.42 0 0 0-.423 1.392zm-5.549 6.985c-.613 0-1.16-.041-1.641-.124-.464-.083-.87-.224-1.218-.423a2.51 2.51 0 0 1-.82-.795c-.215-.348-.381-.771-.497-1.268-.099-.497-.149-1.094-.149-1.79V2.516c0-.282.025-.53.075-.746a.95.95 0 0 1 .398-.547c.215-.149.555-.224 1.019-.224s.796.066.994.199c.216.133.348.315.398.547a2.54 2.54 0 0 1 .099.746v11.881c0 .315.017.58.05.795.05.199.124.365.224.497a.98.98 0 0 0 .423.248 2.46 2.46 0 0 0 .646.075c.215 0 .406.025.572.075.182.05.323.174.423.373.116.199.174.522.174.969 0 .464-.058.804-.174 1.019-.099.216-.24.348-.423.398s-.373.075-.572.075zm-8.489-.001c-.448 0-.779-.075-.994-.224-.216-.133-.348-.307-.398-.522-.05-.232-.075-.489-.075-.77V8.133a3.2 3.2 0 0 1 .075-.721.95.95 0 0 1 .398-.547c.215-.133.555-.199 1.019-.199s.795.066.994.199a.83.83 0 0 1 .398.547 3.68 3.68 0 0 1 .075.771v9.222a3.68 3.68 0 0 1-.075.771c-.05.215-.182.389-.398.522-.199.133-.539.199-1.019.199zm0-14.64c-.481 0-.837-.066-1.069-.199a1.03 1.03 0 0 1-.423-.597 4.19 4.19 0 0 1-.075-.82c0-.315.025-.588.075-.82.066-.232.215-.414.447-.547.232-.149.588-.224 1.069-.224.497 0 .853.075 1.069.224a1.03 1.03 0 0 1 .423.597c.066.232.099.505.099.82a3.08 3.08 0 0 1-.099.795c-.066.248-.207.439-.423.572s-.58.199-1.094.199zM2.467 18.871c-.431 0-.754-.066-.969-.199a.93.93 0 0 1-.423-.547c-.05-.232-.075-.489-.075-.771V3.013a3.21 3.21 0 0 1 .075-.721c.066-.232.207-.414.423-.547.215-.149.555-.224 1.019-.224.348 0 .605.025.771.075.182.033.323.091.423.174a1.49 1.49 0 0 1 .298.273l6.066 8.476h-.572l6.09-8.501c.116-.133.232-.232.348-.298s.265-.116.447-.149a4.19 4.19 0 0 1 .721-.05c.447 0 .779.075.994.224.216.133.348.315.398.547a2.8 2.8 0 0 1 .099.771v14.342a2.61 2.61 0 0 1-.099.721c-.05.232-.182.414-.398.547s-.555.199-1.019.199c-.447 0-.779-.075-.994-.224-.216-.133-.356-.315-.423-.547a3.54 3.54 0 0 1-.075-.746V6.692l-4.524 6.537-.224.274a1.52 1.52 0 0 1-.398.273c-.166.083-.389.124-.671.124-.265 0-.481-.042-.646-.124a1.52 1.52 0 0 1-.398-.273l-.249-.298-4.499-6.512v10.713a2.61 2.61 0 0 1-.099.721c-.05.232-.182.414-.398.547s-.555.199-1.019.199z" stroke="#27235c" stroke-width=".2"/></g><defs ><path id="B" d="M34.332 29.179h-.66v-3.685h.66v3.685zm-.334-4.352c-.118 0-.22-.038-.305-.113a.43.43 0 0 1-.121-.319c0-.132.04-.236.121-.312a.43.43 0 0 1 .305-.12c.118 0 .218.04.298.12s.128.18.128.312-.043.239-.128.319a.42.42 0 0 1-.298.113z"/><path id="C" d="M88.919 29.179h-.661v-3.685h.661v3.685zm-.334-4.352c-.118 0-.22-.038-.305-.113a.43.43 0 0 1-.121-.319c0-.132.04-.236.121-.312a.43.43 0 0 1 .305-.12c.118 0 .218.04.298.12s.128.18.128.312-.043.239-.128.319a.42.42 0 0 1-.298.113z"/></defs></svg>