<svg xmlns="http://www.w3.org/2000/svg" width="45" height="45" fill="none" xmlns:v="https://vecta.io/nano"><g clip-path="url(#A)" fill="#ff7246"><path d="M27.764 19.152c-.131-.32-.422-.515-.749-.515a.8.8 0 0 0-.742.498l-2.37 6.223a.66.66 0 0 0 .381.851.66.66 0 0 0 .851-.381l.427-1.122h2.889l.423 1.12a.66.66 0 0 0 .617.427.65.65 0 0 0 .232-.043.66.66 0 0 0 .384-.849l-2.343-6.208zm-1.7 4.236l.949-2.492.94 2.492h-1.889zm-5.588-4.657h-1.731a.66.66 0 0 0-.659.66l.012 6.111a.66.66 0 0 0 .659.658h.003l1.778-.014c1.776-.031 3.065-1.588 3.065-3.701 0-2.222-1.257-3.715-3.127-3.715zm.039 6.097l-1.099.01-.01-4.789h1.07c1.333 0 1.809 1.238 1.809 2.396 0 1.133-.554 2.361-1.769 2.383zm18.496-2.952l-1.736-.702a.56.56 0 0 1-.215-.539c.019-.135.116-.466.59-.609.957-.288 1.83.407 1.851.424a.66.66 0 0 0 .926-.083.66.66 0 0 0-.081-.929c-.057-.048-1.422-1.173-3.077-.675-.821.247-1.402.893-1.515 1.684-.106.739.214 1.45.836 1.856.029.019.06.036.091.05l1.872.759c.647.239.978.603.907 1-.072.404-.55.821-1.226.821-.661 0-1.299-.268-1.706-.717a.66.66 0 0 0-.931-.046.66.66 0 0 0-.046.931c.652.72 1.655 1.15 2.683 1.15 1.245 0 2.33-.82 2.524-1.908.148-.827-.234-1.91-1.749-2.469zm-4.298-3.116a.66.66 0 0 0-.912.193l-1.443 2.217-1.458-2.234a.66.66 0 0 0-.912-.192.66.66 0 0 0-.192.912l1.904 2.915-.007 3.02a.66.66 0 0 0 .657.661h.002a.66.66 0 0 0 .659-.658l.007-3.022 1.889-2.901a.66.66 0 0 0-.193-.912zm-22.483-.265a2.49 2.49 0 0 0-2.488 2.488v2.925a2.49 2.49 0 0 0 2.488 2.488 2.49 2.49 0 0 0 2.488-2.488v-2.925a2.49 2.49 0 0 0-2.488-2.488zm1.17 5.413a1.17 1.17 0 1 1-2.34 0v-2.925a1.17 1.17 0 1 1 2.34 0v2.925zm-5.409-1.607a2.23 2.23 0 0 0 .634-1.558 2.24 2.24 0 0 0-2.236-2.236 2.24 2.24 0 0 0-2.194 1.803.66.66 0 0 0 .52.774.66.66 0 0 0 .774-.52.92.92 0 0 1 .901-.739.92.92 0 0 1 .918.918.92.92 0 0 1-.918.918.66.66 0 0 0-.659.659.66.66 0 0 0 .659.659 1.01 1.01 0 0 1 1.009 1.008 1.01 1.01 0 0 1-1.009 1.009 1.01 1.01 0 0 1-.999-.867.95.95 0 0 1-.01-.142.66.66 0 0 0-.659-.659.66.66 0 0 0-.659.659 2.36 2.36 0 0 0 .022.324c.159 1.142 1.15 2.003 2.304 2.003a2.33 2.33 0 0 0 2.327-2.327 2.32 2.32 0 0 0-.725-1.686zm35.019-7.17A21.8 21.8 0 0 0 22.5.705 21.8 21.8 0 0 0 1.99 15.131 3.48 3.48 0 0 0 0 18.273v8.454a3.48 3.48 0 0 0 1.99 3.142A21.8 21.8 0 0 0 22.5 44.296a21.68 21.68 0 0 0 12.048-3.633.66.66 0 0 0 .184-.914.66.66 0 0 0-.914-.184A20.37 20.37 0 0 1 22.5 42.977 20.48 20.48 0 0 1 3.53 30.205h3.968a16.91 16.91 0 0 0 5.922 6.508 16.81 16.81 0 0 0 9.08 2.651 16.85 16.85 0 0 0 11.534-4.562l-.308 1.549a.66.66 0 0 0 .518.775c.043.009.087.013.129.013a.66.66 0 0 0 .646-.531l.757-3.813a.66.66 0 0 0-.794-.771l-3.79.868a.66.66 0 0 0-.495.79.66.66 0 0 0 .79.495l1.7-.389c-2.875 2.723-6.69 4.258-10.688 4.258a15.49 15.49 0 0 1-8.369-2.443 15.6 15.6 0 0 1-5.136-5.398h32.474c-1.213 2.982-3.122 5.654-5.572 7.778a.66.66 0 0 0 .432 1.157c.153 0 .307-.053.431-.161 2.833-2.456 4.99-5.6 6.251-9.11A3.48 3.48 0 0 0 45 26.727v-8.454a3.48 3.48 0 0 0-1.99-3.142zm.671 11.597a2.16 2.16 0 0 1-2.159 2.159H3.477a2.16 2.16 0 0 1-2.159-2.159v-8.454a2.16 2.16 0 0 1 2.159-2.159H7a.66.66 0 0 0 .659-.659.66.66 0 0 0-.659-.659H3.529a20.48 20.48 0 0 1 37.941 0h-3.968C36.139 12.145 34.1 9.9 31.58 8.287a16.81 16.81 0 0 0-9.08-2.651 16.85 16.85 0 0 0-11.534 4.562l.308-1.549a.66.66 0 0 0-.518-.775.66.66 0 0 0-.775.518l-.757 3.813a.66.66 0 0 0 .647.788c.049 0 .098-.005.147-.017l3.79-.868a.66.66 0 0 0 .495-.79.66.66 0 0 0-.79-.495l-1.7.389c2.875-2.723 6.69-4.258 10.688-4.258a15.49 15.49 0 0 1 8.369 2.443 15.6 15.6 0 0 1 5.136 5.398H9.818a.66.66 0 0 0-.659.659.66.66 0 0 0 .659.659h27.277 4.427a2.16 2.16 0 0 1 2.159 2.159v8.455h0z"/></g><defs><clipPath id="A"><path fill="#fff" d="M0 0h45v45H0z"/></clipPath></defs></svg>