<svg xmlns="http://www.w3.org/2000/svg" width="51" height="50" fill="none" xmlns:v="https://vecta.io/nano"><g clip-path="url(#A)" fill-rule="evenodd" fill="#2eb654"><path d="M5.536 32.853c-.317 0-.575-.258-.575-.575V16.499c0-.318.258-.575.575-.575s.575.257.575.575v15.778c0 .317-.257.575-.575.575zm0 7.749c-.317 0-.575-.257-.575-.575V36.89c0-.317.258-.575.575-.575s.575.258.575.575v3.137c0 .318-.257.575-.575.575zm39.93-7.749c-.318 0-.575-.258-.575-.575V16.499c0-.318.257-.575.575-.575s.575.257.575.575v15.778c0 .317-.258.575-.575.575zm0 7.749c-.318 0-.575-.257-.575-.575V36.89c0-.317.257-.575.575-.575s.575.258.575.575v3.137c0 .318-.258.575-.575.575zm-14.329.06h-11.28c-.317 0-.575-.258-.575-.575v-8.78c0-.317.258-.575.575-.575h11.28c.318 0 .575.258.575.575v8.78c0 .317-.257.575-.575.575zm-10.705-1.15h10.13v-7.63h-10.13v7.63zm8.801-1.094h-7.471c-.317 0-.575-.258-.575-.575v-4.292c0-.318.258-.575.575-.575h7.471c.317 0 .575.257.575.575v4.292c0 .317-.258.575-.575.575zm-6.895-1.15h6.32v-3.143h-6.32v3.143zm5.124-.996h-3.926c-.318 0-.575-.258-.575-.575s.257-.575.575-.575h3.926c.317 0 .575.258.575.575s-.258.575-.575.575zm-2.343-6.244c-1.202 0-2.304-.432-3.279-1.286-4.148-3.629-4.734-13.879-4.761-14.378a.58.58 0 0 1 .026-.208.57.57 0 0 1 .204-.287h.001l.003-.002.016-.011h.001a.57.57 0 0 1 .323-.1h15.679.02a.58.58 0 0 1 .531.396.57.57 0 0 1 .028.195c-.026.518-.612 10.767-4.761 14.397-1.077.942-2.307 1.37-3.655 1.271-.127.009-.252.014-.376.014zm.433-1.163c1.057.083 1.985-.239 2.841-.988 3.26-2.852 4.139-10.725 4.326-12.971H18.272c.189 2.246 1.069 10.122 4.326 12.972.855.748 1.784 1.071 2.84.987.02-.002.04-.002.058-.003a.55.55 0 0 1 .057.003z"/><path d="M26.931 31.882c-.317 0-.575-.258-.575-.575V29.32c0-.317.258-.575.575-.575s.575.258.575.575v1.987c0 .317-.258.575-.575.575zm-2.863 0c-.317 0-.575-.258-.575-.575V29.32c0-.317.258-.575.575-.575s.575.258.575.575v1.987c0 .317-.258.575-.575.575zm3.605-7.43a.57.57 0 0 1-.339-.11l-1.838-1.34-1.838 1.34c-.201.148-.475.148-.677.001s-.286-.407-.209-.645l.707-2.161-1.843-1.334c-.202-.146-.287-.406-.21-.643s.298-.398.547-.398h.002l2.274.004.698-2.164c.077-.237.298-.398.548-.398s.471.161.547.398l.699 2.164 2.274-.004h.001c.249 0 .471.16.547.398s-.007.497-.209.643l-1.844 1.334.708 2.161a.58.58 0 0 1-.209.645c-.101.073-.22.109-.338.109zm-3.918-4.136l.739.534c.202.146.287.407.209.645l-.283.868.737-.538c.202-.147.476-.147.678 0l.737.538-.284-.868a.58.58 0 0 1 .21-.645l.739-.534-.912.001c-.251 0-.473-.161-.549-.398l-.28-.868-.28.868c-.077.237-.298.398-.548.398l-.913-.001zm7.25 5.31c-.277 0-.521-.2-.567-.483-.051-.313.162-.609.476-.66 3.384-.55 5.088-3.699 5.271-4.058.549-1.776.559-3.023.027-3.512-.58-.534-1.904-.271-2.861.118-.294.119-.63-.023-.749-.317s.023-.63.316-.749c.828-.335 2.88-.997 4.073.102.92.848 1.011 2.399.277 4.745a.55.55 0 0 1-.029.076c-.079.165-1.983 4.055-6.142 4.73a.6.6 0 0 1-.093.007zm-11.018 0a.6.6 0 0 1-.093-.007c-4.158-.676-6.063-4.565-6.142-4.73a.41.41 0 0 1-.029-.076c-.733-2.346-.643-3.898.277-4.744 1.192-1.099 3.245-.438 4.072-.103.295.119.436.455.317.749s-.455.435-.749.317c-.958-.389-2.282-.652-2.861-.118-.531.489-.521 1.735.027 3.511.184.355 1.901 3.512 5.272 4.059.313.051.526.347.476.66-.046.282-.29.482-.567.482zM32.895 42.77H18.099c-.317 0-.575-.257-.575-.575v-1.054a1.63 1.63 0 0 1 1.63-1.629h12.688a1.63 1.63 0 0 1 1.629 1.629v1.054c0 .318-.257.575-.575.575zm-14.221-1.15h13.645v-.479a.48.48 0 0 0-.478-.478H19.153a.48.48 0 0 0-.48.478v.479zm28.919 4.138H3.406A2.91 2.91 0 0 1 .5 42.852V7.148a2.91 2.91 0 0 1 2.906-2.906l44.187.001a2.91 2.91 0 0 1 2.905 2.905v35.703a2.91 2.91 0 0 1-2.905 2.906zM3.406 5.393A1.76 1.76 0 0 0 1.65 7.148v35.703a1.76 1.76 0 0 0 1.756 1.756h44.187a1.76 1.76 0 0 0 1.755-1.756V7.148a1.76 1.76 0 0 0-1.755-1.756H3.406z"/><path d="M49.923 11.918H1.075c-.317 0-.575-.257-.575-.575s.258-.575.575-.575h48.848c.317 0 .575.258.575.575s-.258.575-.575.575zM6.112 8.655H4.435c-.317 0-.575-.257-.575-.575s.258-.575.575-.575h1.678c.318 0 .575.258.575.575s-.257.575-.575.575zm3.915 0H8.349c-.317 0-.575-.257-.575-.575s.258-.575.575-.575h1.679c.317 0 .575.258.575.575s-.258.575-.575.575zm3.914 0h-1.679c-.317 0-.575-.257-.575-.575s.258-.575.575-.575h1.679c.317 0 .575.258.575.575s-.258.575-.575.575zm32.624 0H30.903c-.317 0-.575-.257-.575-.575s.258-.575.575-.575h15.661c.317 0 .575.258.575.575s-.258.575-.575.575z"/></g><defs><clipPath id="A"><path fill="#fff" transform="translate(.5)" d="M0 0h50v50H0z"/></clipPath></defs></svg>