<svg width="50" height="50" viewBox="0 0 50 50" fill="none" xmlns="http://www.w3.org/2000/svg">
<rect width="50" height="50" rx="25" fill="#F5F8FC"/>
<mask id="path-2-outside-1_2957_2580" maskUnits="userSpaceOnUse" x="12.75" y="13.9263" width="24" height="22" fill="black">
<rect fill="white" x="12.75" y="13.9263" width="24" height="22"/>
<path d="M24.9995 27.9199C25.5771 27.9199 26.1416 27.7486 26.6218 27.4278C27.102 27.1069 27.4763 26.6509 27.6973 26.1173C27.9183 25.5838 27.9761 24.9967 27.8634 24.4302C27.7508 23.8638 27.4727 23.3435 27.0643 22.9351C26.6559 22.5268 26.1356 22.2487 25.5692 22.136C25.0028 22.0233 24.4157 22.0812 23.8821 22.3022C23.3485 22.5232 22.8925 22.8974 22.5716 23.3776C22.2508 23.8578 22.0795 24.4224 22.0795 24.9999C22.0802 25.7741 22.388 26.5165 22.9355 27.0639C23.483 27.6114 24.2253 27.9192 24.9995 27.9199ZM24.9995 22.7049C25.4534 22.7049 25.8972 22.8395 26.2746 23.0917C26.652 23.3438 26.9461 23.7023 27.1198 24.1216C27.2935 24.541 27.339 25.0024 27.2504 25.4476C27.1619 25.8928 26.9433 26.3017 26.6223 26.6227C26.3014 26.9437 25.8925 27.1622 25.4473 27.2508C25.0021 27.3393 24.5406 27.2939 24.1213 27.1202C23.7019 26.9465 23.3435 26.6523 23.0913 26.2749C22.8391 25.8975 22.7045 25.4538 22.7045 24.9999C22.7052 24.3914 22.9472 23.8081 23.3775 23.3778C23.8077 22.9476 24.3911 22.7056 24.9995 22.7049ZM18.2495 23.4999C18.1751 23.5107 18.1071 23.548 18.0579 23.605C18.0088 23.6619 17.9819 23.7347 17.982 23.8099V26.2099C17.9865 26.2816 18.0155 26.3496 18.0642 26.4024C18.113 26.4553 18.1784 26.4897 18.2495 26.4999L19.647 26.6999C19.739 27.0036 19.857 27.2989 19.9995 27.5824L19.152 28.7124C19.1073 28.7726 19.0857 28.8469 19.0912 28.9217C19.0967 28.9965 19.129 29.0669 19.182 29.1199L20.8795 30.8174C20.9325 30.8705 21.0029 30.9027 21.0777 30.9082C21.1525 30.9137 21.2268 30.8921 21.287 30.8474L22.417 29.9999C22.697 30.1454 22.9889 30.2666 23.2895 30.3624L23.4995 31.7499C23.5104 31.8243 23.5477 31.8923 23.6046 31.9415C23.6616 31.9906 23.7343 32.0176 23.8095 32.0174H26.2095C26.2813 32.0129 26.3493 31.9839 26.4021 31.9352C26.4549 31.8865 26.4893 31.821 26.4995 31.7499L26.6995 30.3524C27.0033 30.2604 27.2985 30.1425 27.582 29.9999L28.712 30.8474C28.7722 30.8921 28.8465 30.9137 28.9214 30.9082C28.9962 30.9027 29.0665 30.8705 29.1195 30.8174L30.817 29.1199C30.8701 29.0669 30.9024 28.9965 30.9079 28.9217C30.9134 28.8469 30.8918 28.7726 30.847 28.7124L29.9995 27.5824C30.145 27.3024 30.2663 27.0105 30.362 26.7099L31.7495 26.4999C31.824 26.4891 31.892 26.4518 31.9411 26.3948C31.9903 26.3379 32.0172 26.2651 32.017 26.1899V23.7999C32.0149 23.7264 31.9868 23.6561 31.9379 23.6012C31.889 23.5463 31.8223 23.5104 31.7495 23.4999L30.352 23.2999C30.26 22.9962 30.1421 22.7009 29.9995 22.4174L30.847 21.2874C30.8918 21.2272 30.9134 21.1529 30.9079 21.0781C30.9024 21.0032 30.8701 20.9329 30.817 20.8799L29.1195 19.1824C29.0665 19.1293 28.9962 19.0971 28.9214 19.0916C28.8465 19.0861 28.7722 19.1076 28.712 19.1524L27.582 19.9999C27.3021 19.8544 27.0102 19.7331 26.7095 19.6374L26.4995 18.2499C26.4887 18.1755 26.4514 18.1074 26.3944 18.0583C26.3375 18.0092 26.2647 17.9822 26.1895 17.9824H23.7995C23.7261 17.9846 23.6557 18.0126 23.6008 18.0615C23.546 18.1104 23.5101 18.1771 23.4995 18.2499L23.2995 19.6474C22.9958 19.7394 22.7006 19.8573 22.417 19.9999L21.287 19.1524C21.2268 19.1076 21.1525 19.0861 21.0777 19.0916C21.0029 19.0971 20.9325 19.1293 20.8795 19.1824L19.182 20.8799C19.129 20.9329 19.0967 21.0032 19.0912 21.0781C19.0857 21.1529 19.1073 21.2272 19.152 21.2874L19.9995 22.4174C19.8541 22.6974 19.7328 22.9893 19.637 23.2899L18.2495 23.4999ZM20.1895 23.6649C20.2983 23.278 20.4528 22.9054 20.6495 22.5549C20.6797 22.502 20.6938 22.4415 20.6903 22.3807C20.6867 22.3199 20.6656 22.2614 20.6295 22.2124L19.8245 21.1399L21.1395 19.8249L22.212 20.6299C22.2608 20.6666 22.3193 20.688 22.3803 20.6916C22.4412 20.6952 22.5018 20.6806 22.5545 20.6499C22.905 20.4531 23.2776 20.2987 23.6645 20.1899C23.7223 20.1746 23.7743 20.1428 23.8142 20.0984C23.8542 20.054 23.8804 19.9989 23.8895 19.9399L24.0795 18.6124H25.9395L26.1295 19.9399C26.1387 19.9989 26.1649 20.054 26.2048 20.0984C26.2448 20.1428 26.2968 20.1746 26.3545 20.1899C26.7415 20.2987 27.1141 20.4531 27.4645 20.6499C27.5174 20.68 27.578 20.6942 27.6387 20.6906C27.6995 20.6871 27.758 20.666 27.807 20.6299L28.8795 19.8249L30.1945 21.1399L29.3895 22.2124C29.3535 22.2614 29.3324 22.3199 29.3288 22.3807C29.3253 22.4415 29.3394 22.502 29.3695 22.5549C29.5663 22.9054 29.7207 23.278 29.8295 23.6649C29.8448 23.7226 29.8766 23.7746 29.921 23.8146C29.9654 23.8546 30.0205 23.8807 30.0795 23.8899L31.407 24.0799V25.9399L30.0795 26.1299C30.0205 26.1391 29.9654 26.1652 29.921 26.2052C29.8766 26.2451 29.8448 26.2972 29.8295 26.3549C29.7207 26.7418 29.5663 27.1144 29.3695 27.4649C29.3394 27.5178 29.3253 27.5783 29.3288 27.6391C29.3324 27.6999 29.3535 27.7583 29.3895 27.8074L30.1945 28.8799L28.8795 30.1949L27.807 29.3899C27.758 29.3538 27.6995 29.3327 27.6387 29.3292C27.578 29.3256 27.5174 29.3398 27.4645 29.3699C27.1141 29.5667 26.7415 29.7211 26.3545 29.8299C26.2968 29.8452 26.2448 29.877 26.2048 29.9214C26.1649 29.9658 26.1387 30.0209 26.1295 30.0799L25.9395 31.4074H24.0695L23.8795 30.0799C23.8704 30.0209 23.8442 29.9658 23.8042 29.9214C23.7643 29.877 23.7123 29.8452 23.6545 29.8299C23.2676 29.7211 22.895 29.5667 22.5445 29.3699C22.4916 29.3398 22.4311 29.3256 22.3703 29.3292C22.3095 29.3327 22.2511 29.3538 22.202 29.3899L21.1295 30.1949L19.8145 28.8799L20.6195 27.8074C20.6556 27.7583 20.6767 27.6999 20.6803 27.6391C20.6838 27.5783 20.6697 27.5178 20.6395 27.4649C20.4428 27.1144 20.2883 26.7418 20.1795 26.3549C20.1642 26.2972 20.1324 26.2451 20.088 26.2052C20.0436 26.1652 19.9886 26.1391 19.9295 26.1299L18.602 25.9399V24.0699L19.9295 23.8799C19.9886 23.8707 20.0436 23.8446 20.088 23.8046C20.1324 23.7646 20.1642 23.7126 20.1795 23.6549L20.1895 23.6649ZM36.137 23.2149C36.2027 23.2658 36.2456 23.3406 36.2564 23.423C36.2672 23.5055 36.2449 23.5888 36.1945 23.6549L34.9995 25.1899L34.9795 25.2124L34.9645 25.2274C34.938 25.2502 34.9086 25.2696 34.877 25.2849H34.862C34.8269 25.2986 34.7897 25.3062 34.752 25.3074C34.7134 25.3072 34.6752 25.2996 34.6395 25.2849L34.6045 25.2674C34.5895 25.2674 34.5745 25.2524 34.562 25.2424L33.0145 24.0574C32.9482 24.007 32.9047 23.9323 32.8934 23.8498C32.8822 23.7673 32.9041 23.6837 32.9545 23.6174C33.0049 23.5511 33.0796 23.5075 33.1621 23.4963C33.2446 23.485 33.3282 23.507 33.3945 23.5574L34.4145 24.3374C34.2521 22.1233 33.3145 20.0373 31.7665 18.446C30.2185 16.8546 28.1592 15.8598 25.9505 15.6362C23.7417 15.4127 21.5248 15.9747 19.6894 17.2236C17.8539 18.4725 16.5174 20.3283 15.9145 22.4649C15.9035 22.5045 15.8849 22.5415 15.8596 22.5738C15.8343 22.6061 15.8028 22.6332 15.7671 22.6534C15.7313 22.6736 15.6919 22.6865 15.6512 22.6915C15.6104 22.6965 15.5691 22.6934 15.5295 22.6824C15.49 22.6714 15.453 22.6527 15.4206 22.6274C15.3883 22.6021 15.3612 22.5707 15.341 22.5349C15.3003 22.4627 15.2898 22.3773 15.312 22.2974C15.9434 20.0246 17.353 18.0457 19.2947 16.7063C21.2365 15.3668 23.587 14.7519 25.9358 14.969C28.2847 15.186 30.4828 16.2211 32.1462 17.8937C33.8097 19.5662 34.8328 21.7699 35.037 24.1199L35.6995 23.2549C35.7512 23.1939 35.824 23.1548 35.9034 23.1455C35.9828 23.1362 36.0627 23.1574 36.127 23.2049L36.137 23.2149ZM34.7095 27.7149C34.0819 29.9948 32.6715 31.981 30.7257 33.3249C28.78 34.6689 26.4232 35.2848 24.0687 35.0647C21.7142 34.8446 19.5123 33.8025 17.8494 32.1212C16.1865 30.4398 15.1687 28.2267 14.9745 25.8699L14.312 26.7349C14.2828 26.7734 14.245 26.8045 14.2016 26.8258C14.1582 26.8471 14.1104 26.8579 14.062 26.8574C13.9936 26.8574 13.9271 26.8355 13.872 26.7949C13.8063 26.744 13.7634 26.6692 13.7527 26.5867C13.7419 26.5043 13.7641 26.421 13.8145 26.3549L14.9995 24.8099L15.0145 24.7974C15.0294 24.7812 15.0462 24.7669 15.0645 24.7549C15.0787 24.7418 15.0947 24.7309 15.112 24.7224L15.1645 24.7049C15.1852 24.7016 15.2063 24.7016 15.227 24.7049H15.247C15.2595 24.7035 15.2721 24.7035 15.2845 24.7049C15.3053 24.7023 15.3263 24.7023 15.347 24.7049L15.4045 24.7324L15.437 24.7499L16.9845 25.9349C17.0508 25.9853 17.0944 26.06 17.1057 26.1425C17.1169 26.225 17.0949 26.3086 17.0445 26.3749C16.9941 26.4412 16.9195 26.4848 16.837 26.496C16.7544 26.5073 16.6708 26.4853 16.6045 26.4349L15.5845 25.6549C15.7395 27.8756 16.6744 29.9702 18.2239 31.5685C19.7735 33.1668 21.838 34.1661 24.0529 34.3898C26.2678 34.6136 28.4905 34.0473 30.3283 32.7912C32.1662 31.535 33.501 29.6698 34.097 27.5249C34.1192 27.445 34.1723 27.3772 34.2445 27.3364C34.3167 27.2956 34.4021 27.2852 34.482 27.3074C34.5619 27.3296 34.6297 27.3826 34.6705 27.4548C34.7113 27.527 34.7217 27.6125 34.6995 27.6924L34.7095 27.7149Z"/>
</mask>
<path d="M24.9995 27.9199C25.5771 27.9199 26.1416 27.7486 26.6218 27.4278C27.102 27.1069 27.4763 26.6509 27.6973 26.1173C27.9183 25.5838 27.9761 24.9967 27.8634 24.4302C27.7508 23.8638 27.4727 23.3435 27.0643 22.9351C26.6559 22.5268 26.1356 22.2487 25.5692 22.136C25.0028 22.0233 24.4157 22.0812 23.8821 22.3022C23.3485 22.5232 22.8925 22.8974 22.5716 23.3776C22.2508 23.8578 22.0795 24.4224 22.0795 24.9999C22.0802 25.7741 22.388 26.5165 22.9355 27.0639C23.483 27.6114 24.2253 27.9192 24.9995 27.9199ZM24.9995 22.7049C25.4534 22.7049 25.8972 22.8395 26.2746 23.0917C26.652 23.3438 26.9461 23.7023 27.1198 24.1216C27.2935 24.541 27.339 25.0024 27.2504 25.4476C27.1619 25.8928 26.9433 26.3017 26.6223 26.6227C26.3014 26.9437 25.8925 27.1622 25.4473 27.2508C25.0021 27.3393 24.5406 27.2939 24.1213 27.1202C23.7019 26.9465 23.3435 26.6523 23.0913 26.2749C22.8391 25.8975 22.7045 25.4538 22.7045 24.9999C22.7052 24.3914 22.9472 23.8081 23.3775 23.3778C23.8077 22.9476 24.3911 22.7056 24.9995 22.7049ZM18.2495 23.4999C18.1751 23.5107 18.1071 23.548 18.0579 23.605C18.0088 23.6619 17.9819 23.7347 17.982 23.8099V26.2099C17.9865 26.2816 18.0155 26.3496 18.0642 26.4024C18.113 26.4553 18.1784 26.4897 18.2495 26.4999L19.647 26.6999C19.739 27.0036 19.857 27.2989 19.9995 27.5824L19.152 28.7124C19.1073 28.7726 19.0857 28.8469 19.0912 28.9217C19.0967 28.9965 19.129 29.0669 19.182 29.1199L20.8795 30.8174C20.9325 30.8705 21.0029 30.9027 21.0777 30.9082C21.1525 30.9137 21.2268 30.8921 21.287 30.8474L22.417 29.9999C22.697 30.1454 22.9889 30.2666 23.2895 30.3624L23.4995 31.7499C23.5104 31.8243 23.5477 31.8923 23.6046 31.9415C23.6616 31.9906 23.7343 32.0176 23.8095 32.0174H26.2095C26.2813 32.0129 26.3493 31.9839 26.4021 31.9352C26.4549 31.8865 26.4893 31.821 26.4995 31.7499L26.6995 30.3524C27.0033 30.2604 27.2985 30.1425 27.582 29.9999L28.712 30.8474C28.7722 30.8921 28.8465 30.9137 28.9214 30.9082C28.9962 30.9027 29.0665 30.8705 29.1195 30.8174L30.817 29.1199C30.8701 29.0669 30.9024 28.9965 30.9079 28.9217C30.9134 28.8469 30.8918 28.7726 30.847 28.7124L29.9995 27.5824C30.145 27.3024 30.2663 27.0105 30.362 26.7099L31.7495 26.4999C31.824 26.4891 31.892 26.4518 31.9411 26.3948C31.9903 26.3379 32.0172 26.2651 32.017 26.1899V23.7999C32.0149 23.7264 31.9868 23.6561 31.9379 23.6012C31.889 23.5463 31.8223 23.5104 31.7495 23.4999L30.352 23.2999C30.26 22.9962 30.1421 22.7009 29.9995 22.4174L30.847 21.2874C30.8918 21.2272 30.9134 21.1529 30.9079 21.0781C30.9024 21.0032 30.8701 20.9329 30.817 20.8799L29.1195 19.1824C29.0665 19.1293 28.9962 19.0971 28.9214 19.0916C28.8465 19.0861 28.7722 19.1076 28.712 19.1524L27.582 19.9999C27.3021 19.8544 27.0102 19.7331 26.7095 19.6374L26.4995 18.2499C26.4887 18.1755 26.4514 18.1074 26.3944 18.0583C26.3375 18.0092 26.2647 17.9822 26.1895 17.9824H23.7995C23.7261 17.9846 23.6557 18.0126 23.6008 18.0615C23.546 18.1104 23.5101 18.1771 23.4995 18.2499L23.2995 19.6474C22.9958 19.7394 22.7006 19.8573 22.417 19.9999L21.287 19.1524C21.2268 19.1076 21.1525 19.0861 21.0777 19.0916C21.0029 19.0971 20.9325 19.1293 20.8795 19.1824L19.182 20.8799C19.129 20.9329 19.0967 21.0032 19.0912 21.0781C19.0857 21.1529 19.1073 21.2272 19.152 21.2874L19.9995 22.4174C19.8541 22.6974 19.7328 22.9893 19.637 23.2899L18.2495 23.4999ZM20.1895 23.6649C20.2983 23.278 20.4528 22.9054 20.6495 22.5549C20.6797 22.502 20.6938 22.4415 20.6903 22.3807C20.6867 22.3199 20.6656 22.2614 20.6295 22.2124L19.8245 21.1399L21.1395 19.8249L22.212 20.6299C22.2608 20.6666 22.3193 20.688 22.3803 20.6916C22.4412 20.6952 22.5018 20.6806 22.5545 20.6499C22.905 20.4531 23.2776 20.2987 23.6645 20.1899C23.7223 20.1746 23.7743 20.1428 23.8142 20.0984C23.8542 20.054 23.8804 19.9989 23.8895 19.9399L24.0795 18.6124H25.9395L26.1295 19.9399C26.1387 19.9989 26.1649 20.054 26.2048 20.0984C26.2448 20.1428 26.2968 20.1746 26.3545 20.1899C26.7415 20.2987 27.1141 20.4531 27.4645 20.6499C27.5174 20.68 27.578 20.6942 27.6387 20.6906C27.6995 20.6871 27.758 20.666 27.807 20.6299L28.8795 19.8249L30.1945 21.1399L29.3895 22.2124C29.3535 22.2614 29.3324 22.3199 29.3288 22.3807C29.3253 22.4415 29.3394 22.502 29.3695 22.5549C29.5663 22.9054 29.7207 23.278 29.8295 23.6649C29.8448 23.7226 29.8766 23.7746 29.921 23.8146C29.9654 23.8546 30.0205 23.8807 30.0795 23.8899L31.407 24.0799V25.9399L30.0795 26.1299C30.0205 26.1391 29.9654 26.1652 29.921 26.2052C29.8766 26.2451 29.8448 26.2972 29.8295 26.3549C29.7207 26.7418 29.5663 27.1144 29.3695 27.4649C29.3394 27.5178 29.3253 27.5783 29.3288 27.6391C29.3324 27.6999 29.3535 27.7583 29.3895 27.8074L30.1945 28.8799L28.8795 30.1949L27.807 29.3899C27.758 29.3538 27.6995 29.3327 27.6387 29.3292C27.578 29.3256 27.5174 29.3398 27.4645 29.3699C27.1141 29.5667 26.7415 29.7211 26.3545 29.8299C26.2968 29.8452 26.2448 29.877 26.2048 29.9214C26.1649 29.9658 26.1387 30.0209 26.1295 30.0799L25.9395 31.4074H24.0695L23.8795 30.0799C23.8704 30.0209 23.8442 29.9658 23.8042 29.9214C23.7643 29.877 23.7123 29.8452 23.6545 29.8299C23.2676 29.7211 22.895 29.5667 22.5445 29.3699C22.4916 29.3398 22.4311 29.3256 22.3703 29.3292C22.3095 29.3327 22.2511 29.3538 22.202 29.3899L21.1295 30.1949L19.8145 28.8799L20.6195 27.8074C20.6556 27.7583 20.6767 27.6999 20.6803 27.6391C20.6838 27.5783 20.6697 27.5178 20.6395 27.4649C20.4428 27.1144 20.2883 26.7418 20.1795 26.3549C20.1642 26.2972 20.1324 26.2451 20.088 26.2052C20.0436 26.1652 19.9886 26.1391 19.9295 26.1299L18.602 25.9399V24.0699L19.9295 23.8799C19.9886 23.8707 20.0436 23.8446 20.088 23.8046C20.1324 23.7646 20.1642 23.7126 20.1795 23.6549L20.1895 23.6649ZM36.137 23.2149C36.2027 23.2658 36.2456 23.3406 36.2564 23.423C36.2672 23.5055 36.2449 23.5888 36.1945 23.6549L34.9995 25.1899L34.9795 25.2124L34.9645 25.2274C34.938 25.2502 34.9086 25.2696 34.877 25.2849H34.862C34.8269 25.2986 34.7897 25.3062 34.752 25.3074C34.7134 25.3072 34.6752 25.2996 34.6395 25.2849L34.6045 25.2674C34.5895 25.2674 34.5745 25.2524 34.562 25.2424L33.0145 24.0574C32.9482 24.007 32.9047 23.9323 32.8934 23.8498C32.8822 23.7673 32.9041 23.6837 32.9545 23.6174C33.0049 23.5511 33.0796 23.5075 33.1621 23.4963C33.2446 23.485 33.3282 23.507 33.3945 23.5574L34.4145 24.3374C34.2521 22.1233 33.3145 20.0373 31.7665 18.446C30.2185 16.8546 28.1592 15.8598 25.9505 15.6362C23.7417 15.4127 21.5248 15.9747 19.6894 17.2236C17.8539 18.4725 16.5174 20.3283 15.9145 22.4649C15.9035 22.5045 15.8849 22.5415 15.8596 22.5738C15.8343 22.6061 15.8028 22.6332 15.7671 22.6534C15.7313 22.6736 15.6919 22.6865 15.6512 22.6915C15.6104 22.6965 15.5691 22.6934 15.5295 22.6824C15.49 22.6714 15.453 22.6527 15.4206 22.6274C15.3883 22.6021 15.3612 22.5707 15.341 22.5349C15.3003 22.4627 15.2898 22.3773 15.312 22.2974C15.9434 20.0246 17.353 18.0457 19.2947 16.7063C21.2365 15.3668 23.587 14.7519 25.9358 14.969C28.2847 15.186 30.4828 16.2211 32.1462 17.8937C33.8097 19.5662 34.8328 21.7699 35.037 24.1199L35.6995 23.2549C35.7512 23.1939 35.824 23.1548 35.9034 23.1455C35.9828 23.1362 36.0627 23.1574 36.127 23.2049L36.137 23.2149ZM34.7095 27.7149C34.0819 29.9948 32.6715 31.981 30.7257 33.3249C28.78 34.6689 26.4232 35.2848 24.0687 35.0647C21.7142 34.8446 19.5123 33.8025 17.8494 32.1212C16.1865 30.4398 15.1687 28.2267 14.9745 25.8699L14.312 26.7349C14.2828 26.7734 14.245 26.8045 14.2016 26.8258C14.1582 26.8471 14.1104 26.8579 14.062 26.8574C13.9936 26.8574 13.9271 26.8355 13.872 26.7949C13.8063 26.744 13.7634 26.6692 13.7527 26.5867C13.7419 26.5043 13.7641 26.421 13.8145 26.3549L14.9995 24.8099L15.0145 24.7974C15.0294 24.7812 15.0462 24.7669 15.0645 24.7549C15.0787 24.7418 15.0947 24.7309 15.112 24.7224L15.1645 24.7049C15.1852 24.7016 15.2063 24.7016 15.227 24.7049H15.247C15.2595 24.7035 15.2721 24.7035 15.2845 24.7049C15.3053 24.7023 15.3263 24.7023 15.347 24.7049L15.4045 24.7324L15.437 24.7499L16.9845 25.9349C17.0508 25.9853 17.0944 26.06 17.1057 26.1425C17.1169 26.225 17.0949 26.3086 17.0445 26.3749C16.9941 26.4412 16.9195 26.4848 16.837 26.496C16.7544 26.5073 16.6708 26.4853 16.6045 26.4349L15.5845 25.6549C15.7395 27.8756 16.6744 29.9702 18.2239 31.5685C19.7735 33.1668 21.838 34.1661 24.0529 34.3898C26.2678 34.6136 28.4905 34.0473 30.3283 32.7912C32.1662 31.535 33.501 29.6698 34.097 27.5249C34.1192 27.445 34.1723 27.3772 34.2445 27.3364C34.3167 27.2956 34.4021 27.2852 34.482 27.3074C34.5619 27.3296 34.6297 27.3826 34.6705 27.4548C34.7113 27.527 34.7217 27.6125 34.6995 27.6924L34.7095 27.7149Z" fill="#146EF5"/>
<path d="M24.9995 27.9199C25.5771 27.9199 26.1416 27.7486 26.6218 27.4278C27.102 27.1069 27.4763 26.6509 27.6973 26.1173C27.9183 25.5838 27.9761 24.9967 27.8634 24.4302C27.7508 23.8638 27.4727 23.3435 27.0643 22.9351C26.6559 22.5268 26.1356 22.2487 25.5692 22.136C25.0028 22.0233 24.4157 22.0812 23.8821 22.3022C23.3485 22.5232 22.8925 22.8974 22.5716 23.3776C22.2508 23.8578 22.0795 24.4224 22.0795 24.9999C22.0802 25.7741 22.388 26.5165 22.9355 27.0639C23.483 27.6114 24.2253 27.9192 24.9995 27.9199ZM24.9995 22.7049C25.4534 22.7049 25.8972 22.8395 26.2746 23.0917C26.652 23.3438 26.9461 23.7023 27.1198 24.1216C27.2935 24.541 27.339 25.0024 27.2504 25.4476C27.1619 25.8928 26.9433 26.3017 26.6223 26.6227C26.3014 26.9437 25.8925 27.1622 25.4473 27.2508C25.0021 27.3393 24.5406 27.2939 24.1213 27.1202C23.7019 26.9465 23.3435 26.6523 23.0913 26.2749C22.8391 25.8975 22.7045 25.4538 22.7045 24.9999C22.7052 24.3914 22.9472 23.8081 23.3775 23.3778C23.8077 22.9476 24.3911 22.7056 24.9995 22.7049ZM18.2495 23.4999C18.1751 23.5107 18.1071 23.548 18.0579 23.605C18.0088 23.6619 17.9819 23.7347 17.982 23.8099V26.2099C17.9865 26.2816 18.0155 26.3496 18.0642 26.4024C18.113 26.4553 18.1784 26.4897 18.2495 26.4999L19.647 26.6999C19.739 27.0036 19.857 27.2989 19.9995 27.5824L19.152 28.7124C19.1073 28.7726 19.0857 28.8469 19.0912 28.9217C19.0967 28.9965 19.129 29.0669 19.182 29.1199L20.8795 30.8174C20.9325 30.8705 21.0029 30.9027 21.0777 30.9082C21.1525 30.9137 21.2268 30.8921 21.287 30.8474L22.417 29.9999C22.697 30.1454 22.9889 30.2666 23.2895 30.3624L23.4995 31.7499C23.5104 31.8243 23.5477 31.8923 23.6046 31.9415C23.6616 31.9906 23.7343 32.0176 23.8095 32.0174H26.2095C26.2813 32.0129 26.3493 31.9839 26.4021 31.9352C26.4549 31.8865 26.4893 31.821 26.4995 31.7499L26.6995 30.3524C27.0033 30.2604 27.2985 30.1425 27.582 29.9999L28.712 30.8474C28.7722 30.8921 28.8465 30.9137 28.9214 30.9082C28.9962 30.9027 29.0665 30.8705 29.1195 30.8174L30.817 29.1199C30.8701 29.0669 30.9024 28.9965 30.9079 28.9217C30.9134 28.8469 30.8918 28.7726 30.847 28.7124L29.9995 27.5824C30.145 27.3024 30.2663 27.0105 30.362 26.7099L31.7495 26.4999C31.824 26.4891 31.892 26.4518 31.9411 26.3948C31.9903 26.3379 32.0172 26.2651 32.017 26.1899V23.7999C32.0149 23.7264 31.9868 23.6561 31.9379 23.6012C31.889 23.5463 31.8223 23.5104 31.7495 23.4999L30.352 23.2999C30.26 22.9962 30.1421 22.7009 29.9995 22.4174L30.847 21.2874C30.8918 21.2272 30.9134 21.1529 30.9079 21.0781C30.9024 21.0032 30.8701 20.9329 30.817 20.8799L29.1195 19.1824C29.0665 19.1293 28.9962 19.0971 28.9214 19.0916C28.8465 19.0861 28.7722 19.1076 28.712 19.1524L27.582 19.9999C27.3021 19.8544 27.0102 19.7331 26.7095 19.6374L26.4995 18.2499C26.4887 18.1755 26.4514 18.1074 26.3944 18.0583C26.3375 18.0092 26.2647 17.9822 26.1895 17.9824H23.7995C23.7261 17.9846 23.6557 18.0126 23.6008 18.0615C23.546 18.1104 23.5101 18.1771 23.4995 18.2499L23.2995 19.6474C22.9958 19.7394 22.7006 19.8573 22.417 19.9999L21.287 19.1524C21.2268 19.1076 21.1525 19.0861 21.0777 19.0916C21.0029 19.0971 20.9325 19.1293 20.8795 19.1824L19.182 20.8799C19.129 20.9329 19.0967 21.0032 19.0912 21.0781C19.0857 21.1529 19.1073 21.2272 19.152 21.2874L19.9995 22.4174C19.8541 22.6974 19.7328 22.9893 19.637 23.2899L18.2495 23.4999ZM20.1895 23.6649C20.2983 23.278 20.4528 22.9054 20.6495 22.5549C20.6797 22.502 20.6938 22.4415 20.6903 22.3807C20.6867 22.3199 20.6656 22.2614 20.6295 22.2124L19.8245 21.1399L21.1395 19.8249L22.212 20.6299C22.2608 20.6666 22.3193 20.688 22.3803 20.6916C22.4412 20.6952 22.5018 20.6806 22.5545 20.6499C22.905 20.4531 23.2776 20.2987 23.6645 20.1899C23.7223 20.1746 23.7743 20.1428 23.8142 20.0984C23.8542 20.054 23.8804 19.9989 23.8895 19.9399L24.0795 18.6124H25.9395L26.1295 19.9399C26.1387 19.9989 26.1649 20.054 26.2048 20.0984C26.2448 20.1428 26.2968 20.1746 26.3545 20.1899C26.7415 20.2987 27.1141 20.4531 27.4645 20.6499C27.5174 20.68 27.578 20.6942 27.6387 20.6906C27.6995 20.6871 27.758 20.666 27.807 20.6299L28.8795 19.8249L30.1945 21.1399L29.3895 22.2124C29.3535 22.2614 29.3324 22.3199 29.3288 22.3807C29.3253 22.4415 29.3394 22.502 29.3695 22.5549C29.5663 22.9054 29.7207 23.278 29.8295 23.6649C29.8448 23.7226 29.8766 23.7746 29.921 23.8146C29.9654 23.8546 30.0205 23.8807 30.0795 23.8899L31.407 24.0799V25.9399L30.0795 26.1299C30.0205 26.1391 29.9654 26.1652 29.921 26.2052C29.8766 26.2451 29.8448 26.2972 29.8295 26.3549C29.7207 26.7418 29.5663 27.1144 29.3695 27.4649C29.3394 27.5178 29.3253 27.5783 29.3288 27.6391C29.3324 27.6999 29.3535 27.7583 29.3895 27.8074L30.1945 28.8799L28.8795 30.1949L27.807 29.3899C27.758 29.3538 27.6995 29.3327 27.6387 29.3292C27.578 29.3256 27.5174 29.3398 27.4645 29.3699C27.1141 29.5667 26.7415 29.7211 26.3545 29.8299C26.2968 29.8452 26.2448 29.877 26.2048 29.9214C26.1649 29.9658 26.1387 30.0209 26.1295 30.0799L25.9395 31.4074H24.0695L23.8795 30.0799C23.8704 30.0209 23.8442 29.9658 23.8042 29.9214C23.7643 29.877 23.7123 29.8452 23.6545 29.8299C23.2676 29.7211 22.895 29.5667 22.5445 29.3699C22.4916 29.3398 22.4311 29.3256 22.3703 29.3292C22.3095 29.3327 22.2511 29.3538 22.202 29.3899L21.1295 30.1949L19.8145 28.8799L20.6195 27.8074C20.6556 27.7583 20.6767 27.6999 20.6803 27.6391C20.6838 27.5783 20.6697 27.5178 20.6395 27.4649C20.4428 27.1144 20.2883 26.7418 20.1795 26.3549C20.1642 26.2972 20.1324 26.2451 20.088 26.2052C20.0436 26.1652 19.9886 26.1391 19.9295 26.1299L18.602 25.9399V24.0699L19.9295 23.8799C19.9886 23.8707 20.0436 23.8446 20.088 23.8046C20.1324 23.7646 20.1642 23.7126 20.1795 23.6549L20.1895 23.6649ZM36.137 23.2149C36.2027 23.2658 36.2456 23.3406 36.2564 23.423C36.2672 23.5055 36.2449 23.5888 36.1945 23.6549L34.9995 25.1899L34.9795 25.2124L34.9645 25.2274C34.938 25.2502 34.9086 25.2696 34.877 25.2849H34.862C34.8269 25.2986 34.7897 25.3062 34.752 25.3074C34.7134 25.3072 34.6752 25.2996 34.6395 25.2849L34.6045 25.2674C34.5895 25.2674 34.5745 25.2524 34.562 25.2424L33.0145 24.0574C32.9482 24.007 32.9047 23.9323 32.8934 23.8498C32.8822 23.7673 32.9041 23.6837 32.9545 23.6174C33.0049 23.5511 33.0796 23.5075 33.1621 23.4963C33.2446 23.485 33.3282 23.507 33.3945 23.5574L34.4145 24.3374C34.2521 22.1233 33.3145 20.0373 31.7665 18.446C30.2185 16.8546 28.1592 15.8598 25.9505 15.6362C23.7417 15.4127 21.5248 15.9747 19.6894 17.2236C17.8539 18.4725 16.5174 20.3283 15.9145 22.4649C15.9035 22.5045 15.8849 22.5415 15.8596 22.5738C15.8343 22.6061 15.8028 22.6332 15.7671 22.6534C15.7313 22.6736 15.6919 22.6865 15.6512 22.6915C15.6104 22.6965 15.5691 22.6934 15.5295 22.6824C15.49 22.6714 15.453 22.6527 15.4206 22.6274C15.3883 22.6021 15.3612 22.5707 15.341 22.5349C15.3003 22.4627 15.2898 22.3773 15.312 22.2974C15.9434 20.0246 17.353 18.0457 19.2947 16.7063C21.2365 15.3668 23.587 14.7519 25.9358 14.969C28.2847 15.186 30.4828 16.2211 32.1462 17.8937C33.8097 19.5662 34.8328 21.7699 35.037 24.1199L35.6995 23.2549C35.7512 23.1939 35.824 23.1548 35.9034 23.1455C35.9828 23.1362 36.0627 23.1574 36.127 23.2049L36.137 23.2149ZM34.7095 27.7149C34.0819 29.9948 32.6715 31.981 30.7257 33.3249C28.78 34.6689 26.4232 35.2848 24.0687 35.0647C21.7142 34.8446 19.5123 33.8025 17.8494 32.1212C16.1865 30.4398 15.1687 28.2267 14.9745 25.8699L14.312 26.7349C14.2828 26.7734 14.245 26.8045 14.2016 26.8258C14.1582 26.8471 14.1104 26.8579 14.062 26.8574C13.9936 26.8574 13.9271 26.8355 13.872 26.7949C13.8063 26.744 13.7634 26.6692 13.7527 26.5867C13.7419 26.5043 13.7641 26.421 13.8145 26.3549L14.9995 24.8099L15.0145 24.7974C15.0294 24.7812 15.0462 24.7669 15.0645 24.7549C15.0787 24.7418 15.0947 24.7309 15.112 24.7224L15.1645 24.7049C15.1852 24.7016 15.2063 24.7016 15.227 24.7049H15.247C15.2595 24.7035 15.2721 24.7035 15.2845 24.7049C15.3053 24.7023 15.3263 24.7023 15.347 24.7049L15.4045 24.7324L15.437 24.7499L16.9845 25.9349C17.0508 25.9853 17.0944 26.06 17.1057 26.1425C17.1169 26.225 17.0949 26.3086 17.0445 26.3749C16.9941 26.4412 16.9195 26.4848 16.837 26.496C16.7544 26.5073 16.6708 26.4853 16.6045 26.4349L15.5845 25.6549C15.7395 27.8756 16.6744 29.9702 18.2239 31.5685C19.7735 33.1668 21.838 34.1661 24.0529 34.3898C26.2678 34.6136 28.4905 34.0473 30.3283 32.7912C32.1662 31.535 33.501 29.6698 34.097 27.5249C34.1192 27.445 34.1723 27.3772 34.2445 27.3364C34.3167 27.2956 34.4021 27.2852 34.482 27.3074C34.5619 27.3296 34.6297 27.3826 34.6705 27.4548C34.7113 27.527 34.7217 27.6125 34.6995 27.6924L34.7095 27.7149Z" stroke="#146EF5" stroke-width="0.6" mask="url(#path-2-outside-1_2957_2580)"/>
</svg>
