<svg width="60" height="40" viewBox="0 0 60 40" fill="none" xmlns="http://www.w3.org/2000/svg">
<g clip-path="url(#clip0_1832_2630)">
<rect x="0.5" y="0.5" width="59" height="39" rx="2.5" fill="white"/>
<rect x="0.5" y="0.5" width="59" height="39" rx="2.5" stroke="#D7EBFF"/>
<path d="M45.2844 23.6083C47.277 15.1696 42.0515 6.71334 33.6128 4.7207C25.1741 2.72805 16.7178 7.9536 14.7252 16.3923C12.7325 24.831 17.9581 33.2872 26.3968 35.2799C34.8355 37.2725 43.2917 32.047 45.2844 23.6083Z" fill="#5F259F"/>
<path d="M37.1214 15.9039C37.1214 15.2899 36.5951 14.7637 35.9811 14.7637H33.8761L29.0522 9.23803C28.6136 8.71178 27.912 8.53636 27.2103 8.71178L25.5439 9.23803C25.2807 9.32574 25.193 9.67657 25.3684 9.85199L30.6309 14.8514H22.6495C22.3864 14.8514 22.2109 15.0268 22.2109 15.2899V16.167C22.2109 16.7809 22.7372 17.3072 23.3511 17.3072H24.5791V21.5172C24.5791 24.6747 26.2455 26.5166 29.0522 26.5166C29.9293 26.5166 30.6309 26.4289 31.508 26.078V28.8847C31.508 29.6741 32.122 30.288 32.9114 30.288H34.1393C34.4024 30.288 34.6655 30.0249 34.6655 29.7618V17.2195H36.6828C36.9459 17.2195 37.1214 17.0441 37.1214 16.7809V15.9039ZM31.508 23.4468C30.9818 23.7099 30.2801 23.7976 29.7539 23.7976C28.3505 23.7976 27.6489 23.0959 27.6489 21.5172V17.3072H31.508V23.4468Z" fill="white"/>
</g>
<defs>
<clipPath id="clip0_1832_2630">
<rect width="60" height="40" fill="white"/>
</clipPath>
</defs>
</svg>
