<svg xmlns="http://www.w3.org/2000/svg" width="60" height="40" fill="none" xmlns:v="https://vecta.io/nano"><g clip-path="url(#A)"><path d="M57 .5H3A2.5 2.5 0 0 0 .5 3v34A2.5 2.5 0 0 0 3 39.5h54a2.5 2.5 0 0 0 2.5-2.5V3A2.5 2.5 0 0 0 57 .5z" fill="#fff" stroke="#d7ebff"/><path d="M50.923 14.906l2.626 5.259-5.521 5.262 2.895-10.521z" fill="#008c44"/><path d="M49.105 14.906l2.622 5.259-5.517 5.262 2.895-10.521z" fill="#f47920"/><g fill="#1b3281"><path d="M7 23.514L9.618 14h4.186c1.308 0 2.182.209 2.627.639s.526 1.124.26 2.104c-.161.577-.406 1.061-.742 1.444s-.773.687-1.314.909c.459.111.751.333.882.664s.115.815-.043 1.449l-.319 1.329-.001.036c-.092.372-.065.571.085.587l-.096.352h-2.832l.046-.592a2.95 2.95 0 0 1 .071-.397l.264-.95c.133-.494.141-.839.018-1.037-.125-.204-.404-.304-.844-.304h-1.19l-.908 3.28H7zm4.267-5.424h1.275c.447 0 .776-.064.979-.197s.356-.361.445-.689.069-.566-.063-.698-.448-.199-.944-.199h-1.201l-.491 1.783zm13.197-1.597l-1.93 7.021h-2.346l.288-1.029c-.413.409-.835.72-1.261.918a3.06 3.06 0 0 1-1.338.301c-.388 0-.721-.071-.989-.212a1.36 1.36 0 0 1-.609-.635c-.121-.247-.173-.551-.153-.914.022-.358.147-.962.379-1.807l1-3.643h2.566l-.998 3.626c-.146.531-.181.904-.11 1.107s.272.311.593.311a1.08 1.08 0 0 0 .82-.359c.225-.241.403-.595.536-1.069l.99-3.616h2.562zm-.931 7.021L26.149 14h3.598c.794 0 1.408.047 1.847.151s.78.261 1.035.488a1.95 1.95 0 0 1 .596 1.108c.081.442.031.957-.135 1.561-.293 1.064-.807 1.879-1.539 2.448-.734.562-1.643.845-2.727.845H27.14l-.8 2.913h-2.807zm4.244-5.236h.905c.585 0 .996-.073 1.237-.213.233-.142.399-.396.5-.756s.075-.62-.078-.762c-.147-.142-.523-.214-1.124-.214h-.903l-.538 1.945z"/><path d="M36.108 23.515l.026-.667c-.414.312-.833.549-1.254.696a3.95 3.95 0 0 1-1.345.227c-.727 0-1.234-.199-1.527-.585s-.337-.941-.14-1.648c.189-.698.525-1.212 1.011-1.541s1.288-.57 2.418-.723l.576-.072c.835-.098 1.305-.322 1.406-.689.053-.2.021-.349-.103-.439s-.342-.141-.663-.141c-.267 0-.481.056-.657.172s-.307.288-.396.529h-2.502c.226-.79.687-1.387 1.38-1.787.69-.406 1.601-.602 2.728-.602.53 0 1.005.05 1.425.159s.728.252.927.432a1.28 1.28 0 0 1 .432.761c.048.282-.005.685-.151 1.213l-1.076 3.914c-.034.128-.041.242-.022.346a.39.39 0 0 0 .141.245l-.058.198h-2.576zm.624-3.135a9.29 9.29 0 0 1-1.067.332c-.691.187-1.08.436-1.164.745-.058.198-.035.351.062.468.095.11.26.166.492.166.426 0 .768-.109 1.023-.323s.447-.558.581-1.029l.057-.226.017-.134zm1.972 5.901l.569-2.078h.734c.245 0 .438-.049.575-.138s.233-.248.288-.458a1.65 1.65 0 0 0 .055-.3c.007-.117.007-.241 0-.384l-.392-6.429h2.597l-.04 4.26 2.267-4.26h2.415l-4.008 6.987-.995 1.61c-.207.289-.404.514-.595.666a2.22 2.22 0 0 1-.822.447c-.299.089-.754.133-1.365.133a11.29 11.29 0 0 1-.598-.015l-.687-.041z"/></g></g><defs><clipPath id="A"><path fill="#fff" d="M0 0h60v40H0z"/></clipPath></defs></svg>