<svg xmlns="http://www.w3.org/2000/svg" width="50" height="50" fill="none" xmlns:v="https://vecta.io/nano"><g clip-path="url(#A)" fill="#ff7246"><path d="M23.958 10.417h-1.042c-1.149 0-2.083-.934-2.083-2.083V1.042a1.04 1.04 0 1 0-2.083 0v7.292a4.17 4.17 0 0 0 4.167 4.167h1.042a1.04 1.04 0 1 0 0-2.083z"/><path d="M30.945 10.722L20.528.306A1.04 1.04 0 0 0 19.792 0H4.167A4.17 4.17 0 0 0 0 4.167v25a4.17 4.17 0 0 0 4.167 4.167h22.917a4.17 4.17 0 0 0 4.167-4.167V11.459a1.04 1.04 0 0 0-.305-.736zm-1.778 18.445c0 1.149-.934 2.083-2.083 2.083H4.167c-1.149 0-2.083-.934-2.083-2.083v-25c0-1.149.934-2.083 2.083-2.083H19.36l9.806 9.806v17.277zm13.541-2.083h-1.042c-1.149 0-2.083-.934-2.083-2.083v-7.292a1.041 1.041 0 1 0-2.083 0V25a4.17 4.17 0 0 0 4.167 4.167h1.042a1.041 1.041 0 1 0 0-2.083z"/><path d="M49.695 27.389L39.278 16.972c-.195-.196-.459-.305-.736-.305h-4.167a1.041 1.041 0 1 0 0 2.083h3.735l9.806 9.806v17.277c0 1.149-.934 2.083-2.083 2.083H22.917c-1.149 0-2.083-.934-2.083-2.083v-9.375a1.041 1.041 0 1 0-2.083 0v9.375A4.17 4.17 0 0 0 22.917 50h22.917A4.17 4.17 0 0 0 50 45.834V28.125a1.04 1.04 0 0 0-.305-.736zM34.804 4.167l2.389-2.389a1.04 1.04 0 0 0 0-1.473 1.04 1.04 0 0 0-1.473 0L32.595 3.43a1.04 1.04 0 0 0 0 1.473l3.125 3.125a1.04 1.04 0 1 0 1.473-1.473l-2.389-2.388z"/><path d="M41.664 3.125h-8.333a1.042 1.042 0 1 0 0 2.083h8.333c.348 0 2.083.1 2.083 2.083v8.333a1.041 1.041 0 1 0 2.083 0V7.292c0-3.057-2.493-4.167-4.167-4.167zM15.318 45.097l-3.125-3.125a1.042 1.042 0 1 0-1.473 1.473l2.389 2.389-2.389 2.389a1.04 1.04 0 1 0 1.472 1.472l3.125-3.125a1.04 1.04 0 0 0 0-1.473z"/><path d="M14.586 44.791H6.253c-.348 0-2.083-.1-2.083-2.083v-6.25a1.04 1.04 0 1 0-2.083 0v6.25c0 3.057 2.492 4.167 4.167 4.167h8.333a1.04 1.04 0 1 0 0-2.083z"/></g><defs><clipPath id="A"><path fill="#fff" d="M0 0h50v50H0z"/></clipPath></defs></svg>