<svg xmlns="http://www.w3.org/2000/svg" xmlns:xlink="http://www.w3.org/1999/xlink" width="50" height="50" fill="none" xmlns:v="https://vecta.io/nano"><g fill="#466eff"><path d="M25.023 43.3h-5.039a.8.8 0 0 1-.8-.8v-5.142a12.67 12.67 0 0 1-3.071-1.273l-3.637 3.636a.8.8 0 0 1-.566.234.8.8 0 0 1-.566-.234l-3.562-3.562a.8.8 0 0 1-.234-.566.8.8 0 0 1 .234-.566l3.636-3.637c-.557-.963-.985-1.996-1.273-3.071H5.003a.8.8 0 0 1-.8-.8v-5.039a.8.8 0 0 1 .8-.8h5.142c.288-1.075.716-2.108 1.273-3.071l-3.636-3.637a.8.8 0 0 1-.234-.566.8.8 0 0 1 .234-.566l3.562-3.562a.8.8 0 0 1 .566-.234.8.8 0 0 1 .566.234l3.637 3.636a12.67 12.67 0 0 1 3.071-1.273V7.5a.8.8 0 0 1 .8-.8h5.039a.8.8 0 0 1 .8.8v35a.8.8 0 0 1-.8.8zm-4.239-1.6h3.439V8.3h-3.439v4.972a.8.8 0 0 1-.631.783 11.09 11.09 0 0 0-3.726 1.545.8.8 0 0 1-1-.106l-3.516-3.516-2.431 2.431 3.516 3.516a.8.8 0 0 1 .106 1 11.09 11.09 0 0 0-1.544 3.725.8.8 0 0 1-.783.632H5.803v3.439h4.972a.8.8 0 0 1 .783.629 11.09 11.09 0 0 0 1.545 3.726.8.8 0 0 1-.106 1l-3.516 3.517 2.431 2.431 3.516-3.516a.8.8 0 0 1 1-.106 11.09 11.09 0 0 0 3.724 1.544.8.8 0 0 1 .633.782l-.002 4.972z"/><path d="M22.589 33.675c-4.783 0-8.675-3.891-8.675-8.675s3.891-8.675 8.675-8.675a8.65 8.65 0 0 1 2.68.425.8.8 0 0 1 .553.761v14.981a.8.8 0 0 1-.553.758 8.65 8.65 0 0 1-2.68.425zm0-15.75c-3.9 0-7.075 3.174-7.075 7.075s3.174 7.075 7.075 7.075a7.08 7.08 0 0 0 1.632-.19V18.115a7.08 7.08 0 0 0-1.632-.189z"/><path d="M41.749 25.806h-16.73a.8.8 0 1 1 0-1.6H41.75a.8.8 0 1 1 0 1.6zm-9.242-10.5h-7.488a.8.8 0 1 1 0-1.6h6.688V8.25a.8.8 0 0 1 1.6 0v6.256a.8.8 0 0 1-.8.8zm0 27.244a.8.8 0 0 1-.8-.8v-5.444h-6.688a.8.8 0 0 1 0-1.6h7.488a.8.8 0 0 1 .8.8v6.244a.8.8 0 0 1-.8.8z"/><use xlink:href="#B"/><path d="M25.019 20.556a.8.8 0 0 1-.8-.8.8.8 0 0 1 .8-.8h11.939l4.75-4.75a.8.8 0 0 1 .568-.242.8.8 0 0 1 .572.234.8.8 0 0 1 .234.572.8.8 0 0 1-.243.568l-4.985 4.985a.8.8 0 0 1-.566.235l-12.27-.001z"/><path d="M43.376 16.095c-.561 0-1.104-.195-1.538-.551s-.73-.851-.839-1.401-.024-1.121.241-1.615.693-.882 1.211-1.096 1.095-.242 1.631-.079 1 .507 1.311.974.451 1.027.396 1.585-.302 1.08-.699 1.476c-.225.225-.492.404-.787.526a2.42 2.42 0 0 1-.928.183zm0-3.25c-.191 0-.376.066-.523.187s-.248.29-.286.477-.008.381.082.55.236.3.412.373.373.082.555.027.34-.172.446-.331.154-.349.135-.539-.103-.367-.238-.502a.82.82 0 0 0-.584-.24v-.002z"/><use xlink:href="#B" y="36.75"/><path d="M42.225 36.041c-.105 0-.209-.02-.306-.061a.8.8 0 0 1-.259-.174l-4.75-4.75H25.019a.8.8 0 0 1-.8-.8.8.8 0 0 1 .8-.8H37.24a.8.8 0 0 1 .566.234l4.985 4.986a.8.8 0 0 1 .173.872.8.8 0 0 1-.739.494v-.001z"/><path d="M43.378 38.814c-.399 0-.791-.098-1.143-.286a2.42 2.42 0 0 1-.873-.791 2.43 2.43 0 0 1-.397-1.11c-.039-.397.02-.797.173-1.166s.394-.693.702-.946.674-.426 1.065-.504a2.42 2.42 0 0 1 1.177.058c.382.116.729.324 1.011.606a2.43 2.43 0 0 1 .664 1.242c.094.471.046.958-.138 1.401a2.43 2.43 0 0 1-.893 1.088c-.398.266-.868.408-1.347.408h0zm0-3.25c-.191 0-.375.067-.523.188a.82.82 0 0 0-.285.477c-.037.187-.008.381.082.549s.236.3.412.373.372.082.555.027.34-.173.446-.331a.83.83 0 0 0 .135-.539.82.82 0 0 0-.238-.502.83.83 0 0 0-.584-.24v-.002zm0-8.133a2.42 2.42 0 0 1-1.347-.409c-.399-.267-.71-.645-.893-1.088s-.232-.931-.138-1.401.325-.902.664-1.242a2.42 2.42 0 0 1 1.242-.664c.471-.094.958-.046 1.401.138s.822.494 1.088.893a2.43 2.43 0 0 1-2.016 3.772zm0-3.25a.82.82 0 0 0-.458.139.84.84 0 0 0-.304.37.82.82 0 0 0 .179.899.83.83 0 0 0 .899.179c.151-.062.28-.168.37-.304a.83.83 0 0 0 .139-.458c0-.219-.087-.428-.242-.583s-.364-.242-.583-.242z"/></g><defs ><path id="B" d="M32.511 9.05c-.48 0-.948-.142-1.347-.409s-.71-.645-.893-1.088-.231-.931-.138-1.401.325-.902.664-1.242.771-.57 1.242-.664.958-.046 1.401.138.822.494 1.088.893.409.868.409 1.347a2.43 2.43 0 0 1-2.425 2.425zm0-3.25c-.163 0-.323.048-.458.139s-.241.22-.304.37-.079.317-.047.477.11.307.226.422.262.194.422.226.326.016.477-.047.279-.168.37-.304.139-.295.139-.458c0-.219-.087-.428-.242-.583s-.364-.242-.583-.242z"/></defs></svg>