<svg xmlns="http://www.w3.org/2000/svg" width="50" height="50" fill="none" xmlns:v="https://vecta.io/nano"><rect width="50" height="50" rx="25" fill="#f5f8fc"/><g fill="#146ef5"><path d="M35 19.102a1.76 1.76 0 0 1-1.758 1.758H16.758A1.76 1.76 0 0 1 15 19.102v-2.344A1.76 1.76 0 0 1 16.758 15h16.484A1.76 1.76 0 0 1 35 16.758v2.344zm-18.242-2.93c-.323 0-.586.263-.586.586v2.344c0 .323.263.586.586.586h16.484c.323 0 .586-.263.586-.586v-2.344c0-.323-.263-.586-.586-.586H16.758z"/><use href="#B"/><use href="#B" x="2.343"/><use href="#B" x="4.687"/><path d="M32.656 17.93c0 .324-.262.586-.586.586h-4.688c-.324 0-.586-.262-.586-.586s.262-.586.586-.586h4.688c.324 0 .586.262.586.586zM35 26.172a1.76 1.76 0 0 1-1.758 1.758H16.758A1.76 1.76 0 0 1 15 26.172v-2.344a1.76 1.76 0 0 1 1.758-1.758h16.484A1.76 1.76 0 0 1 35 23.828v2.344zm-18.242-2.93c-.323 0-.586.263-.586.586v2.344c0 .323.263.586.586.586h16.484c.323 0 .586-.263.586-.586v-2.344c0-.323-.263-.586-.586-.586H16.758z"/><use href="#B" y="7.07"/><use href="#B" x="2.343" y="7.07"/><use href="#B" x="4.687" y="7.07"/><use href="#C"/><path d="M33.242 35H16.758A1.76 1.76 0 0 1 15 33.242v-2.344a1.76 1.76 0 0 1 1.758-1.758h16.484A1.76 1.76 0 0 1 35 30.898v2.344A1.76 1.76 0 0 1 33.242 35zm-16.484-4.687c-.323 0-.586.263-.586.586v2.344c0 .323.263.586.586.586h16.484c.323 0 .586-.263.586-.586v-2.344c0-.323-.263-.586-.586-.586H16.758z"/><use href="#B" y="14.14"/><use href="#B" x="2.343" y="14.14"/><use href="#B" x="4.687" y="14.14"/><use href="#C" y="7.07"/></g><defs ><path id="B" d="M17.93 18.516c.324 0 .586-.262.586-.586s-.262-.586-.586-.586-.586.262-.586.586.262.586.586.586z"/><path id="C" d="M32.07 25.586h-4.688c-.324 0-.586-.262-.586-.586s.262-.586.586-.586h4.688c.324 0 .586.262.586.586s-.262.586-.586.586z"/></defs></svg>