<svg width="50" height="50" viewBox="0 0 50 50" fill="none" xmlns="http://www.w3.org/2000/svg">
<rect width="50" height="50" rx="25" fill="#F5EEFF"/>
<path d="M23.3433 36.7065C23.3427 36.7065 23.342 36.7065 23.3413 36.7065C22.6079 36.706 21.9182 36.4199 21.3998 35.9006L14.0979 28.5882C13.0299 27.5182 13.0299 25.7771 14.0979 24.7073L23.941 14.8453C24.9553 13.8289 26.305 13.269 27.7413 13.269H33.9861C35.5005 13.269 36.7327 14.501 36.7327 16.0156V22.2414C36.7327 23.6766 36.1734 25.0257 35.158 26.0399L25.2843 35.9033C24.7656 36.4213 24.0763 36.7065 23.3433 36.7065ZM27.7413 15.1001C26.7948 15.1001 25.9055 15.469 25.237 16.1388L15.3938 26.0007C15.0377 26.3575 15.0377 26.9377 15.3938 27.2945L22.6957 34.6068C22.8684 34.7798 23.0981 34.8753 23.3427 34.8755H23.3434C23.5878 34.8755 23.8175 34.7804 23.9903 34.6078L33.864 24.7446C34.5332 24.0763 34.9017 23.1871 34.9017 22.2414V16.0156C34.9017 15.5108 34.491 15.1001 33.9861 15.1001H27.7413ZM30.095 22.5616C28.5805 22.5616 27.3484 21.3297 27.3484 19.8151C27.3484 18.3004 28.5805 17.0685 30.095 17.0685C31.6095 17.0685 32.8416 18.3004 32.8416 19.8151C32.8416 21.3297 31.6095 22.5616 30.095 22.5616ZM30.095 18.8995C29.5902 18.8995 29.1795 19.3102 29.1795 19.8151C29.1795 20.3199 29.5902 20.7306 30.095 20.7306C30.6 20.7306 31.0105 20.3199 31.0105 19.8151C31.0105 19.3102 30.6 18.8995 30.095 18.8995Z" fill="#833AE9"/>
</svg>
