<svg width="40" height="40" viewBox="0 0 40 40" fill="none" xmlns="http://www.w3.org/2000/svg">
<path d="M33.6424 20.9172H29.8647C29.3506 20.9172 28.8528 20.9874 28.3791 21.1166C27.4446 19.2796 25.5366 18.0173 23.3381 18.0173H16.6606C14.4621 18.0173 12.5542 19.2796 11.6197 21.1166C11.1459 20.9874 10.6482 20.9172 10.134 20.9172H6.35632C3.23915 20.9172 0.703125 23.4532 0.703125 26.5704V32.6094C0.703125 34.4797 2.22474 36.0013 4.09504 36.0013H35.9037C37.774 36.0013 39.2956 34.4797 39.2956 32.6094V26.5704C39.2956 23.4532 36.7596 20.9172 33.6424 20.9172ZM11.0074 23.6707V33.7401H4.09504C3.47161 33.7401 2.9644 33.2329 2.9644 32.6094V26.5705C2.9644 24.7002 4.48602 23.1786 6.35632 23.1786H10.134C10.4409 23.1786 10.7382 23.2202 11.0211 23.297C11.013 23.4207 11.0074 23.5451 11.0074 23.6707ZM26.7301 33.7401H13.2687V23.6706C13.2687 21.8003 14.7903 20.2787 16.6606 20.2787H23.3381C25.2085 20.2787 26.7301 21.8003 26.7301 23.6706V33.7401ZM37.0343 32.6094C37.0343 33.2329 36.5271 33.7401 35.9037 33.7401H28.9913V23.6706C28.9913 23.545 28.9858 23.4206 28.9776 23.297C29.2606 23.2202 29.5578 23.1785 29.8647 23.1785H33.6424C35.5127 23.1785 37.0343 24.7001 37.0343 26.5704V32.6094Z" fill="#020205" stroke="white" stroke-width="0.5"/>
<path d="M8.25007 10.2397C5.48008 10.2397 3.22656 12.4933 3.22656 15.2633C3.22649 18.0332 5.48008 20.2868 8.25007 20.2868C11.02 20.2868 13.2736 18.0332 13.2736 15.2633C13.2736 12.4933 11.0201 10.2397 8.25007 10.2397ZM8.24999 18.0255C6.72687 18.0255 5.48777 16.7864 5.48777 15.2633C5.48777 13.7401 6.72687 12.501 8.24999 12.501C9.77312 12.501 11.0122 13.7401 11.0122 15.2633C11.0122 16.7864 9.77312 18.0255 8.24999 18.0255Z" fill="#020205" stroke="white" stroke-width="0.5"/>
<path d="M20.0082 4C16.3075 4 13.2969 7.01067 13.2969 10.7113C13.2969 14.412 16.3075 17.4226 20.0082 17.4226C23.7089 17.4226 26.7195 14.412 26.7195 10.7113C26.7195 7.01074 23.7089 4 20.0082 4ZM20.0082 15.1614C17.5544 15.1614 15.5582 13.1651 15.5582 10.7113C15.5582 8.25761 17.5544 6.26128 20.0082 6.26128C22.462 6.26128 24.4582 8.25753 24.4582 10.7113C24.4582 13.1651 22.462 15.1614 20.0082 15.1614Z" fill="#020205" stroke="white" stroke-width="0.5"/>
<path d="M31.7579 10.2397C28.988 10.2397 26.7344 12.4933 26.7344 15.2633C26.7345 18.0332 28.988 20.2868 31.7579 20.2868C34.5279 20.2868 36.7814 18.0332 36.7814 15.2633C36.7814 12.4933 34.5279 10.2397 31.7579 10.2397ZM31.7579 18.0255C30.2348 18.0255 28.9957 16.7864 28.9957 15.2633C28.9957 13.7401 30.2348 12.501 31.7579 12.501C33.281 12.501 34.5201 13.7401 34.5201 15.2633C34.5201 16.7864 33.281 18.0255 31.7579 18.0255Z" fill="#020205" stroke="white" stroke-width="0.5"/>
</svg>
