<svg xmlns="http://www.w3.org/2000/svg" width="155" height="28" fill="none" xmlns:v="https://vecta.io/nano"><rect width="27.053" height="27.053" rx="2" fill="#00b67a"/><path d="M13.531 3.152l2.329 7.169h7.538L17.3 14.752l2.329 7.169-6.098-4.431-6.098 4.431 2.329-7.169-6.098-4.431h7.538l2.329-7.169z" fill="#fff"/><rect x="31.793" width="27.053" height="27.053" rx="2" fill="#00b67a"/><use href="#C" fill="#fff"/><rect x="63.578" width="27.053" height="27.053" rx="2" fill="#00b67a"/><use href="#C" x="31.785" fill="#fff"/><rect x="95.359" width="27.053" height="27.053" rx="2" fill="#00b67a"/><path d="M108.891 3.152l2.329 7.169h7.538l-6.098 4.431 2.329 7.169-6.098-4.431-6.099 4.431 2.33-7.169-6.099-4.431h7.538l2.33-7.169z" fill="#fff"/><rect x="127.156" width="27.053" height="27.053" rx="2" fill="#00b67a"/><path d="M140.687 3.152l2.33 7.169h7.538l-6.099 4.431 2.33 7.169-6.099-4.431-6.098 4.431 2.33-7.169-6.099-4.431h7.538l2.329-7.169z" fill="#fff"/><mask id="A" maskUnits="userSpaceOnUse" x="130" y="3" width="21" height="19" mask-type="alpha"><path d="M140.676 3.152l2.329 7.169h7.538l-6.098 4.431 2.329 7.169-6.098-4.431-6.099 4.431 2.33-7.169-6.098-4.431h7.537l2.33-7.169z" fill="#fff"/></mask><g mask="url(#A)"><path fill="#00b67a" d="M148.703 1.943h3.027v21.96h-3.027z"/></g><defs ><path id="C" d="M45.324 3.152l2.329 7.169h7.538l-6.098 4.431 2.329 7.169-6.098-4.431-6.098 4.431 2.329-7.169-6.098-4.431h7.538l2.329-7.169z"/></defs></svg>