<svg xmlns="http://www.w3.org/2000/svg" width="109" height="27" fill="none" xmlns:v="https://vecta.io/nano"><path d="M28.473 10.528v.987h2.163 2.163v5.736 5.736h1.128 1.128v-5.736-5.736h2.163 2.163v-.987-.987h-5.454-5.454v.987zm55.66 0v.987h1.034 1.035v-.987-.987h-1.035-1.034v.987zm4.047 5.736v6.723h1.082 1.081v-6.723-6.723h-1.081-1.082v6.723zm-21.081-4.495l-.028 1.486-.772.028-.78.028v.743.752h.79.799l.028 3.404c.029 3.31.038 3.423.235 3.836.245.489.658.799 1.251.931.48.113 1.458.132 2.106.047l.433-.066v-.78-.78l-.508.056a2.46 2.46 0 0 1-.856-.066c-.582-.198-.611-.338-.611-3.667v-2.915h.987.988v-.752-.743l-.959-.028-.968-.028-.029-1.486-.028-1.476h-1.025-1.025l-.028 1.476zm37.069.029v1.505h-.798-.8v.752.752h.79.79l.047 3.31.15 3.667a1.7 1.7 0 0 0 .969 1.063c.479.188 1.627.282 2.369.198l.527-.066v-.771-.771h-.714c-.668 0-.725-.019-.941-.263l-.226-.263v-3.056-3.047h.941.94v-.752-.752h-.94-.941v-1.505-1.505h-1.081-1.082v1.505zm-61.379 1.449c-.658.31-1.326.94-1.589 1.514l-.226.47v-.968-.959h-.987H39v4.843 4.843h1.034 1.035v-2.586c0-2.727.056-3.272.432-4.006.273-.536.94-1.147 1.429-1.288.206-.066.667-.113 1.043-.113h.668v-.987-.987h-.677c-.527 0-.799.056-1.175.226zm16.29-.135c-1.251.254-2.323 1.025-2.567 1.843-.235.809-.112 1.674.32 2.304.489.705 1.232 1.044 3.31 1.495 1.824.404 2.379.687 2.548 1.279.272.987-.526 1.561-2.163 1.561-1.26 0-2.04-.498-2.209-1.41l-.057-.301h-1.025-1.025v.329c0 .818.667 1.89 1.467 2.36 1.41.827 3.761.893 5.331.15 1.063-.498 1.58-1.119 1.768-2.125.197-1.063-.226-2.031-1.109-2.595-.555-.348-.968-.489-2.736-.893-1.542-.348-2.125-.602-2.332-1.006-.46-.893.461-1.58 1.956-1.457.846.075 1.363.357 1.627.884l.188.404h1.072 1.063l-.066-.348c-.216-1.147-1.185-2.069-2.539-2.426-.592-.15-2.163-.179-2.821-.047zm17.408.097a2.75 2.75 0 0 0-1.486 1.063l-.273.376v-.668-.677h-.987-.987v6.676 6.676h1.034 1.034V24.21l.047-2.445c.029 0 .197.169.386.376.733.809 2.294 1.269 3.611 1.044 1.533-.254 2.595-1.204 3.169-2.84.33-.95.405-2.652.179-3.695-.404-1.815-1.523-3.075-3.112-3.498-.677-.188-1.956-.16-2.614.056zm2.153 1.674c.536.273 1.119.959 1.364 1.608.395 1.062.329 2.727-.151 3.677-.272.536-.827 1.072-1.307 1.269s-1.504.207-1.975.009c-.968-.404-1.588-1.326-1.767-2.633-.273-1.899.498-3.639 1.805-4.053.573-.188 1.542-.132 2.031.122zm16.881-1.713c-1.081.291-2.134 1.034-2.68 1.909-.94 1.486-1.053 3.912-.254 5.614 1.561 3.338 6.996 3.432 8.651.141.432-.846.602-1.608.602-2.689.009-2.558-1.288-4.41-3.461-4.984-.696-.179-2.181-.179-2.859.009zm2.276 1.58c1.335.48 2.012 1.758 1.927 3.62-.103 2.05-1.118 3.225-2.801 3.225-.762 0-1.176-.16-1.73-.677-1.768-1.636-1.213-5.51.883-6.159.546-.16 1.261-.169 1.721-.009zm-51.726 2.284c.029 3.677.038 3.752.254 4.307.301.771.997 1.457 1.703 1.674.837.254 1.758.301 2.407.122.696-.207 1.429-.677 1.73-1.128.132-.188.264-.338.311-.338.038 0 .065.291.065.658v.658h1.034 1.034v-4.843-4.843h-1.081-1.082v3.235c0 3.451-.028 3.667-.489 4.288-.339.47-1.053.762-1.853.762-1.109.009-1.664-.414-1.88-1.429-.066-.282-.104-1.74-.104-3.658v-3.197h-1.043-1.034l.028 3.733zm38.062 1.109v4.843h1.034 1.035v-4.843V13.3h-1.035-1.034v4.843z" fill="#1b1b1b"/><path d="M12.736.852c-.094.282-.141.555-.104.621.037.056.028.075-.019.047-.075-.038-.64 1.561-.649 1.834 0 .028-.029.085-.066.122s-.038.122-.009.198.009.132-.038.132c-.076 0-.386.818-.442 1.175a8.43 8.43 0 0 1-.188.583c-.084.273-.131.545-.094.602.038.066.029.085-.029.056-.056-.038-.131.066-.169.244l-.094.348-.122.31c-.066.151-.094.31-.056.357.028.047 0 .085-.047.085-.056 0-.104.047-.104.103 0 .047.047.066.095.038.056-.028.094-.009.094.038 0 .056-.066.103-.16.103-.085 0-.122.028-.094.066.037.028.028.103-.019.16s-.179.414-.282.78l-.207.686-4.861.019-4.861.028.686.498c.376.273.733.47.791.432.065-.038.075-.028.038.038s.047.179.197.273l.987.705c.395.301.771.545.818.545.056 0 .104.038.104.085 0 .113.677.536.799.498.057-.019.066 0 .029.038-.085.075.592.602.696.545.047-.028.075 0 .075.047 0 .056.179.216.405.357.216.141.423.291.451.338.029.038.122.047.197.019.104-.047.15-.009.141.113-.01.094.037.16.104.151.056-.019.113.009.113.047 0 .047.273.273.602.517l.611.451-.17.489-.179.536a.92.92 0 0 1-.056.188l-1.974 6.206c-.01.075-.038.16-.075.188s-.085.16-.113.282a3.71 3.71 0 0 1-.188.63c-.104.301-.113.404-.029.404.066 0 .038.047-.047.103-.095.047-.17.132-.17.188s.047.047.113-.009.32-.245.565-.414.414-.338.376-.376-.019-.056.029-.038c.122.038 1.175-.668 1.175-.79 0-.038.047-.075.095-.075.113 0 1.504-.997 1.664-1.194.056-.075.141-.141.188-.141.17-.009.866-.583.809-.668-.029-.056-.01-.066.046-.028.104.056 1.26-.715 1.317-.893.019-.047.075-.085.131-.085.047 0 .395-.226.762-.498l1.946-1.429 1.363-1.034c.056-.066.122-.122.17-.122.094-.019.761-.517.799-.611.019-.038.076-.066.122-.066.151 0 .931-.63.866-.696-.029-.028.028-.056.131-.056s.301-.104.442-.235.272-.235.291-.235c.094 0 1.269-.884 1.269-.959 0-.038.066-.075.141-.075s.141-.047.141-.094c0-.056.047-.094.094-.094.188 0 1.411-.959 1.354-1.053-.038-.066-.019-.075.038-.038.113.066.959-.48.959-.621 0-.038.056-.075.131-.075.066 0 .198-.094.282-.216.085-.113.131-.15.094-.075s.141-.028.395-.216c.254-.197.451-.395.432-.451-.009-.047.019-.066.066-.038.056.038.48-.226.959-.574l.865-.639-4.851-.028-4.852-.019-.762-2.379-.846-2.417c-.038-.028-.066-.113-.066-.197s-.056-.348-.122-.592c-.104-.376-.141-.414-.263-.32-.122.103-.132.094-.037-.075.113-.216-.029-.884-.188-.884-.046 0-.066-.038-.038-.085.056-.085-.113-.677-.216-.762a.36.36 0 0 1-.066-.169c-.028-.367-.047-.404-.15-.339-.066.038-.075.028-.037-.047.065-.103-.085-.733-.216-.874-.029-.038-.132.169-.226.451zm5.303 16.782l-.47.15a.55.55 0 0 1-.226.038c-.038-.009-.131.038-.206.094-.076.066-.16.085-.188.056s-.188-.009-.348.047l-.395.113-1.928.545c0 .038-.056.047-.122.019-.075-.028-.254.009-.405.066-.254.103-.329.132-.555.16-.046.009.264.273.677.583.517.376.827.545.941.508.122-.038.131-.028.046.028-.084.066.197.329 1.063.959.658.47 1.232.837 1.278.799.047-.028.076 0 .066.075-.019.066.047.113.131.113.095-.009.151.019.122.056s.104.188.282.32c.179.141.329.235.329.207s.132.075.292.216c.16.15.404.329.536.395.141.075.301.197.366.273s.122.113.122.075.104.038.235.169.282.207.348.169.075-.028.038.038c-.066.103.056.16.254.122.047-.009.056.019.029.066s.084.179.235.291l.291.216-.066-.216-.169-.461c-.056-.132-.085-.273-.085-.31.01-.038-.037-.094-.113-.122-.066-.028-.113-.122-.085-.207.019-.094-.009-.291-.075-.442l-.131-.423c-.038-.338-.376-1.185-.508-1.298-.085-.075-.094-.104-.028-.066.122.066.16-.066.046-.179-.075-.075-.084-.122-.113-.395 0-.085-.056-.113-.122-.075s-.075.028-.037-.038c.075-.132-.386-1.702-.565-1.909-.075-.085-.103-.169-.075-.207.038-.028.029-.132-.009-.226a1.4 1.4 0 0 1-.132-.404c-.009-.113-.131-.113-.574.009z" fill="#00b67a"/><path d="M17.775 15.262l.676 2.365-5.744 1.352 5.068-3.717z" fill="#01522c"/></svg>