<svg xmlns="http://www.w3.org/2000/svg" width="60" height="40" fill="none" xmlns:v="https://vecta.io/nano"><g clip-path="url(#B)"><path d="M57 .5H3A2.5 2.5 0 0 0 .5 3v34A2.5 2.5 0 0 0 3 39.5h54a2.5 2.5 0 0 0 2.5-2.5V3A2.5 2.5 0 0 0 57 .5z" fill="#fff" stroke="#d7ebff"/><mask id="A" maskUnits="userSpaceOnUse" x="6" y="12" width="47" height="17"><path d="M53 12H6v16.597h47V12z" fill="#fff"/></mask><g mask="url(#A)"><path fill-rule="evenodd" d="M6.377 26.253h.352l-.33 1.367c-.05.201-.039.357.028.458s.19.151.374.151c.179 0 .33-.05.447-.151s.196-.257.246-.458l.329-1.367h.358l-.335 1.401c-.073.301-.201.53-.391.681-.184.151-.431.229-.732.229s-.508-.073-.62-.223-.134-.379-.061-.681l.335-1.407zm42.384 2.249l.536-2.249h1.223l-.073.313h-.866l-.134.564h.866l-.078.318h-.865l-.172.725h.866l-.078.329h-1.224zm-.034-1.702c-.074-.086-.168-.153-.273-.195a.83.83 0 0 0-.341-.067.98.98 0 0 0-.642.234c-.19.156-.313.363-.374.614-.056.24-.034.441.078.603.106.156.273.234.497.234.132 0 .263-.024.385-.073a1.59 1.59 0 0 0 .391-.212l-.1.413a1.24 1.24 0 0 1-.352.156 1.42 1.42 0 0 1-.38.05c-.153.003-.305-.026-.447-.084a.78.78 0 0 1-.318-.251.8.8 0 0 1-.156-.379 1.13 1.13 0 0 1 .028-.469c.039-.164.105-.321.195-.463a1.47 1.47 0 0 1 .341-.38c.129-.109.277-.194.435-.251.152-.055.312-.084.474-.084a1.07 1.07 0 0 1 .358.056c.108.039.209.097.296.172l-.094.375zm-3.473.815h.609l-.101-.514c-.007-.037-.011-.074-.011-.111a1.08 1.08 0 0 1-.006-.139 1.05 1.05 0 0 1-.073.139c-.02.04-.042.08-.067.117l-.351.508zm.775.887l-.112-.581h-.871l-.391.581h-.374l1.619-2.338.502 2.338h-.374zm-2.948 0l.536-2.249h1.223l-.073.313h-.865l-.134.558h.865l-.078.318h-.866l-.251 1.055h-.357v.006zm-1.055-1.295h.067c.19 0 .318-.022.391-.067s.123-.123.151-.24c.028-.123.017-.212-.039-.262s-.172-.078-.352-.078h-.067l-.151.648zm-.089.285l-.24 1.005h-.335l.536-2.249h.497c.111-.002.221.007.33.028.069.013.133.046.184.095.057.058.094.132.106.212a.71.71 0 0 1-.011.285c-.045.179-.117.323-.229.424a.76.76 0 0 1-.419.184l.508 1.021h-.402l-.486-1.005h-.039zm-2.204 1.01l.536-2.249h1.228l-.072.313h-.866l-.134.564h.866l-.078.318h-.866l-.172.725h.865l-.078.329h-1.229zm-.385-1.942l-.464 1.937h-.357l.463-1.937h-.581l.072-.312H40l-.072.313h-.581.001zm-3.635 1.942l.558-2.338 1.061 1.373.084.123.089.151.374-1.557h.329l-.559 2.333-1.083-1.401-.084-.117a.6.6 0 0 1-.067-.134l-.374 1.563h-.329v.006zm-.871 0l.536-2.249h.357l-.536 2.249h-.357zm-2.63-.452l.318-.134c.005.1.033.178.095.229s.145.078.257.078c.099.003.196-.029.274-.089s.131-.144.151-.24c.034-.134-.044-.251-.234-.352a.34.34 0 0 0-.062-.034c-.212-.123-.346-.229-.402-.329s-.067-.218-.033-.357c.041-.178.144-.336.29-.446s.332-.174.52-.172c.162 0 .29.034.385.095s.145.156.162.274l-.314.144a.34.34 0 0 0-.106-.156c-.049-.035-.108-.052-.168-.05-.088-.002-.174.026-.245.078s-.116.124-.134.207c-.033.134.062.262.28.379.012.008.026.015.039.021.19.101.318.201.374.301s.067.218.034.368a.89.89 0 0 1-.319.508c-.165.126-.368.193-.575.19-.184 0-.329-.045-.431-.134-.112-.089-.162-.218-.156-.379l.002.001zm-.374-1.49l-.463 1.937h-.357l.463-1.937h-.581l.072-.312h1.519l-.073.313h-.58zm-3.635 1.942l.558-2.338 1.061 1.373.084.123.089.151.374-1.557h.329l-.558 2.333-1.083-1.401-.084-.117c-.028-.042-.05-.087-.067-.134l-.374 1.563h-.329v.006zm-1.631 0l.536-2.249h1.223l-.073.313h-.866l-.134.564h.865l-.078.318h-.865l-.172.725h.865l-.078.329h-1.224zm-.592-1.111c0-.017.006-.067.017-.145l.017-.162-.073.156a1.19 1.19 0 0 1-.101.157l-.86 1.2-.279-1.221-.028-.145c-.006-.046-.01-.093-.011-.139l-.044.151a1.26 1.26 0 0 1-.067.162l-.502 1.105h-.33l1.077-2.344.307 1.418c.008.037.013.074.017.111l.028.195.156-.246c.015-.019.027-.04.039-.061l.972-1.418-.034 2.344h-.329l.029-1.117zm-3.401 1.111l.246-1.027-.447-1.217h.374l.28.765.022.078.028.101.067-.101c.021-.033.045-.061.067-.089l.653-.753h.357l-1.044 1.211-.246 1.027h-.358v.006zm-1.658-.887h.609l-.101-.514c-.007-.037-.011-.074-.011-.111a1.1 1.1 0 0 1-.006-.139c-.021.048-.045.095-.073.139-.02.04-.042.08-.067.117l-.352.508zm.771.887l-.112-.581h-.871l-.391.581h-.376l1.619-2.338.503 2.338h-.372zm-2.24-1.311h.089c.196 0 .335-.022.413-.067s.129-.122.156-.234c.028-.117.011-.206-.045-.251-.061-.05-.184-.073-.368-.073h-.089l-.156.625zm-.095.301l-.24 1.01h-.335l.536-2.249h.542c.162 0 .274.011.346.028a.34.34 0 0 1 .172.089c.06.056.099.131.112.212.016.097.012.195-.011.29a.93.93 0 0 1-.129.296.77.77 0 0 1-.212.212.75.75 0 0 1-.218.089 1.83 1.83 0 0 1-.357.028h-.207v-.006h.001zm-3.335.675h.301c.162 0 .29-.011.38-.033s.167-.06.24-.111a.91.91 0 0 0 .251-.273 1.22 1.22 0 0 0 .151-.38c.033-.145.045-.268.028-.374a.51.51 0 0 0-.123-.274.38.38 0 0 0-.195-.112c-.084-.021-.212-.033-.396-.033h-.257l-.38 1.59zm-.436.335l.537-2.249h.481c.313 0 .531.017.648.05s.218.084.296.162a.71.71 0 0 1 .196.379c.028.156.017.335-.028.53a1.75 1.75 0 0 1-.223.53 1.3 1.3 0 0 1-.38.38 1.09 1.09 0 0 1-.369.162c-.129.033-.323.05-.582.05h-.575v.006zm-1.637 0l.536-2.249h1.223l-.072.313h-.866l-.134.564h.866l-.078.318h-.865l-.172.725h.866l-.078.329h-1.224zm-.866 0l.536-2.249h.357l-.536 2.249h-.357zm-1.62 0l.536-2.249h1.223l-.073.313h-.865l-.134.558h.865l-.078.318h-.866l-.251 1.055h-.357v.006zm-.866 0l.536-2.249h.357l-.536 2.249h-.357zm-2.468 0l.558-2.338 1.061 1.373.084.123.089.151.374-1.557h.329l-.558 2.333-1.083-1.401-.084-.117a.6.6 0 0 1-.067-.134l-.374 1.563h-.329v.006z" fill="#3a3734"/><path fill-rule="evenodd" d="M42.261 24.294H39.81L43.216 12h2.452l-3.407 12.294zm-20.371-.77a1.13 1.13 0 0 1-1.083.826H8.17c-.346 0-.603-.117-.771-.351s-.207-.525-.106-.871l3.082-11.094h2.452l-2.753 9.911h9.806l2.752-9.911h2.452L21.89 23.524zm19.098-11.139c-.167-.234-.43-.351-.787-.351H26.732l-.664 2.411h12.252l-.715 2.573h-9.799v-.006h-2.452l-2.033 7.34h2.451l1.362-4.923h11.018c.346 0 .67-.117.972-.352s.503-.525.598-.871l1.362-4.922c.106-.368.073-.664-.095-.899z" fill="#716d6a"/><path fill-rule="evenodd" d="M49.9 12.022l3.099 6.161-6.517 6.161.775-2.795 3.564-3.367-1.696-3.37.774-2.791z" fill="#0e8635"/><path fill-rule="evenodd" d="M47.723 12.022l3.099 6.161-6.522 6.161 3.423-12.322z" fill="#e97208"/></g></g><defs><clipPath id="B"><path fill="#fff" d="M0 0h60v40H0z"/></clipPath></defs></svg>