<svg xmlns="http://www.w3.org/2000/svg" width="45" height="45" fill="#466eff" xmlns:v="https://vecta.io/nano"><path d="M33.459 19.222c0-6.047-4.922-10.96-10.96-10.96s-10.96 4.913-10.96 10.96c0 6.038 4.913 10.96 10.96 10.96s10.96-4.922 10.96-10.96zm-10.96 9.545c-5.265 0-9.554-4.28-9.554-9.554a9.56 9.56 0 0 1 9.554-9.545c5.265 0 9.554 4.28 9.554 9.554a9.56 9.56 0 0 1-9.554 9.545zm13.427 1.793c.395-.202.747-.466 1.02-.835.712-.976.545-2.25.387-3.489-.105-.8-.211-1.635-.026-2.197.167-.527.73-1.116 1.266-1.679.835-.879 1.775-1.872 1.775-3.129s-.932-2.268-1.767-3.146c-.536-.571-1.099-1.151-1.266-1.679-.185-.562-.079-1.398.026-2.197.158-1.239.316-2.514-.387-3.489-.712-.984-1.986-1.222-3.217-1.459-.791-.149-1.608-.299-2.074-.642-.466-.334-.853-1.055-1.23-1.758-.571-1.055-1.23-2.25-2.399-2.637-1.125-.369-2.276.176-3.393.703-.747.352-1.512.712-2.127.712s-1.38-.36-2.127-.712c-1.116-.527-2.268-1.072-3.393-.703-1.178.378-1.793 1.529-2.399 2.637-.378.694-.773 1.424-1.23 1.758-.475.343-1.283.501-2.074.642-1.23.229-2.505.475-3.217 1.459-.712.976-.545 2.25-.387 3.489.105.8.211 1.635.026 2.197-.167.527-.729 1.116-1.266 1.679-.835.879-1.775 1.872-1.775 3.129s.949 2.25 1.775 3.129c.536.571 1.099 1.151 1.266 1.679.185.563.079 1.398-.026 2.197-.158 1.239-.316 2.514.387 3.489.272.369.624.642 1.02.835l-3.832 6.636c-.141.246-.123.554.053.782a.71.71 0 0 0 .738.255l5.66-1.52 1.521 5.66a.72.72 0 0 0 .589.519c.035 0 .061.009.088.009.246 0 .483-.132.606-.352l3.595-6.232c.765-.088 1.538-.448 2.285-.8s1.512-.712 2.127-.712 1.38.36 2.127.712 1.52.721 2.285.8l3.595 6.232c.123.22.36.352.606.352.026 0 .062 0 .088-.009.281-.035.51-.237.589-.519l1.52-5.66 5.66 1.52c.272.07.563-.026.738-.255a.71.71 0 0 0 .053-.782l-3.858-6.618zM14.12 40.368l-1.257-4.702c-.097-.378-.483-.598-.861-.501L7.3 36.422l3.129-5.423.835.167c.791.149 1.608.299 2.074.642.466.334.853 1.055 1.231 1.758.51.94 1.081 1.986 2.03 2.478l-2.479 4.324zm8.376-6.979c-.932 0-1.846.431-2.725.844-.87.413-1.767.835-2.355.642-.642-.211-1.125-1.107-1.6-1.969-.457-.835-.923-1.696-1.643-2.224-.729-.527-1.705-.712-2.646-.888-.958-.185-1.951-.369-2.347-.896-.378-.518-.255-1.52-.132-2.479s.246-1.942-.035-2.812c-.272-.826-.94-1.538-1.582-2.215-.686-.721-1.397-1.468-1.397-2.162s.712-1.441 1.397-2.162c.65-.686 1.318-1.389 1.582-2.215.281-.87.158-1.854.035-2.812-.123-.967-.246-1.96.132-2.479.387-.536 1.38-.721 2.347-.896.941-.176 1.916-.36 2.646-.888.721-.519 1.187-1.389 1.643-2.224.475-.87.958-1.758 1.6-1.969.598-.193 1.494.229 2.355.642.879.413 1.793.844 2.725.844s1.846-.431 2.725-.844c.87-.413 1.767-.835 2.355-.642.642.211 1.125 1.107 1.6 1.969.457.835.923 1.696 1.643 2.224.73.527 1.705.712 2.645.888.958.185 1.951.369 2.347.896.378.519.255 1.521.132 2.479s-.246 1.942.035 2.813c.273.826.94 1.538 1.582 2.215.686.721 1.398 1.468 1.398 2.162s-.712 1.441-1.398 2.162c-.65.686-1.318 1.389-1.582 2.215-.281.87-.158 1.855-.035 2.813.123.967.246 1.96-.132 2.479-.387.536-1.38.721-2.347.896-.94.176-1.916.36-2.645.888-.721.519-1.186 1.389-1.643 2.224-.475.87-.958 1.758-1.6 1.969-.598.193-1.494-.228-2.355-.642-.879-.413-1.793-.844-2.725-.844zm10.494 1.775c-.378-.097-.765.123-.861.501l-1.257 4.702-2.487-4.307c.94-.483 1.494-1.494 2.03-2.478.378-.694.774-1.424 1.23-1.758.475-.343 1.283-.501 2.074-.642l.835-.167 3.129 5.423-4.693-1.274zm-3.9-20.249c-.273-.272-.721-.272-.993 0l-7.119 7.119-4.069-4.069c-.272-.273-.721-.273-.993 0s-.273.721 0 .993l4.57 4.57c.132.132.308.202.501.202s.369-.07.501-.202l7.603-7.62c.272-.272.272-.721 0-.993z"/></svg>