<svg xmlns="http://www.w3.org/2000/svg" width="60" height="40" fill="none" xmlns:v="https://vecta.io/nano"><g clip-path="url(#A)"><path d="M57 .5H3A2.5 2.5 0 0 0 .5 3v34A2.5 2.5 0 0 0 3 39.5h54a2.5 2.5 0 0 0 2.5-2.5V3A2.5 2.5 0 0 0 57 .5z" fill="#fff" stroke="#d7ebff"/><path fill-rule="evenodd" d="M19.751 26.617h-3.721L13.239 15.97c-.133-.49-.414-.923-.827-1.127-1.032-.513-2.17-.921-3.411-1.127v-.41h5.995c.827 0 1.448.616 1.551 1.331l1.448 7.679 3.72-9.01h3.618l-5.581 13.309zm7.65 0h-3.515l2.894-13.309h3.515L27.4 26.617zm7.441-9.622c.104-.717.724-1.127 1.448-1.127 1.138-.103 2.377.103 3.411.614l.62-2.866c-1.034-.41-2.172-.616-3.204-.616-3.411 0-5.893 1.844-5.893 4.402 0 1.947 1.758 2.968 2.999 3.584 1.343.614 1.86 1.024 1.756 1.638 0 .921-1.034 1.331-2.067 1.331-1.241 0-2.482-.307-3.618-.82l-.62 2.867c1.241.511 2.584.717 3.825.717 3.825.101 6.202-1.741 6.202-4.505 0-3.481-4.859-3.685-4.859-5.22zM52 26.617L49.21 13.307h-2.997c-.62 0-1.241.41-1.448 1.024l-5.167 12.286h3.618l.722-1.945h4.445l.414 1.945H52zm-5.271-9.725l1.032 5.016h-2.894l1.862-5.016z" fill="#172b85"/></g><defs><clipPath id="A"><path fill="#fff" d="M0 0h60v40H0z"/></clipPath></defs></svg>